<svg width="1440" height="1793" viewBox="0 0 1440 1793" fill="none" xmlns="http://www.w3.org/2000/svg">
<g filter="url(#filter0_d)">
<path d="M1344.21 304.583C1344.21 304.583 1446.67 377.913 1496.32 437.196C1549.7 500.921 1599.68 617.263 1599.68 617.263" stroke="#B7E400" stroke-width="10" stroke-linecap="round" stroke-linejoin="round"/>
</g>
<path d="M1354.91 295.187C1354.91 295.187 1384.35 323.669 1402.14 341.776C1421.26 361.241 1447.57 389.741 1447.57 389.741" stroke="#8FB200" stroke-width="10" stroke-linecap="round" stroke-linejoin="round"/>
<g filter="url(#filter1_d)">
<path fill-rule="evenodd" clip-rule="evenodd" d="M1105.42 84.423C1093.66 131.497 1105.35 182.269 1140.92 217.846C1176.5 253.423 1227.27 265.104 1274.35 253.346C1286.1 206.272 1274.42 155.5 1238.85 119.923C1203.27 84.3463 1152.5 72.6647 1105.42 84.423Z" fill="#FF6E6E"/>
</g>
<g filter="url(#filter2_d)">
<path fill-rule="evenodd" clip-rule="evenodd" d="M1274.96 253.958C1263.2 301.032 1274.88 351.804 1310.46 387.381C1346.04 422.958 1396.81 434.639 1443.88 422.881C1455.64 375.807 1443.96 325.035 1408.38 289.458C1372.8 253.881 1322.03 242.2 1274.96 253.958Z" fill="#FF6E6E"/>
</g>
<g filter="url(#filter3_d)">
<path fill-rule="evenodd" clip-rule="evenodd" d="M1105.42 422.881C1152.5 434.64 1203.27 422.958 1238.84 387.381C1274.42 351.804 1286.1 301.032 1274.34 253.958C1227.27 242.2 1176.5 253.882 1140.92 289.459C1105.34 325.036 1093.66 375.808 1105.42 422.881Z" fill="#FF6E6E"/>
</g>
<g filter="url(#filter4_d)">
<path fill-rule="evenodd" clip-rule="evenodd" d="M1274.96 253.346C1322.03 265.105 1372.8 253.423 1408.38 217.846C1443.96 182.269 1455.64 131.497 1443.88 84.4233C1396.81 72.6649 1346.03 84.3466 1310.46 119.924C1274.88 155.5 1263.2 206.272 1274.96 253.346Z" fill="#FF6E6E"/>
</g>
<g filter="url(#filter5_d)">
<path fill-rule="evenodd" clip-rule="evenodd" d="M1035.33 253.652C1060.3 295.253 1104.46 322.894 1154.77 322.894C1205.09 322.894 1249.25 295.253 1274.22 253.652C1249.25 212.052 1205.09 184.411 1154.77 184.411C1104.46 184.411 1060.3 212.051 1035.33 253.652Z" fill="#FF6E6E"/>
</g>
<g filter="url(#filter6_d)">
<path fill-rule="evenodd" clip-rule="evenodd" d="M1275.09 253.651C1300.06 295.252 1344.22 322.893 1394.53 322.893C1444.85 322.893 1489.01 295.252 1513.98 253.652C1489.01 212.051 1444.85 184.41 1394.53 184.41C1344.22 184.41 1300.06 212.051 1275.09 253.651Z" fill="#FF6E6E"/>
</g>
<g filter="url(#filter7_d)">
<path fill-rule="evenodd" clip-rule="evenodd" d="M1274.65 492.977C1316.25 468.006 1343.89 423.844 1343.89 373.531C1343.89 323.218 1316.25 279.056 1274.65 254.084C1233.05 279.056 1205.41 323.218 1205.41 373.531C1205.41 423.844 1233.05 468.006 1274.65 492.977Z" fill="#FF6E6E"/>
</g>
<g filter="url(#filter8_d)">
<path fill-rule="evenodd" clip-rule="evenodd" d="M1274.65 253.219C1316.25 228.247 1343.89 184.086 1343.89 133.773C1343.89 83.4595 1316.25 39.2982 1274.65 14.3263C1233.05 39.2982 1205.41 83.4595 1205.41 133.773C1205.41 184.086 1233.05 228.247 1274.65 253.219Z" fill="#FF6E6E"/>
</g>
<g filter="url(#filter9_d)">
<circle r="87.3363" transform="matrix(-0.707107 0.707107 0.707107 0.707107 1274.65 251.928)" fill="white"/>
</g>
<g filter="url(#filter10_d)">
<path fill-rule="evenodd" clip-rule="evenodd" d="M1266.35 335.934C1281.85 332.693 1296.55 325.102 1308.51 313.141C1341.77 279.883 1341.24 225.433 1307.33 191.523C1293.22 177.406 1275.54 169.074 1257.31 166.558C1284.91 160.789 1315.05 168.814 1336.76 190.529C1370.67 224.438 1371.2 278.888 1337.94 312.147C1318.53 331.559 1291.9 339.461 1266.35 335.934Z" fill="white"/>
</g>
<g filter="url(#filter11_bd)">
<path d="M1272.81 342.177C1272.81 342.177 1375.27 415.508 1424.93 474.79C1478.3 538.516 1528.29 654.858 1528.29 654.858" stroke="white" stroke-opacity="0.89" stroke-width="10" stroke-linecap="round" stroke-linejoin="round"/>
</g>
<g filter="url(#filter12_bd)">
<mask id="path-14-inside-1" fill="white">
<path d="M1034.03 122.017C1022.27 169.091 1033.95 219.863 1069.53 255.44C1105.1 291.017 1155.87 302.699 1202.95 290.94C1214.71 243.866 1203.03 193.094 1167.45 157.517C1131.87 121.94 1081.1 110.259 1034.03 122.017Z"/>
<path d="M1203.56 291.552C1191.8 338.626 1203.48 389.398 1239.06 424.975C1274.64 460.552 1325.41 472.234 1372.48 460.475C1384.24 413.401 1372.56 362.629 1336.98 327.053C1301.41 291.476 1250.63 279.794 1203.56 291.552Z"/>
<path d="M1034.02 460.476C1081.1 472.234 1131.87 460.552 1167.45 424.975C1203.02 389.398 1214.71 338.626 1202.95 291.553C1155.87 279.794 1105.1 291.476 1069.53 327.053C1033.95 362.63 1022.27 413.402 1034.02 460.476Z"/>
<path d="M1203.56 290.941C1250.63 302.699 1301.41 291.018 1336.98 255.441C1372.56 219.864 1384.24 169.092 1372.48 122.018C1325.41 110.259 1274.64 121.941 1239.06 157.518C1203.48 193.095 1191.8 243.867 1203.56 290.941Z"/>
<path d="M963.928 291.246C988.9 332.846 1033.06 360.487 1083.37 360.487C1133.69 360.487 1177.85 332.847 1202.82 291.246C1177.85 249.645 1133.69 222.004 1083.37 222.004C1033.06 222.004 988.9 249.645 963.928 291.246Z"/>
<path d="M1203.69 291.246C1228.66 332.846 1272.82 360.487 1323.13 360.487C1373.45 360.487 1417.61 332.847 1442.58 291.246C1417.61 249.645 1373.45 222.004 1323.13 222.004C1272.82 222.004 1228.66 249.645 1203.69 291.246Z"/>
<path d="M1203.25 530.572C1244.85 505.601 1272.5 461.439 1272.5 411.126C1272.5 360.812 1244.85 316.651 1203.25 291.679C1161.65 316.651 1134.01 360.812 1134.01 411.126C1134.01 461.439 1161.65 505.601 1203.25 530.572Z"/>
<path d="M1203.25 290.814C1244.85 265.842 1272.5 221.681 1272.5 171.367C1272.5 121.054 1244.85 76.8927 1203.25 51.9208C1161.65 76.8927 1134.01 121.054 1134.01 171.368C1134.01 221.681 1161.65 265.842 1203.25 290.814Z"/>
<path d="M1141.5 351.278C1175.6 385.385 1230.9 385.385 1265.01 351.278C1299.12 317.171 1299.12 261.873 1265.01 227.766C1230.9 193.659 1175.6 193.659 1141.5 227.766C1107.39 261.873 1107.39 317.171 1141.5 351.278Z"/>
<path d="M1194.95 373.529C1210.45 370.288 1225.15 362.697 1237.11 350.737C1270.37 317.478 1269.84 263.028 1235.94 229.119C1221.82 215.001 1204.14 206.67 1185.91 204.154C1213.51 198.384 1243.65 206.409 1265.37 228.124C1299.28 262.033 1299.8 316.483 1266.55 349.742C1247.13 369.154 1220.5 377.056 1194.95 373.529Z"/>
</mask>
<path d="M1034.03 122.017C1022.27 169.091 1033.95 219.863 1069.53 255.44C1105.1 291.017 1155.87 302.699 1202.95 290.94C1214.71 243.866 1203.03 193.094 1167.45 157.517C1131.87 121.94 1081.1 110.259 1034.03 122.017Z" fill="white" fill-opacity="0.9"/>
<path d="M1203.56 291.552C1191.8 338.626 1203.48 389.398 1239.06 424.975C1274.64 460.552 1325.41 472.234 1372.48 460.475C1384.24 413.401 1372.56 362.629 1336.98 327.053C1301.41 291.476 1250.63 279.794 1203.56 291.552Z" fill="white" fill-opacity="0.9"/>
<path d="M1034.02 460.476C1081.1 472.234 1131.87 460.552 1167.45 424.975C1203.02 389.398 1214.71 338.626 1202.95 291.553C1155.87 279.794 1105.1 291.476 1069.53 327.053C1033.95 362.63 1022.27 413.402 1034.02 460.476Z" fill="white" fill-opacity="0.9"/>
<path d="M1203.56 290.941C1250.63 302.699 1301.41 291.018 1336.98 255.441C1372.56 219.864 1384.24 169.092 1372.48 122.018C1325.41 110.259 1274.64 121.941 1239.06 157.518C1203.48 193.095 1191.8 243.867 1203.56 290.941Z" fill="white" fill-opacity="0.9"/>
<path d="M963.928 291.246C988.9 332.846 1033.06 360.487 1083.37 360.487C1133.69 360.487 1177.85 332.847 1202.82 291.246C1177.85 249.645 1133.69 222.004 1083.37 222.004C1033.06 222.004 988.9 249.645 963.928 291.246Z" fill="white" fill-opacity="0.9"/>
<path d="M1203.69 291.246C1228.66 332.846 1272.82 360.487 1323.13 360.487C1373.45 360.487 1417.61 332.847 1442.58 291.246C1417.61 249.645 1373.45 222.004 1323.13 222.004C1272.82 222.004 1228.66 249.645 1203.69 291.246Z" fill="white" fill-opacity="0.9"/>
<path d="M1203.25 530.572C1244.85 505.601 1272.5 461.439 1272.5 411.126C1272.5 360.812 1244.85 316.651 1203.25 291.679C1161.65 316.651 1134.01 360.812 1134.01 411.126C1134.01 461.439 1161.65 505.601 1203.25 530.572Z" fill="white" fill-opacity="0.9"/>
<path d="M1203.25 290.814C1244.85 265.842 1272.5 221.681 1272.5 171.367C1272.5 121.054 1244.85 76.8927 1203.25 51.9208C1161.65 76.8927 1134.01 121.054 1134.01 171.368C1134.01 221.681 1161.65 265.842 1203.25 290.814Z" fill="white" fill-opacity="0.9"/>
<path d="M1141.5 351.278C1175.6 385.385 1230.9 385.385 1265.01 351.278C1299.12 317.171 1299.12 261.873 1265.01 227.766C1230.9 193.659 1175.6 193.659 1141.5 227.766C1107.39 261.873 1107.39 317.171 1141.5 351.278Z" fill="white" fill-opacity="0.9"/>
<path d="M1194.95 373.529C1210.45 370.288 1225.15 362.697 1237.11 350.737C1270.37 317.478 1269.84 263.028 1235.94 229.119C1221.82 215.001 1204.14 206.67 1185.91 204.154C1213.51 198.384 1243.65 206.409 1265.37 228.124C1299.28 262.033 1299.8 316.483 1266.55 349.742C1247.13 369.154 1220.5 377.056 1194.95 373.529Z" fill="white" fill-opacity="0.9"/>
<path d="M1283.16 333.141C1282.96 332.949 1282.96 332.632 1283.15 332.434C1283.34 332.235 1283.66 332.23 1283.85 332.422L1283.16 333.141ZM1330.74 379.371L1330.38 379.721L1330.74 379.371ZM1376.54 426.997C1376.73 427.2 1376.71 427.516 1376.51 427.703C1376.31 427.891 1375.99 427.878 1375.8 427.675L1376.54 426.997ZM1283.51 332.781C1283.85 332.422 1283.86 332.422 1283.86 332.422C1283.86 332.422 1283.86 332.423 1283.86 332.423C1283.86 332.424 1283.86 332.425 1283.86 332.427C1283.86 332.431 1283.87 332.436 1283.88 332.443C1283.89 332.456 1283.91 332.477 1283.94 332.504C1284 332.559 1284.08 332.64 1284.19 332.746C1284.41 332.959 1284.74 333.274 1285.16 333.681C1286 334.496 1287.22 335.679 1288.73 337.156C1291.77 340.109 1296.01 344.236 1300.8 348.928C1310.39 358.313 1322.2 369.963 1331.1 379.02L1330.38 379.721C1321.49 370.671 1309.69 359.026 1300.1 349.643C1295.31 344.951 1291.08 340.826 1288.04 337.873C1286.52 336.397 1285.3 335.213 1284.46 334.399C1284.04 333.992 1283.71 333.678 1283.49 333.465C1283.38 333.358 1283.3 333.277 1283.24 333.223C1283.22 333.196 1283.2 333.175 1283.18 333.161C1283.17 333.154 1283.17 333.149 1283.17 333.146C1283.16 333.144 1283.16 333.143 1283.16 333.142C1283.16 333.141 1283.16 333.141 1283.16 333.141C1283.16 333.141 1283.16 333.141 1283.51 332.781ZM1331.1 379.02C1340.66 388.757 1352.02 400.751 1360.99 410.31C1365.48 415.09 1369.36 419.262 1372.13 422.238C1373.51 423.727 1374.61 424.916 1375.37 425.734C1375.75 426.142 1376.04 426.458 1376.24 426.672C1376.34 426.779 1376.41 426.86 1376.46 426.914C1376.49 426.942 1376.51 426.962 1376.52 426.976C1376.53 426.983 1376.53 426.988 1376.53 426.992C1376.54 426.993 1376.54 426.995 1376.54 426.996C1376.54 426.996 1376.54 426.996 1376.54 426.997C1376.54 426.997 1376.54 426.997 1376.17 427.336C1375.8 427.675 1375.8 427.675 1375.8 427.675C1375.8 427.675 1375.8 427.674 1375.8 427.674C1375.8 427.673 1375.8 427.672 1375.8 427.67C1375.8 427.667 1375.79 427.661 1375.78 427.654C1375.77 427.641 1375.75 427.62 1375.73 427.593C1375.68 427.538 1375.6 427.457 1375.5 427.351C1375.31 427.137 1375.01 426.822 1374.64 426.413C1373.88 425.596 1372.78 424.407 1371.4 422.919C1368.63 419.943 1364.75 415.773 1360.26 410.995C1351.3 401.437 1339.94 389.449 1330.38 379.721L1331.1 379.02ZM1034.03 122.017L1033.06 121.775L1033.2 121.192L1033.78 121.047L1034.03 122.017ZM1069.53 255.44L1068.82 256.147L1069.53 255.44ZM1202.95 290.94L1203.92 291.183L1203.77 291.765L1203.19 291.911L1202.95 290.94ZM1167.45 157.517L1166.74 158.225L1167.45 157.517ZM1203.56 291.552L1202.59 291.31L1202.74 290.728L1203.32 290.582L1203.56 291.552ZM1239.06 424.975L1238.35 425.682L1239.06 424.975ZM1372.48 460.475L1373.45 460.718L1373.31 461.3L1372.73 461.446L1372.48 460.475ZM1336.98 327.053L1336.28 327.76L1336.98 327.053ZM1034.02 460.476L1033.78 461.446L1033.2 461.3L1033.05 460.718L1034.02 460.476ZM1167.45 424.975L1168.15 425.682L1167.45 424.975ZM1202.95 291.553L1203.19 290.582L1203.77 290.728L1203.92 291.31L1202.95 291.553ZM1069.53 327.053L1070.23 327.76L1069.53 327.053ZM1203.56 290.941L1203.32 291.911L1202.73 291.765L1202.59 291.183L1203.56 290.941ZM1336.98 255.441L1337.69 256.148L1336.98 255.441ZM1372.48 122.018L1372.73 121.048L1373.31 121.193L1373.45 121.775L1372.48 122.018ZM1239.06 157.518L1239.77 158.225L1239.06 157.518ZM963.928 291.246L963.071 291.76L962.762 291.246L963.071 290.731L963.928 291.246ZM1083.37 360.487L1083.37 361.487L1083.37 360.487ZM1202.82 291.246L1203.68 290.731L1203.99 291.246L1203.68 291.761L1202.82 291.246ZM1083.37 222.004L1083.37 221.004L1083.37 221.004V222.004ZM1203.69 291.246L1202.83 291.76L1202.52 291.246L1202.83 290.731L1203.69 291.246ZM1323.13 360.487L1323.13 361.487L1323.13 360.487ZM1442.58 291.246L1443.44 290.731L1443.75 291.246L1443.44 291.761L1442.58 291.246ZM1323.13 222.004L1323.13 221.004H1323.13V222.004ZM1203.25 530.572L1203.77 531.43L1203.25 531.739L1202.74 531.43L1203.25 530.572ZM1272.5 411.126L1273.5 411.126V411.126L1272.5 411.126ZM1203.25 291.679L1202.74 290.822L1203.25 290.513L1203.77 290.822L1203.25 291.679ZM1134.01 411.126L1133.01 411.126L1134.01 411.126ZM1203.25 290.814L1203.77 291.672L1203.25 291.98L1202.74 291.671L1203.25 290.814ZM1272.5 171.367L1273.5 171.367V171.367L1272.5 171.367ZM1203.25 51.9208L1202.74 51.0634L1203.25 50.7545L1203.77 51.0634L1203.25 51.9208ZM1134.01 171.368L1133.01 171.368L1134.01 171.368ZM1194.95 373.529L1194.81 374.519L1194.75 372.55L1194.95 373.529ZM1185.91 204.154L1185.78 205.144L1185.71 203.175L1185.91 204.154ZM1035 122.259C1023.32 169.022 1034.93 219.425 1070.23 254.733L1068.82 256.147C1032.97 220.301 1021.22 169.16 1033.06 121.775L1035 122.259ZM1070.23 254.733C1105.54 290.041 1155.94 301.651 1202.71 289.97L1203.19 291.911C1155.81 303.747 1104.66 291.993 1068.82 256.147L1070.23 254.733ZM1201.98 290.698C1213.66 243.935 1202.05 193.532 1166.74 158.225L1168.16 156.81C1204 192.656 1215.75 243.798 1203.92 291.183L1201.98 290.698ZM1166.74 158.225C1131.43 122.917 1081.03 111.307 1034.27 122.987L1033.78 121.047C1081.17 109.211 1132.31 120.964 1168.16 156.81L1166.74 158.225ZM1204.53 291.795C1192.85 338.557 1204.46 388.96 1239.77 424.268L1238.35 425.682C1202.51 389.836 1190.75 338.695 1202.59 291.31L1204.53 291.795ZM1239.77 424.268C1275.08 459.576 1325.48 471.186 1372.24 459.505L1372.73 461.446C1325.34 473.282 1274.2 461.528 1238.35 425.682L1239.77 424.268ZM1371.51 460.233C1383.19 413.47 1371.58 363.067 1336.28 327.76L1337.69 326.345C1373.54 362.192 1385.29 413.333 1373.45 460.718L1371.51 460.233ZM1336.28 327.76C1300.97 292.452 1250.57 280.842 1203.8 292.522L1203.32 290.582C1250.7 278.746 1301.84 290.499 1337.69 326.345L1336.28 327.76ZM1034.27 459.505C1081.03 471.186 1131.43 459.576 1166.74 424.268L1168.15 425.682C1132.31 461.529 1081.17 473.282 1033.78 461.446L1034.27 459.505ZM1166.74 424.268C1202.05 388.96 1213.66 338.558 1201.98 291.795L1203.92 291.31C1215.75 338.695 1204 389.836 1168.15 425.682L1166.74 424.268ZM1202.71 292.523C1155.94 280.842 1105.54 292.452 1070.23 327.76L1068.82 326.346C1104.66 290.5 1155.81 278.746 1203.19 290.582L1202.71 292.523ZM1070.23 327.76C1034.92 363.068 1023.31 413.47 1035 460.233L1033.05 460.718C1021.22 413.333 1032.97 362.192 1068.82 326.346L1070.23 327.76ZM1203.8 289.971C1250.56 301.651 1300.97 290.041 1336.28 254.733L1337.69 256.148C1301.84 291.994 1250.7 303.747 1203.32 291.911L1203.8 289.971ZM1336.28 254.733C1371.58 219.426 1383.19 169.023 1371.51 122.26L1373.45 121.775C1385.29 169.161 1373.54 220.302 1337.69 256.148L1336.28 254.733ZM1372.24 122.988C1325.48 111.307 1275.07 122.917 1239.77 158.225L1238.35 156.811C1274.2 120.965 1325.34 109.211 1372.73 121.048L1372.24 122.988ZM1239.77 158.225C1204.46 193.533 1192.85 243.936 1204.53 290.698L1202.59 291.183C1190.75 243.798 1202.51 192.657 1238.35 156.811L1239.77 158.225ZM964.786 290.731C989.592 332.057 1033.44 359.487 1083.37 359.487L1083.37 361.487C1032.68 361.487 988.208 333.636 963.071 291.76L964.786 290.731ZM1083.37 359.487C1133.31 359.487 1177.16 332.057 1201.96 290.731L1203.68 291.761C1178.54 333.636 1134.07 361.487 1083.37 361.487L1083.37 359.487ZM1201.96 291.761C1177.16 250.435 1133.31 223.004 1083.37 223.004V221.004C1134.07 221.004 1178.54 248.855 1203.68 290.731L1201.96 291.761ZM1083.37 223.004C1033.44 223.004 989.592 250.435 964.786 291.76L963.071 290.731C988.208 248.855 1032.68 221.004 1083.37 221.004L1083.37 223.004ZM1204.54 290.731C1229.35 332.057 1273.2 359.487 1323.13 359.487L1323.13 361.487C1272.44 361.487 1227.97 333.636 1202.83 291.76L1204.54 290.731ZM1323.13 359.487C1373.07 359.487 1416.92 332.057 1441.72 290.731L1443.44 291.761C1418.3 333.636 1373.83 361.487 1323.13 361.487L1323.13 359.487ZM1441.72 291.761C1416.92 250.435 1373.07 223.004 1323.13 223.004V221.004C1373.83 221.004 1418.3 248.855 1443.44 290.731L1441.72 291.761ZM1323.13 223.004C1273.2 223.004 1229.35 250.435 1204.54 291.76L1202.83 290.731C1227.97 248.855 1272.44 221.004 1323.13 221.004L1323.13 223.004ZM1202.74 529.715C1244.06 504.908 1271.5 461.059 1271.5 411.126L1273.5 411.126C1273.5 461.82 1245.64 506.293 1203.77 531.43L1202.74 529.715ZM1271.5 411.126C1271.5 361.193 1244.06 317.343 1202.74 292.537L1203.77 290.822C1245.64 315.959 1273.5 360.432 1273.5 411.126L1271.5 411.126ZM1203.77 292.537C1162.44 317.343 1135.01 361.193 1135.01 411.126L1133.01 411.126C1133.01 360.432 1160.86 315.959 1202.74 290.822L1203.77 292.537ZM1135.01 411.126C1135.01 461.059 1162.44 504.908 1203.77 529.715L1202.74 531.43C1160.86 506.293 1133.01 461.82 1133.01 411.126L1135.01 411.126ZM1202.74 289.957C1244.06 265.15 1271.5 221.3 1271.5 171.367L1273.5 171.367C1273.5 222.061 1245.64 266.535 1203.77 291.672L1202.74 289.957ZM1271.5 171.367C1271.5 121.435 1244.06 77.5851 1202.74 52.7782L1203.77 51.0634C1245.64 76.2004 1273.5 120.673 1273.5 171.367L1271.5 171.367ZM1203.77 52.7782C1162.44 77.585 1135.01 121.435 1135.01 171.368L1133.01 171.368C1133.01 120.673 1160.86 76.2004 1202.74 51.0634L1203.77 52.7782ZM1135.01 171.368C1135.01 221.3 1162.44 265.15 1203.77 289.957L1202.74 291.671C1160.86 266.535 1133.01 222.062 1133.01 171.368L1135.01 171.368ZM1142.2 350.571C1175.92 384.288 1230.59 384.288 1264.3 350.571L1265.72 351.986C1231.22 386.483 1175.29 386.483 1140.79 351.986L1142.2 350.571ZM1264.3 350.571C1298.02 316.855 1298.02 262.19 1264.3 228.473L1265.72 227.059C1300.21 261.557 1300.21 317.488 1265.72 351.986L1264.3 350.571ZM1264.3 228.473C1230.59 194.757 1175.92 194.757 1142.2 228.473L1140.79 227.059C1175.29 192.562 1231.22 192.562 1265.72 227.059L1264.3 228.473ZM1142.2 228.473C1108.49 262.19 1108.49 316.855 1142.2 350.571L1140.79 351.986C1106.29 317.488 1106.29 261.557 1140.79 227.059L1142.2 228.473ZM1194.75 372.55C1210.06 369.348 1224.59 361.848 1236.41 350.03L1237.82 351.444C1225.72 363.547 1210.84 371.229 1195.16 374.508L1194.75 372.55ZM1236.41 350.03C1269.26 317.175 1268.76 263.358 1235.23 229.826L1236.64 228.412C1270.93 262.699 1271.48 317.782 1237.82 351.444L1236.41 350.03ZM1235.23 229.826C1221.27 215.866 1203.79 207.631 1185.78 205.144L1186.05 203.163C1204.49 205.708 1222.37 214.136 1236.64 228.412L1235.23 229.826ZM1264.66 228.831C1243.19 207.361 1213.4 199.43 1186.12 205.133L1185.71 203.175C1213.63 197.338 1244.12 205.457 1266.07 227.417L1264.66 228.831ZM1265.84 349.035C1298.69 316.18 1298.19 262.363 1264.66 228.831L1266.07 227.417C1300.36 261.704 1300.92 316.787 1267.25 350.449L1265.84 349.035ZM1195.09 372.538C1220.35 376.025 1246.66 368.213 1265.84 349.035L1267.25 350.449C1247.61 370.095 1220.66 378.087 1194.81 374.519L1195.09 372.538Z" fill="white" mask="url(#path-14-inside-1)"/>
</g>
<g filter="url(#filter13_d)">
<path d="M78.0915 1261.58C78.0915 1261.58 -24.3705 1334.91 -74.0241 1394.2C-127.399 1457.92 -177.384 1574.26 -177.384 1574.26" stroke="#B7E400" stroke-width="10" stroke-linecap="round" stroke-linejoin="round"/>
</g>
<path d="M67.3947 1252.19C67.3947 1252.19 37.9496 1280.67 20.1606 1298.78C1.03816 1318.24 -25.2691 1346.74 -25.2691 1346.74" stroke="#8FB200" stroke-width="10" stroke-linecap="round" stroke-linejoin="round"/>
<g filter="url(#filter14_d)">
<path fill-rule="evenodd" clip-rule="evenodd" d="M316.877 1041.42C328.635 1088.5 316.953 1139.27 281.376 1174.85C245.799 1210.42 195.028 1222.1 147.954 1210.35C136.195 1163.27 147.877 1112.5 183.454 1076.92C219.031 1041.35 269.803 1029.66 316.877 1041.42Z" fill="#FF6E6E"/>
</g>
<g filter="url(#filter15_d)">
<path fill-rule="evenodd" clip-rule="evenodd" d="M147.342 1210.96C159.1 1258.03 147.418 1308.8 111.841 1344.38C76.2643 1379.96 25.4924 1391.64 -21.5815 1379.88C-33.3398 1332.81 -21.6582 1282.04 13.9188 1246.46C49.4957 1210.88 100.268 1199.2 147.342 1210.96Z" fill="#FF6E6E"/>
</g>
<g filter="url(#filter16_d)">
<path fill-rule="evenodd" clip-rule="evenodd" d="M316.878 1379.88C269.804 1391.64 219.032 1379.96 183.455 1344.38C147.879 1308.8 136.197 1258.03 147.955 1210.96C195.029 1199.2 245.801 1210.88 281.378 1246.46C316.955 1282.04 328.637 1332.81 316.878 1379.88Z" fill="#FF6E6E"/>
</g>
<g filter="url(#filter17_d)">
<path fill-rule="evenodd" clip-rule="evenodd" d="M147.342 1210.35C100.268 1222.1 49.4963 1210.42 13.9193 1174.85C-21.6576 1139.27 -33.3392 1088.5 -21.5809 1041.42C25.4931 1029.66 76.265 1041.35 111.842 1076.92C147.419 1112.5 159.1 1163.27 147.342 1210.35Z" fill="#FF6E6E"/>
</g>
<g filter="url(#filter18_d)">
<path fill-rule="evenodd" clip-rule="evenodd" d="M386.974 1210.65C362.002 1252.25 317.84 1279.89 267.527 1279.89C217.214 1279.89 173.052 1252.25 148.081 1210.65C173.052 1169.05 217.214 1141.41 267.527 1141.41C317.841 1141.41 362.002 1169.05 386.974 1210.65Z" fill="#FF6E6E"/>
</g>
<g filter="url(#filter19_d)">
<path fill-rule="evenodd" clip-rule="evenodd" d="M147.214 1210.65C122.242 1252.25 78.0806 1279.89 27.7671 1279.89C-22.5461 1279.89 -66.7073 1252.25 -91.6792 1210.65C-66.7074 1169.05 -22.546 1141.41 27.7675 1141.41C78.0807 1141.41 122.242 1169.05 147.214 1210.65Z" fill="#FF6E6E"/>
</g>
<g filter="url(#filter20_d)">
<path fill-rule="evenodd" clip-rule="evenodd" d="M147.647 1449.98C106.046 1425.01 78.4053 1380.84 78.4053 1330.53C78.4053 1280.22 106.046 1236.06 147.647 1211.08C189.248 1236.06 216.888 1280.22 216.888 1330.53C216.888 1380.84 189.247 1425.01 147.647 1449.98Z" fill="#FF6E6E"/>
</g>
<g filter="url(#filter21_d)">
<path fill-rule="evenodd" clip-rule="evenodd" d="M147.647 1210.22C106.046 1185.25 78.4053 1141.09 78.4053 1090.77C78.4053 1040.46 106.046 996.298 147.647 971.326C189.247 996.298 216.888 1040.46 216.888 1090.77C216.888 1141.09 189.247 1185.25 147.647 1210.22Z" fill="#FF6E6E"/>
</g>
<g filter="url(#filter22_d)">
<circle cx="147.648" cy="1208.93" r="87.3363" transform="rotate(45 147.648 1208.93)" fill="white"/>
</g>
<g filter="url(#filter23_d)">
<path fill-rule="evenodd" clip-rule="evenodd" d="M155.952 1292.93C140.451 1289.69 125.749 1282.1 113.788 1270.14C80.5296 1236.88 81.0571 1182.43 114.966 1148.52C129.084 1134.41 146.762 1126.07 164.989 1123.56C137.387 1117.79 107.249 1125.81 85.5349 1147.53C51.6256 1181.44 51.0981 1235.89 84.3566 1269.15C103.768 1288.56 130.4 1296.46 155.952 1292.93Z" fill="white"/>
</g>
<g filter="url(#filter24_bd)">
<path d="M149.489 1299.18C149.489 1299.18 47.027 1372.51 -2.62663 1431.79C-56.0018 1495.52 -105.987 1611.86 -105.987 1611.86" stroke="white" stroke-opacity="0.89" stroke-width="10" stroke-linecap="round" stroke-linejoin="round"/>
</g>
<g filter="url(#filter25_bd)">
<mask id="path-29-inside-2" fill="white">
<path d="M388.274 1079.02C400.033 1126.09 388.351 1176.86 352.774 1212.44C317.197 1248.02 266.425 1259.7 219.351 1247.94C207.593 1200.87 219.274 1150.09 254.851 1114.52C290.428 1078.94 341.2 1067.26 388.274 1079.02Z"/>
<path d="M218.739 1248.55C230.497 1295.63 218.816 1346.4 183.239 1381.98C147.662 1417.55 96.89 1429.23 49.8161 1417.48C38.0577 1370.4 49.7393 1319.63 85.3163 1284.05C120.893 1248.48 171.665 1236.79 218.739 1248.55Z"/>
<path d="M388.275 1417.48C341.201 1429.23 290.429 1417.55 254.852 1381.98C219.275 1346.4 207.593 1295.63 219.352 1248.55C266.426 1236.79 317.198 1248.48 352.775 1284.05C388.352 1319.63 400.033 1370.4 388.275 1417.48Z"/>
<path d="M218.74 1247.94C171.666 1259.7 120.894 1248.02 85.3173 1212.44C49.7404 1176.86 38.0587 1126.09 49.817 1079.02C96.891 1067.26 147.663 1078.94 183.24 1114.52C218.817 1150.09 230.499 1200.87 218.74 1247.94Z"/>
<path d="M458.372 1248.25C433.4 1289.85 389.238 1317.49 338.925 1317.49C288.612 1317.49 244.45 1289.85 219.478 1248.25C244.45 1206.65 288.612 1179 338.925 1179C389.238 1179 433.4 1206.64 458.372 1248.25Z"/>
<path d="M218.613 1248.25C193.641 1289.85 149.479 1317.49 99.166 1317.49C48.8527 1317.49 4.69138 1289.85 -20.2805 1248.25C4.69135 1206.65 48.8527 1179 99.1662 1179C149.48 1179 193.641 1206.64 218.613 1248.25Z"/>
<path d="M219.046 1487.57C177.445 1462.6 149.804 1418.44 149.804 1368.13C149.804 1317.81 177.445 1273.65 219.046 1248.68C260.647 1273.65 288.288 1317.81 288.288 1368.13C288.288 1418.44 260.647 1462.6 219.046 1487.57Z"/>
<path d="M219.046 1247.81C177.445 1222.84 149.804 1178.68 149.804 1128.37C149.804 1078.05 177.445 1033.89 219.046 1008.92C260.647 1033.89 288.288 1078.05 288.288 1128.37C288.288 1178.68 260.647 1222.84 219.046 1247.81Z"/>
<path d="M280.802 1308.28C246.695 1342.39 191.397 1342.39 157.29 1308.28C123.183 1274.17 123.183 1218.87 157.29 1184.77C191.397 1150.66 246.695 1150.66 280.802 1184.77C314.909 1218.87 314.909 1274.17 280.802 1308.28Z"/>
<path d="M227.348 1330.53C211.848 1327.29 197.146 1319.7 185.186 1307.74C151.927 1274.48 152.455 1220.03 186.364 1186.12C200.482 1172 218.16 1163.67 236.387 1161.15C208.785 1155.38 178.647 1163.41 156.932 1185.12C123.023 1219.03 122.495 1273.48 155.754 1306.74C175.165 1326.15 201.796 1334.06 227.348 1330.53Z"/>
</mask>
<path d="M388.274 1079.02C400.033 1126.09 388.351 1176.86 352.774 1212.44C317.197 1248.02 266.425 1259.7 219.351 1247.94C207.593 1200.87 219.274 1150.09 254.851 1114.52C290.428 1078.94 341.2 1067.26 388.274 1079.02Z" fill="white" fill-opacity="0.57"/>
<path d="M218.739 1248.55C230.497 1295.63 218.816 1346.4 183.239 1381.98C147.662 1417.55 96.89 1429.23 49.8161 1417.48C38.0577 1370.4 49.7393 1319.63 85.3163 1284.05C120.893 1248.48 171.665 1236.79 218.739 1248.55Z" fill="white" fill-opacity="0.57"/>
<path d="M388.275 1417.48C341.201 1429.23 290.429 1417.55 254.852 1381.98C219.275 1346.4 207.593 1295.63 219.352 1248.55C266.426 1236.79 317.198 1248.48 352.775 1284.05C388.352 1319.63 400.033 1370.4 388.275 1417.48Z" fill="white" fill-opacity="0.57"/>
<path d="M218.74 1247.94C171.666 1259.7 120.894 1248.02 85.3173 1212.44C49.7404 1176.86 38.0587 1126.09 49.817 1079.02C96.891 1067.26 147.663 1078.94 183.24 1114.52C218.817 1150.09 230.499 1200.87 218.74 1247.94Z" fill="white" fill-opacity="0.57"/>
<path d="M458.372 1248.25C433.4 1289.85 389.238 1317.49 338.925 1317.49C288.612 1317.49 244.45 1289.85 219.478 1248.25C244.45 1206.65 288.612 1179 338.925 1179C389.238 1179 433.4 1206.64 458.372 1248.25Z" fill="white" fill-opacity="0.57"/>
<path d="M218.613 1248.25C193.641 1289.85 149.479 1317.49 99.166 1317.49C48.8527 1317.49 4.69138 1289.85 -20.2805 1248.25C4.69135 1206.65 48.8527 1179 99.1662 1179C149.48 1179 193.641 1206.64 218.613 1248.25Z" fill="white" fill-opacity="0.57"/>
<path d="M219.046 1487.57C177.445 1462.6 149.804 1418.44 149.804 1368.13C149.804 1317.81 177.445 1273.65 219.046 1248.68C260.647 1273.65 288.288 1317.81 288.288 1368.13C288.288 1418.44 260.647 1462.6 219.046 1487.57Z" fill="white" fill-opacity="0.57"/>
<path d="M219.046 1247.81C177.445 1222.84 149.804 1178.68 149.804 1128.37C149.804 1078.05 177.445 1033.89 219.046 1008.92C260.647 1033.89 288.288 1078.05 288.288 1128.37C288.288 1178.68 260.647 1222.84 219.046 1247.81Z" fill="white" fill-opacity="0.57"/>
<path d="M280.802 1308.28C246.695 1342.39 191.397 1342.39 157.29 1308.28C123.183 1274.17 123.183 1218.87 157.29 1184.77C191.397 1150.66 246.695 1150.66 280.802 1184.77C314.909 1218.87 314.909 1274.17 280.802 1308.28Z" fill="white" fill-opacity="0.57"/>
<path d="M227.348 1330.53C211.848 1327.29 197.146 1319.7 185.186 1307.74C151.927 1274.48 152.455 1220.03 186.364 1186.12C200.482 1172 218.16 1163.67 236.387 1161.15C208.785 1155.38 178.647 1163.41 156.932 1185.12C123.023 1219.03 122.495 1273.48 155.754 1306.74C175.165 1326.15 201.796 1334.06 227.348 1330.53Z" fill="white" fill-opacity="0.57"/>
<path d="M139.14 1290.14C139.339 1289.95 139.344 1289.63 139.152 1289.43C138.96 1289.24 138.643 1289.23 138.445 1289.42L139.14 1290.14ZM91.5584 1336.37L91.9151 1336.72L91.5584 1336.37ZM45.7613 1384C45.574 1384.2 45.5867 1384.52 45.7896 1384.7C45.9925 1384.89 46.3089 1384.88 46.4961 1384.68L45.7613 1384ZM138.793 1289.78C138.445 1289.42 138.445 1289.42 138.445 1289.42C138.444 1289.42 138.444 1289.42 138.444 1289.42C138.443 1289.42 138.441 1289.43 138.439 1289.43C138.436 1289.43 138.431 1289.44 138.423 1289.44C138.409 1289.46 138.388 1289.48 138.36 1289.5C138.304 1289.56 138.22 1289.64 138.11 1289.75C137.89 1289.96 137.565 1290.27 137.145 1290.68C136.305 1291.5 135.085 1292.68 133.565 1294.16C130.527 1297.11 126.29 1301.24 121.497 1305.93C111.911 1315.31 100.1 1326.96 91.2017 1336.02L91.9151 1336.72C100.806 1327.67 112.612 1316.03 122.196 1306.64C126.988 1301.95 131.224 1297.83 134.262 1294.87C135.781 1293.4 137.001 1292.21 137.841 1291.4C138.26 1290.99 138.585 1290.68 138.805 1290.46C138.915 1290.36 138.999 1290.28 139.055 1290.22C139.083 1290.2 139.105 1290.17 139.119 1290.16C139.126 1290.15 139.131 1290.15 139.135 1290.15C139.137 1290.14 139.138 1290.14 139.139 1290.14C139.139 1290.14 139.14 1290.14 139.14 1290.14C139.14 1290.14 139.14 1290.14 138.793 1289.78ZM91.2017 1336.02C81.6364 1345.76 70.2758 1357.75 61.308 1367.31C56.8238 1372.09 52.9373 1376.26 50.1717 1379.24C48.789 1380.73 47.6864 1381.92 46.9296 1382.73C46.5511 1383.14 46.2591 1383.46 46.0617 1383.67C45.963 1383.78 45.8879 1383.86 45.8375 1383.91C45.8123 1383.94 45.7933 1383.96 45.7805 1383.98C45.7742 1383.98 45.7694 1383.99 45.7662 1383.99C45.7646 1383.99 45.7634 1383.99 45.7625 1384C45.7621 1384 45.7618 1384 45.7616 1384C45.7614 1384 45.7613 1384 46.1287 1384.34C46.4961 1384.68 46.4962 1384.68 46.4964 1384.67C46.4966 1384.67 46.4969 1384.67 46.4973 1384.67C46.4981 1384.67 46.4993 1384.67 46.5009 1384.67C46.5041 1384.67 46.5089 1384.66 46.5152 1384.65C46.5279 1384.64 46.5469 1384.62 46.5721 1384.59C46.6224 1384.54 46.6974 1384.46 46.796 1384.35C46.9933 1384.14 47.2851 1383.82 47.6634 1383.41C48.4199 1382.6 49.522 1381.41 50.9043 1379.92C53.669 1376.94 57.5544 1372.77 62.0373 1367.99C71.0037 1358.44 82.358 1346.45 91.9151 1336.72L91.2017 1336.02ZM388.274 1079.02L389.244 1078.77L389.099 1078.19L388.516 1078.05L388.274 1079.02ZM352.774 1212.44L353.481 1213.15L352.774 1212.44ZM219.351 1247.94L218.381 1248.18L218.526 1248.77L219.109 1248.91L219.351 1247.94ZM254.851 1114.52L255.558 1115.22L254.851 1114.52ZM218.739 1248.55L219.709 1248.31L219.564 1247.73L218.981 1247.58L218.739 1248.55ZM183.239 1381.98L183.946 1382.68L183.239 1381.98ZM49.8161 1417.48L48.8459 1417.72L48.9914 1418.3L49.5738 1418.45L49.8161 1417.48ZM85.3163 1284.05L86.0234 1284.76L85.3163 1284.05ZM388.275 1417.48L388.517 1418.45L389.1 1418.3L389.245 1417.72L388.275 1417.48ZM254.852 1381.98L254.145 1382.68L254.852 1381.98ZM219.352 1248.55L219.109 1247.58L218.527 1247.73L218.382 1248.31L219.352 1248.55ZM352.775 1284.05L352.068 1284.76L352.775 1284.05ZM218.74 1247.94L218.983 1248.91L219.565 1248.77L219.71 1248.18L218.74 1247.94ZM85.3173 1212.44L84.6102 1213.15L85.3173 1212.44ZM49.817 1079.02L49.5747 1078.05L48.9923 1078.19L48.8469 1078.78L49.817 1079.02ZM183.24 1114.52L182.533 1115.23L183.24 1114.52ZM458.372 1248.25L459.229 1248.76L459.538 1248.25L459.229 1247.73L458.372 1248.25ZM338.925 1317.49L338.925 1318.49L338.925 1317.49ZM219.478 1248.25L218.621 1247.73L218.312 1248.25L218.621 1248.76L219.478 1248.25ZM338.925 1179L338.925 1178L338.925 1178V1179ZM218.613 1248.25L219.47 1248.76L219.779 1248.25L219.47 1247.73L218.613 1248.25ZM99.166 1317.49L99.166 1318.49L99.166 1317.49ZM-20.2805 1248.25L-21.1379 1247.73L-21.4469 1248.25L-21.1379 1248.76L-20.2805 1248.25ZM99.1662 1179L99.1662 1178H99.1662L99.1662 1179ZM219.046 1487.57L218.531 1488.43L219.046 1488.74L219.561 1488.43L219.046 1487.57ZM149.804 1368.13L148.804 1368.13L148.804 1368.13L149.804 1368.13ZM219.046 1248.68L219.561 1247.82L219.046 1247.51L218.531 1247.82L219.046 1248.68ZM288.288 1368.13L289.288 1368.13L288.288 1368.13ZM219.046 1247.81L218.531 1248.67L219.046 1248.98L219.561 1248.67L219.046 1247.81ZM149.804 1128.37L148.804 1128.37V1128.37L149.804 1128.37ZM219.046 1008.92L219.561 1008.06L219.046 1007.75L218.531 1008.06L219.046 1008.92ZM288.288 1128.37L289.288 1128.37L288.288 1128.37ZM227.348 1330.53L227.485 1331.52L227.553 1329.55L227.348 1330.53ZM236.387 1161.15L236.524 1162.14L236.592 1160.17L236.387 1161.15ZM387.304 1079.26C398.985 1126.02 387.375 1176.43 352.067 1211.73L353.481 1213.15C389.327 1177.3 401.08 1126.16 389.244 1078.77L387.304 1079.26ZM352.067 1211.73C316.759 1247.04 266.356 1258.65 219.594 1246.97L219.109 1248.91C266.494 1260.75 317.635 1248.99 353.481 1213.15L352.067 1211.73ZM220.321 1247.7C208.641 1200.94 220.251 1150.53 255.558 1115.22L254.144 1113.81C218.298 1149.66 206.545 1200.8 218.381 1248.18L220.321 1247.7ZM255.558 1115.22C290.866 1079.92 341.269 1068.31 388.032 1079.99L388.516 1078.05C341.131 1066.21 289.99 1077.96 254.144 1113.81L255.558 1115.22ZM217.769 1248.79C229.45 1295.56 217.84 1345.96 182.532 1381.27L183.946 1382.68C219.792 1346.84 231.545 1295.7 219.709 1248.31L217.769 1248.79ZM182.532 1381.27C147.224 1416.58 96.8212 1428.19 50.0584 1416.51L49.5738 1418.45C96.9588 1430.28 148.1 1418.53 183.946 1382.68L182.532 1381.27ZM50.7863 1417.23C39.1056 1370.47 50.7155 1320.07 86.0234 1284.76L84.6092 1283.35C48.763 1319.19 37.0098 1370.33 48.8459 1417.72L50.7863 1417.23ZM86.0234 1284.76C121.331 1249.45 171.734 1237.84 218.497 1249.52L218.981 1247.58C171.596 1235.75 120.455 1247.5 84.6092 1283.35L86.0234 1284.76ZM388.033 1416.51C341.27 1428.19 290.867 1416.58 255.559 1381.27L254.145 1382.68C289.991 1418.53 341.132 1430.28 388.517 1418.45L388.033 1416.51ZM255.559 1381.27C220.251 1345.96 208.641 1295.56 220.322 1248.79L218.382 1248.31C206.546 1295.7 218.299 1346.84 254.145 1382.68L255.559 1381.27ZM219.594 1249.52C266.357 1237.84 316.76 1249.45 352.068 1284.76L353.482 1283.35C317.636 1247.5 266.495 1235.75 219.109 1247.58L219.594 1249.52ZM352.068 1284.76C387.375 1320.07 398.985 1370.47 387.305 1417.23L389.245 1417.72C401.081 1370.33 389.328 1319.19 353.482 1283.35L352.068 1284.76ZM218.498 1246.97C171.735 1258.65 121.332 1247.04 86.0244 1211.73L84.6102 1213.15C120.456 1248.99 171.597 1260.75 218.983 1248.91L218.498 1246.97ZM86.0244 1211.73C50.7166 1176.43 39.1066 1126.02 50.7872 1079.26L48.8469 1078.78C37.0108 1126.16 48.7641 1177.3 84.6102 1213.15L86.0244 1211.73ZM50.0594 1079.99C96.8222 1068.31 147.225 1079.92 182.533 1115.23L183.947 1113.81C148.101 1077.96 96.9598 1066.21 49.5747 1078.05L50.0594 1079.99ZM182.533 1115.23C217.841 1150.53 229.451 1200.94 217.77 1247.7L219.71 1248.18C231.546 1200.8 219.793 1149.66 183.947 1113.81L182.533 1115.23ZM457.514 1247.73C432.707 1289.06 388.858 1316.49 338.925 1316.49L338.925 1318.49C389.619 1318.49 434.092 1290.64 459.229 1248.76L457.514 1247.73ZM338.925 1316.49C288.992 1316.49 245.143 1289.06 220.336 1247.73L218.621 1248.76C243.758 1290.64 288.231 1318.49 338.925 1318.49L338.925 1316.49ZM220.336 1248.76C245.143 1207.43 288.992 1180 338.925 1180V1178C288.231 1178 243.758 1205.86 218.621 1247.73L220.336 1248.76ZM338.925 1180C388.858 1180 432.707 1207.43 457.514 1248.76L459.229 1247.73C434.092 1205.86 389.619 1178 338.925 1178L338.925 1180ZM217.755 1247.73C192.949 1289.06 149.099 1316.49 99.166 1316.49L99.166 1318.49C149.86 1318.49 194.333 1290.64 219.47 1248.76L217.755 1247.73ZM99.166 1316.49C49.2333 1316.49 5.3837 1289.06 -19.4231 1247.73L-21.1379 1248.76C3.99906 1290.64 48.4721 1318.49 99.166 1318.49L99.166 1316.49ZM-19.4231 1248.76C5.38368 1207.43 49.2334 1180 99.1662 1180L99.1662 1178C48.4721 1178 3.99903 1205.86 -21.1379 1247.73L-19.4231 1248.76ZM99.1662 1180C149.099 1180 192.949 1207.43 217.755 1248.76L219.47 1247.73C194.333 1205.86 149.86 1178 99.1662 1178L99.1662 1180ZM219.561 1486.72C178.235 1461.91 150.804 1418.06 150.804 1368.13L148.804 1368.13C148.804 1418.82 176.656 1463.29 218.531 1488.43L219.561 1486.72ZM150.804 1368.13C150.804 1318.19 178.235 1274.34 219.561 1249.54L218.531 1247.82C176.656 1272.96 148.804 1317.43 148.804 1368.13L150.804 1368.13ZM218.531 1249.54C259.857 1274.34 287.288 1318.19 287.288 1368.13L289.288 1368.13C289.288 1317.43 261.436 1272.96 219.561 1247.82L218.531 1249.54ZM287.288 1368.13C287.288 1418.06 259.857 1461.91 218.531 1486.72L219.561 1488.43C261.436 1463.29 289.288 1418.82 289.288 1368.13L287.288 1368.13ZM219.561 1246.96C178.235 1222.15 150.804 1178.3 150.804 1128.37L148.804 1128.37C148.804 1179.06 176.656 1223.53 218.531 1248.67L219.561 1246.96ZM150.804 1128.37C150.804 1078.43 178.235 1034.59 219.561 1009.78L218.531 1008.06C176.656 1033.2 148.804 1077.67 148.804 1128.37L150.804 1128.37ZM218.531 1009.78C259.857 1034.59 287.288 1078.43 287.288 1128.37L289.288 1128.37C289.288 1077.67 261.436 1033.2 219.561 1008.06L218.531 1009.78ZM287.288 1128.37C287.288 1178.3 259.857 1222.15 218.531 1246.96L219.561 1248.67C261.436 1223.53 289.288 1179.06 289.288 1128.37L287.288 1128.37ZM280.095 1307.57C246.378 1341.29 191.713 1341.29 157.997 1307.57L156.583 1308.99C191.08 1343.48 247.012 1343.48 281.509 1308.99L280.095 1307.57ZM157.997 1307.57C124.28 1273.85 124.28 1219.19 157.997 1185.47L156.583 1184.06C122.085 1218.56 122.085 1274.49 156.583 1308.99L157.997 1307.57ZM157.997 1185.47C191.713 1151.76 246.378 1151.76 280.095 1185.47L281.509 1184.06C247.012 1149.56 191.08 1149.56 156.583 1184.06L157.997 1185.47ZM280.095 1185.47C313.811 1219.19 313.811 1273.85 280.095 1307.57L281.509 1308.99C316.007 1274.49 316.007 1218.56 281.509 1184.06L280.095 1185.47ZM227.553 1329.55C212.236 1326.35 197.711 1318.85 185.893 1307.03L184.479 1308.44C196.582 1320.55 211.459 1328.23 227.144 1331.51L227.553 1329.55ZM185.893 1307.03C153.038 1274.17 153.539 1220.36 187.071 1186.83L185.657 1185.41C151.37 1219.7 150.817 1274.78 184.479 1308.44L185.893 1307.03ZM187.071 1186.83C201.031 1172.87 218.507 1164.63 236.524 1162.14L236.251 1160.16C217.814 1162.71 199.933 1171.14 185.657 1185.41L187.071 1186.83ZM157.639 1185.83C179.109 1164.36 208.902 1156.43 236.183 1162.13L236.592 1160.17C208.668 1154.34 178.184 1162.46 156.225 1184.42L157.639 1185.83ZM156.461 1306.03C123.606 1273.18 124.107 1219.36 157.639 1185.83L156.225 1184.42C121.938 1218.7 121.385 1273.79 155.047 1307.45L156.461 1306.03ZM227.212 1329.54C201.952 1333.02 175.639 1325.21 156.461 1306.03L155.047 1307.45C174.692 1327.09 201.641 1335.09 227.485 1331.52L227.212 1329.54Z" fill="white" mask="url(#path-29-inside-2)"/>
</g>
<g filter="url(#filter26_d)">
<mask id="path-31-inside-3" fill="white">
<path d="M859.593 1653.59C869.311 1692.5 859.657 1734.46 830.253 1763.86C800.849 1793.27 758.887 1802.92 719.982 1793.2C710.264 1754.3 719.918 1712.34 749.322 1682.93C778.726 1653.53 820.688 1643.87 859.593 1653.59Z"/>
<path d="M719.476 1793.71C729.194 1832.62 719.539 1874.58 690.136 1903.98C660.732 1933.39 618.77 1943.04 579.864 1933.32C570.146 1894.42 579.801 1852.45 609.205 1823.05C638.608 1793.65 680.57 1783.99 719.476 1793.71Z"/>
<path d="M859.594 1933.32C820.688 1943.04 778.726 1933.39 749.323 1903.98C719.919 1874.58 710.264 1832.62 719.982 1793.71C758.888 1783.99 800.85 1793.65 830.254 1823.05C859.657 1852.45 869.312 1894.42 859.594 1933.32Z"/>
<path d="M719.477 1793.2C680.571 1802.92 638.609 1793.27 609.205 1763.86C579.802 1734.46 570.147 1692.5 579.865 1653.59C618.771 1643.88 660.733 1653.53 690.137 1682.93C719.54 1712.34 729.195 1754.3 719.477 1793.2Z"/>
<path d="M917.528 1793.46C896.889 1827.84 860.39 1850.68 818.807 1850.68C777.224 1850.68 740.726 1827.84 720.087 1793.46C740.726 1759.07 777.224 1736.23 818.807 1736.23C860.39 1736.23 896.889 1759.07 917.528 1793.46Z"/>
<path d="M719.372 1793.46C698.733 1827.84 662.234 1850.68 620.651 1850.68C579.068 1850.68 542.57 1827.84 521.931 1793.46C542.57 1759.07 579.068 1736.23 620.651 1736.23C662.234 1736.23 698.733 1759.07 719.372 1793.46Z"/>
<path d="M719.73 1991.26C685.347 1970.62 662.503 1934.12 662.503 1892.54C662.503 1850.95 685.347 1814.45 719.729 1793.82C754.112 1814.45 776.956 1850.95 776.956 1892.54C776.956 1934.12 754.112 1970.62 719.73 1991.26Z"/>
<path d="M719.73 1793.1C685.347 1772.46 662.503 1735.96 662.503 1694.38C662.503 1652.8 685.347 1616.3 719.729 1595.66C754.112 1616.3 776.956 1652.8 776.956 1694.38C776.956 1735.96 754.112 1772.46 719.73 1793.1Z"/>
<path d="M770.77 1843.07C742.581 1871.26 696.878 1871.26 668.689 1843.07C640.5 1814.88 640.5 1769.18 668.689 1740.99C696.878 1712.8 742.581 1712.8 770.77 1740.99C798.958 1769.18 798.958 1814.88 770.77 1843.07Z"/>
<path d="M726.591 1861.46C713.78 1858.78 701.63 1852.51 691.745 1842.63C664.257 1815.14 664.693 1770.14 692.719 1742.11C704.387 1730.44 718.998 1723.56 734.062 1721.48C711.249 1716.71 686.34 1723.34 668.394 1741.29C640.368 1769.31 639.932 1814.32 667.42 1841.8C683.463 1857.85 705.473 1864.38 726.591 1861.46Z"/>
</mask>
<path d="M859.593 1653.59C869.311 1692.5 859.657 1734.46 830.253 1763.86C800.849 1793.27 758.887 1802.92 719.982 1793.2C710.264 1754.3 719.918 1712.34 749.322 1682.93C778.726 1653.53 820.688 1643.87 859.593 1653.59Z" fill="#FF0000" fill-opacity="0.9"/>
<path d="M719.476 1793.71C729.194 1832.62 719.539 1874.58 690.136 1903.98C660.732 1933.39 618.77 1943.04 579.864 1933.32C570.146 1894.42 579.801 1852.45 609.205 1823.05C638.608 1793.65 680.57 1783.99 719.476 1793.71Z" fill="#FF0000" fill-opacity="0.9"/>
<path d="M859.594 1933.32C820.688 1943.04 778.726 1933.39 749.323 1903.98C719.919 1874.58 710.264 1832.62 719.982 1793.71C758.888 1783.99 800.85 1793.65 830.254 1823.05C859.657 1852.45 869.312 1894.42 859.594 1933.32Z" fill="#FF0000" fill-opacity="0.9"/>
<path d="M719.477 1793.2C680.571 1802.92 638.609 1793.27 609.205 1763.86C579.802 1734.46 570.147 1692.5 579.865 1653.59C618.771 1643.88 660.733 1653.53 690.137 1682.93C719.54 1712.34 729.195 1754.3 719.477 1793.2Z" fill="#FF0000" fill-opacity="0.9"/>
<path d="M917.528 1793.46C896.889 1827.84 860.39 1850.68 818.807 1850.68C777.224 1850.68 740.726 1827.84 720.087 1793.46C740.726 1759.07 777.224 1736.23 818.807 1736.23C860.39 1736.23 896.889 1759.07 917.528 1793.46Z" fill="#FF0000" fill-opacity="0.9"/>
<path d="M719.372 1793.46C698.733 1827.84 662.234 1850.68 620.651 1850.68C579.068 1850.68 542.57 1827.84 521.931 1793.46C542.57 1759.07 579.068 1736.23 620.651 1736.23C662.234 1736.23 698.733 1759.07 719.372 1793.46Z" fill="#FF0000" fill-opacity="0.9"/>
<path d="M719.73 1991.26C685.347 1970.62 662.503 1934.12 662.503 1892.54C662.503 1850.95 685.347 1814.45 719.729 1793.82C754.112 1814.45 776.956 1850.95 776.956 1892.54C776.956 1934.12 754.112 1970.62 719.73 1991.26Z" fill="#FF0000" fill-opacity="0.9"/>
<path d="M719.73 1793.1C685.347 1772.46 662.503 1735.96 662.503 1694.38C662.503 1652.8 685.347 1616.3 719.729 1595.66C754.112 1616.3 776.956 1652.8 776.956 1694.38C776.956 1735.96 754.112 1772.46 719.73 1793.1Z" fill="#FF0000" fill-opacity="0.9"/>
<path d="M770.77 1843.07C742.581 1871.26 696.878 1871.26 668.689 1843.07C640.5 1814.88 640.5 1769.18 668.689 1740.99C696.878 1712.8 742.581 1712.8 770.77 1740.99C798.958 1769.18 798.958 1814.88 770.77 1843.07Z" fill="#FF0000" fill-opacity="0.9"/>
<path d="M726.591 1861.46C713.78 1858.78 701.63 1852.51 691.745 1842.63C664.257 1815.14 664.693 1770.14 692.719 1742.11C704.387 1730.44 718.998 1723.56 734.062 1721.48C711.249 1716.71 686.34 1723.34 668.394 1741.29C640.368 1769.31 639.932 1814.32 667.42 1841.8C683.463 1857.85 705.473 1864.38 726.591 1861.46Z" fill="#FF0000" fill-opacity="0.9"/>
<path d="M653.749 1828.14C653.948 1827.95 653.953 1827.64 653.761 1827.44C653.569 1827.24 653.252 1827.23 653.054 1827.43L653.749 1828.14ZM614.364 1866.29L614.72 1866.64L614.364 1866.29ZM576.449 1905.59C576.262 1905.8 576.275 1906.11 576.478 1906.3C576.681 1906.49 576.997 1906.48 577.184 1906.27L576.449 1905.59ZM653.402 1827.79C653.054 1827.43 653.054 1827.43 653.054 1827.43C653.054 1827.43 653.053 1827.43 653.053 1827.43C653.052 1827.43 653.051 1827.43 653.05 1827.43C653.047 1827.43 653.042 1827.44 653.036 1827.44C653.024 1827.45 653.007 1827.47 652.984 1827.49C652.937 1827.54 652.868 1827.61 652.777 1827.69C652.595 1827.87 652.326 1828.13 651.979 1828.47C651.285 1829.14 650.277 1830.12 649.021 1831.34C646.509 1833.78 643.008 1837.19 639.046 1841.07C631.124 1848.82 621.362 1858.45 614.007 1865.94L614.72 1866.64C622.068 1859.16 631.824 1849.54 639.746 1841.78C643.706 1837.91 647.207 1834.5 649.718 1832.06C650.973 1830.84 651.981 1829.86 652.675 1829.19C653.022 1828.85 653.291 1828.59 653.473 1828.41C653.563 1828.32 653.633 1828.26 653.679 1828.21C653.702 1828.19 653.72 1828.17 653.732 1828.16C653.737 1828.16 653.742 1828.15 653.745 1828.15C653.746 1828.15 653.747 1828.15 653.748 1828.15C653.749 1828.15 653.749 1828.15 653.749 1828.14C653.749 1828.14 653.749 1828.14 653.402 1827.79ZM614.007 1865.94C606.101 1873.99 596.711 1883.9 589.299 1891.8C585.593 1895.75 582.38 1899.2 580.095 1901.66C578.952 1902.89 578.041 1903.87 577.415 1904.55C577.102 1904.89 576.861 1905.15 576.698 1905.33C576.616 1905.41 576.554 1905.48 576.512 1905.53C576.492 1905.55 576.476 1905.57 576.465 1905.58C576.46 1905.58 576.456 1905.59 576.453 1905.59C576.452 1905.59 576.451 1905.59 576.45 1905.59C576.45 1905.59 576.45 1905.59 576.45 1905.59C576.449 1905.59 576.449 1905.59 576.817 1905.93C577.184 1906.27 577.184 1906.27 577.184 1906.27C577.185 1906.27 577.185 1906.27 577.185 1906.27C577.186 1906.27 577.187 1906.27 577.188 1906.27C577.191 1906.27 577.195 1906.26 577.2 1906.26C577.21 1906.24 577.226 1906.23 577.247 1906.2C577.289 1906.16 577.35 1906.09 577.432 1906C577.595 1905.83 577.836 1905.57 578.149 1905.23C578.774 1904.55 579.685 1903.57 580.827 1902.34C583.112 1899.88 586.323 1896.44 590.028 1892.49C597.439 1884.59 606.822 1874.68 614.72 1866.64L614.007 1865.94ZM859.593 1653.59L860.564 1653.35L860.418 1652.77L859.836 1652.62L859.593 1653.59ZM719.982 1793.2L719.012 1793.45L719.157 1794.03L719.739 1794.17L719.982 1793.2ZM749.322 1682.93L750.029 1683.64L749.322 1682.93ZM719.476 1793.71L720.446 1793.47L720.301 1792.89L719.718 1792.74L719.476 1793.71ZM579.864 1933.32L578.894 1933.56L579.04 1934.15L579.622 1934.29L579.864 1933.32ZM609.205 1823.05L609.912 1823.76L609.205 1823.05ZM859.594 1933.32L859.836 1934.29L860.419 1934.15L860.564 1933.56L859.594 1933.32ZM749.323 1903.98L748.615 1904.69L749.323 1903.98ZM719.982 1793.71L719.74 1792.74L719.158 1792.89L719.012 1793.47L719.982 1793.71ZM830.254 1823.05L829.547 1823.76L830.254 1823.05ZM719.477 1793.2L719.719 1794.18L720.302 1794.03L720.447 1793.45L719.477 1793.2ZM609.205 1763.86L608.498 1764.57L609.205 1763.86ZM579.865 1653.59L579.623 1652.62L579.04 1652.77L578.895 1653.35L579.865 1653.59ZM690.137 1682.93L689.429 1683.64L690.137 1682.93ZM917.528 1793.46L918.385 1793.97L918.694 1793.46L918.385 1792.94L917.528 1793.46ZM818.807 1850.68L818.807 1851.68L818.807 1850.68ZM720.087 1793.46L719.229 1792.94L718.921 1793.46L719.229 1793.97L720.087 1793.46ZM818.807 1736.23L818.807 1735.23H818.807L818.807 1736.23ZM719.372 1793.46L720.229 1793.97L720.538 1793.46L720.229 1792.94L719.372 1793.46ZM620.651 1850.68L620.651 1851.68L620.651 1850.68ZM521.931 1793.46L521.073 1792.94L520.764 1793.46L521.073 1793.97L521.931 1793.46ZM620.651 1736.23L620.651 1735.23H620.651V1736.23ZM719.73 1991.26L719.215 1992.11L719.73 1992.42L720.244 1992.11L719.73 1991.26ZM662.503 1892.54L661.503 1892.54V1892.54L662.503 1892.54ZM719.729 1793.82L720.244 1792.96L719.729 1792.65L719.215 1792.96L719.729 1793.82ZM776.956 1892.54L777.956 1892.54L776.956 1892.54ZM719.73 1793.1L719.215 1793.96L719.73 1794.27L720.244 1793.96L719.73 1793.1ZM662.503 1694.38L661.503 1694.38V1694.38L662.503 1694.38ZM719.729 1595.66L720.244 1594.8L719.729 1594.49L719.215 1594.8L719.729 1595.66ZM776.956 1694.38L777.956 1694.38L776.956 1694.38ZM726.591 1861.46L726.728 1862.45L726.796 1860.48L726.591 1861.46ZM734.062 1721.48L734.199 1722.47L734.267 1720.5L734.062 1721.48ZM858.623 1653.84C868.264 1692.43 858.681 1734.02 829.546 1763.16L830.96 1764.57C860.633 1734.9 870.359 1692.57 860.564 1653.35L858.623 1653.84ZM829.546 1763.16C800.411 1792.29 758.819 1801.87 720.224 1792.23L719.739 1794.17C758.956 1803.97 801.287 1794.24 830.96 1764.57L829.546 1763.16ZM720.952 1792.96C711.312 1754.37 720.895 1712.77 750.029 1683.64L748.615 1682.23C718.942 1711.9 709.216 1754.23 719.012 1793.45L720.952 1792.96ZM750.029 1683.64C779.164 1654.51 820.756 1644.92 859.351 1654.56L859.836 1652.62C820.619 1642.83 778.288 1652.55 748.615 1682.23L750.029 1683.64ZM718.506 1793.95C728.146 1832.55 718.563 1874.14 689.429 1903.27L690.843 1904.69C720.516 1875.02 730.242 1832.68 720.446 1793.47L718.506 1793.95ZM689.429 1903.27C660.294 1932.41 618.701 1941.99 580.107 1932.35L579.622 1934.29C618.839 1944.09 661.17 1934.36 690.843 1904.69L689.429 1903.27ZM580.835 1933.08C571.194 1894.49 580.777 1852.89 609.912 1823.76L608.497 1822.34C578.825 1852.02 569.098 1894.35 578.894 1933.56L580.835 1933.08ZM609.912 1823.76C639.046 1794.62 680.639 1785.04 719.234 1794.68L719.718 1792.74C680.501 1782.94 638.17 1792.67 608.497 1822.34L609.912 1823.76ZM859.352 1932.35C820.757 1941.99 779.164 1932.41 750.03 1903.27L748.615 1904.69C778.288 1934.36 820.619 1944.09 859.836 1934.29L859.352 1932.35ZM750.03 1903.27C720.895 1874.14 711.312 1832.55 720.953 1793.95L719.012 1793.47C709.216 1832.69 718.943 1875.02 748.615 1904.69L750.03 1903.27ZM720.225 1794.68C758.819 1785.04 800.412 1794.62 829.547 1823.76L830.961 1822.34C801.288 1792.67 758.957 1782.94 719.74 1792.74L720.225 1794.68ZM829.547 1823.76C858.681 1852.89 868.264 1894.49 858.624 1933.08L860.564 1933.56C870.36 1894.35 860.634 1852.02 830.961 1822.34L829.547 1823.76ZM719.235 1792.23C680.64 1801.88 639.047 1792.29 609.912 1763.16L608.498 1764.57C638.171 1794.24 680.502 1803.97 719.719 1794.18L719.235 1792.23ZM609.912 1763.16C580.778 1734.02 571.195 1692.43 580.835 1653.84L578.895 1653.35C569.099 1692.57 578.825 1734.9 608.498 1764.57L609.912 1763.16ZM580.107 1654.56C618.702 1644.92 660.295 1654.51 689.429 1683.64L690.844 1682.23C661.171 1652.55 618.84 1642.83 579.623 1652.62L580.107 1654.56ZM689.429 1683.64C718.564 1712.78 728.147 1754.37 718.507 1792.96L720.447 1793.45C730.243 1754.23 720.516 1711.9 690.844 1682.23L689.429 1683.64ZM916.67 1792.94C896.196 1827.05 860.01 1849.68 818.807 1849.68L818.807 1851.68C860.771 1851.68 897.581 1828.63 918.385 1793.97L916.67 1792.94ZM818.807 1849.68C777.605 1849.68 741.418 1827.05 720.944 1792.94L719.229 1793.97C740.033 1828.63 776.844 1851.68 818.807 1851.68L818.807 1849.68ZM720.944 1793.97C741.418 1759.86 777.605 1737.23 818.807 1737.23L818.807 1735.23C776.844 1735.23 740.033 1758.29 719.229 1792.94L720.944 1793.97ZM818.807 1737.23C860.01 1737.23 896.196 1759.86 916.67 1793.97L918.385 1792.94C897.581 1758.29 860.771 1735.23 818.807 1735.23L818.807 1737.23ZM718.514 1792.94C698.04 1827.05 661.854 1849.68 620.651 1849.68L620.651 1851.68C662.615 1851.68 699.425 1828.63 720.229 1793.97L718.514 1792.94ZM620.651 1849.68C579.449 1849.68 543.262 1827.05 522.788 1792.94L521.073 1793.97C541.877 1828.63 578.687 1851.68 620.651 1851.68L620.651 1849.68ZM522.788 1793.97C543.262 1759.86 579.449 1737.23 620.651 1737.23V1735.23C578.687 1735.23 541.877 1758.29 521.073 1792.94L522.788 1793.97ZM620.651 1737.23C661.854 1737.23 698.04 1759.86 718.514 1793.97L720.229 1792.94C699.425 1758.29 662.615 1735.23 620.651 1735.23L620.651 1737.23ZM720.244 1990.4C686.137 1969.92 663.503 1933.74 663.503 1892.54L661.503 1892.54C661.503 1934.5 684.558 1971.31 719.215 1992.11L720.244 1990.4ZM663.503 1892.54C663.503 1851.33 686.137 1815.15 720.244 1794.67L719.215 1792.96C684.558 1813.76 661.503 1850.57 661.503 1892.54L663.503 1892.54ZM719.215 1794.67C753.322 1815.15 775.956 1851.33 775.956 1892.54L777.956 1892.54C777.956 1850.57 754.901 1813.76 720.244 1792.96L719.215 1794.67ZM775.956 1892.54C775.956 1933.74 753.322 1969.92 719.215 1990.4L720.244 1992.11C754.901 1971.31 777.956 1934.5 777.956 1892.54L775.956 1892.54ZM720.244 1792.24C686.137 1771.77 663.503 1735.58 663.503 1694.38L661.503 1694.38C661.503 1736.34 684.558 1773.15 719.215 1793.96L720.244 1792.24ZM663.503 1694.38C663.503 1653.18 686.137 1616.99 720.244 1596.52L719.215 1594.8C684.558 1615.61 661.503 1652.42 661.503 1694.38L663.503 1694.38ZM719.215 1596.52C753.322 1616.99 775.956 1653.18 775.956 1694.38L777.956 1694.38C777.956 1652.42 754.901 1615.61 720.244 1594.8L719.215 1596.52ZM775.956 1694.38C775.956 1735.58 753.322 1771.77 719.215 1792.24L720.244 1793.96C754.901 1773.15 777.956 1736.34 777.956 1694.38L775.956 1694.38ZM770.063 1842.37C742.264 1870.16 697.195 1870.16 669.396 1842.37L667.982 1843.78C696.561 1872.36 742.898 1872.36 771.477 1843.78L770.063 1842.37ZM669.396 1842.37C641.598 1814.57 641.598 1769.5 669.396 1741.7L667.982 1740.29C639.403 1768.86 639.403 1815.2 667.982 1843.78L669.396 1842.37ZM669.396 1741.7C697.195 1713.9 742.264 1713.9 770.063 1741.7L771.477 1740.29C742.898 1711.71 696.561 1711.71 667.982 1740.29L669.396 1741.7ZM770.063 1741.7C797.861 1769.5 797.861 1814.57 770.063 1842.37L771.477 1843.78C800.056 1815.2 800.056 1768.86 771.477 1740.29L770.063 1741.7ZM726.796 1860.48C714.168 1857.84 702.195 1851.66 692.452 1841.92L691.038 1843.33C701.065 1853.36 713.392 1859.72 726.387 1862.44L726.796 1860.48ZM692.452 1841.92C665.368 1814.83 665.778 1770.47 693.426 1742.82L692.012 1741.4C663.609 1769.81 663.147 1815.44 691.038 1843.33L692.452 1841.92ZM693.426 1742.82C704.936 1731.31 719.344 1724.52 734.199 1722.47L733.925 1720.49C718.651 1722.59 703.838 1729.58 692.012 1741.4L693.426 1742.82ZM669.101 1742C686.803 1724.29 711.366 1717.75 733.857 1722.46L734.267 1720.5C711.132 1715.66 685.878 1722.39 667.687 1740.58L669.101 1742ZM668.127 1841.1C641.043 1814.01 641.453 1769.64 669.101 1742L667.687 1740.58C639.284 1768.98 638.822 1814.62 666.713 1842.51L668.127 1841.1ZM726.455 1860.47C705.628 1863.35 683.936 1856.91 668.127 1841.1L666.713 1842.51C682.99 1858.79 705.318 1865.41 726.728 1862.45L726.455 1860.47Z" fill="white" mask="url(#path-31-inside-3)"/>
</g>
<g filter="url(#filter27_bd)">
<mask id="path-33-inside-4" fill="white">
<path d="M889.686 1624.23C901.445 1671.3 889.763 1722.07 854.186 1757.65C818.609 1793.23 767.837 1804.91 720.763 1793.15C709.005 1746.08 720.687 1695.31 756.263 1659.73C791.84 1624.15 842.612 1612.47 889.686 1624.23Z"/>
<path d="M720.151 1793.76C731.91 1840.84 720.228 1891.61 684.651 1927.19C649.074 1962.76 598.302 1974.44 551.228 1962.69C539.47 1915.61 551.151 1864.84 586.728 1829.26C622.305 1793.69 673.077 1782 720.151 1793.76Z"/>
<path d="M889.687 1962.69C842.613 1974.44 791.841 1962.76 756.264 1927.19C720.687 1891.61 709.006 1840.84 720.764 1793.76C767.838 1782.01 818.61 1793.69 854.187 1829.26C889.764 1864.84 901.445 1915.61 889.687 1962.69Z"/>
<path d="M720.152 1793.15C673.078 1804.91 622.306 1793.23 586.729 1757.65C551.152 1722.07 539.471 1671.3 551.229 1624.23C598.303 1612.47 649.075 1624.15 684.652 1659.73C720.229 1695.31 731.911 1746.08 720.152 1793.15Z"/>
<path d="M959.784 1793.46C934.812 1835.06 890.65 1862.7 840.337 1862.7C790.024 1862.7 745.862 1835.06 720.89 1793.46C745.862 1751.86 790.024 1724.22 840.337 1724.22C890.65 1724.22 934.812 1751.86 959.784 1793.46Z"/>
<path d="M720.025 1793.46C695.053 1835.06 650.892 1862.7 600.578 1862.7C550.265 1862.7 506.103 1835.06 481.132 1793.46C506.103 1751.86 550.265 1724.22 600.578 1724.22C650.892 1724.22 695.053 1751.86 720.025 1793.46Z"/>
<path d="M720.458 2032.78C678.857 2007.81 651.216 1963.65 651.216 1913.34C651.216 1863.02 678.857 1818.86 720.458 1793.89C762.059 1818.86 789.7 1863.02 789.7 1913.34C789.7 1963.65 762.059 2007.81 720.458 2032.78Z"/>
<path d="M720.458 1793.03C678.857 1768.05 651.216 1723.89 651.216 1673.58C651.216 1623.27 678.857 1579.1 720.458 1554.13C762.059 1579.1 789.7 1623.27 789.7 1673.58C789.7 1723.89 762.059 1768.05 720.458 1793.03Z"/>
<path d="M782.214 1853.49C748.107 1887.6 692.809 1887.6 658.702 1853.49C624.595 1819.38 624.595 1764.08 658.702 1729.98C692.809 1695.87 748.107 1695.87 782.214 1729.98C816.321 1764.08 816.321 1819.38 782.214 1853.49Z"/>
<path d="M728.761 1875.74C713.26 1872.5 698.558 1864.91 686.598 1852.95C653.339 1819.69 653.867 1765.24 687.776 1731.33C701.894 1717.21 719.572 1708.88 737.8 1706.36C710.197 1700.59 680.059 1708.62 658.344 1730.33C624.435 1764.24 623.907 1818.69 657.166 1851.95C676.578 1871.36 703.208 1879.27 728.761 1875.74Z"/>
</mask>
<path d="M889.686 1624.23C901.445 1671.3 889.763 1722.07 854.186 1757.65C818.609 1793.23 767.837 1804.91 720.763 1793.15C709.005 1746.08 720.687 1695.31 756.263 1659.73C791.84 1624.15 842.612 1612.47 889.686 1624.23Z" fill="white" fill-opacity="0.46"/>
<path d="M720.151 1793.76C731.91 1840.84 720.228 1891.61 684.651 1927.19C649.074 1962.76 598.302 1974.44 551.228 1962.69C539.47 1915.61 551.151 1864.84 586.728 1829.26C622.305 1793.69 673.077 1782 720.151 1793.76Z" fill="white" fill-opacity="0.46"/>
<path d="M889.687 1962.69C842.613 1974.44 791.841 1962.76 756.264 1927.19C720.687 1891.61 709.006 1840.84 720.764 1793.76C767.838 1782.01 818.61 1793.69 854.187 1829.26C889.764 1864.84 901.445 1915.61 889.687 1962.69Z" fill="white" fill-opacity="0.46"/>
<path d="M720.152 1793.15C673.078 1804.91 622.306 1793.23 586.729 1757.65C551.152 1722.07 539.471 1671.3 551.229 1624.23C598.303 1612.47 649.075 1624.15 684.652 1659.73C720.229 1695.31 731.911 1746.08 720.152 1793.15Z" fill="white" fill-opacity="0.46"/>
<path d="M959.784 1793.46C934.812 1835.06 890.65 1862.7 840.337 1862.7C790.024 1862.7 745.862 1835.06 720.89 1793.46C745.862 1751.86 790.024 1724.22 840.337 1724.22C890.65 1724.22 934.812 1751.86 959.784 1793.46Z" fill="white" fill-opacity="0.46"/>
<path d="M720.025 1793.46C695.053 1835.06 650.892 1862.7 600.578 1862.7C550.265 1862.7 506.103 1835.06 481.132 1793.46C506.103 1751.86 550.265 1724.22 600.578 1724.22C650.892 1724.22 695.053 1751.86 720.025 1793.46Z" fill="white" fill-opacity="0.46"/>
<path d="M720.458 2032.78C678.857 2007.81 651.216 1963.65 651.216 1913.34C651.216 1863.02 678.857 1818.86 720.458 1793.89C762.059 1818.86 789.7 1863.02 789.7 1913.34C789.7 1963.65 762.059 2007.81 720.458 2032.78Z" fill="white" fill-opacity="0.46"/>
<path d="M720.458 1793.03C678.857 1768.05 651.216 1723.89 651.216 1673.58C651.216 1623.27 678.857 1579.1 720.458 1554.13C762.059 1579.1 789.7 1623.27 789.7 1673.58C789.7 1723.89 762.059 1768.05 720.458 1793.03Z" fill="white" fill-opacity="0.46"/>
<path d="M782.214 1853.49C748.107 1887.6 692.809 1887.6 658.702 1853.49C624.595 1819.38 624.595 1764.08 658.702 1729.98C692.809 1695.87 748.107 1695.87 782.214 1729.98C816.321 1764.08 816.321 1819.38 782.214 1853.49Z" fill="white" fill-opacity="0.46"/>
<path d="M728.761 1875.74C713.26 1872.5 698.558 1864.91 686.598 1852.95C653.339 1819.69 653.867 1765.24 687.776 1731.33C701.894 1717.21 719.572 1708.88 737.8 1706.36C710.197 1700.59 680.059 1708.62 658.344 1730.33C624.435 1764.24 623.907 1818.69 657.166 1851.95C676.578 1871.36 703.208 1879.27 728.761 1875.74Z" fill="white" fill-opacity="0.46"/>
<path d="M640.552 1835.35C640.751 1835.16 640.756 1834.84 640.564 1834.64C640.372 1834.45 640.055 1834.44 639.857 1834.63L640.552 1835.35ZM592.971 1881.58L593.327 1881.93L592.971 1881.58ZM547.173 1929.21C546.986 1929.41 546.999 1929.73 547.202 1929.91C547.405 1930.1 547.721 1930.09 547.908 1929.89L547.173 1929.21ZM640.205 1834.99C639.857 1834.63 639.857 1834.63 639.857 1834.63C639.856 1834.63 639.856 1834.63 639.856 1834.63C639.855 1834.64 639.853 1834.64 639.852 1834.64C639.848 1834.64 639.843 1834.65 639.836 1834.65C639.821 1834.67 639.8 1834.69 639.772 1834.72C639.716 1834.77 639.632 1834.85 639.522 1834.96C639.302 1835.17 638.977 1835.49 638.557 1835.89C637.717 1836.71 636.497 1837.89 634.977 1839.37C631.939 1842.32 627.702 1846.45 622.909 1851.14C613.323 1860.52 601.512 1872.17 592.614 1881.23L593.327 1881.93C602.218 1872.88 614.024 1861.24 623.608 1851.85C628.4 1847.16 632.636 1843.04 635.674 1840.08C637.193 1838.61 638.413 1837.42 639.253 1836.61C639.673 1836.2 639.997 1835.89 640.217 1835.68C640.327 1835.57 640.411 1835.49 640.467 1835.43C640.495 1835.41 640.517 1835.39 640.531 1835.37C640.538 1835.37 640.543 1835.36 640.547 1835.36C640.549 1835.36 640.55 1835.35 640.551 1835.35C640.551 1835.35 640.552 1835.35 640.552 1835.35C640.552 1835.35 640.552 1835.35 640.205 1834.99ZM592.614 1881.23C583.049 1890.97 571.688 1902.96 562.72 1912.52C558.236 1917.3 554.349 1921.47 551.584 1924.45C550.201 1925.94 549.099 1927.13 548.342 1927.94C547.963 1928.35 547.671 1928.67 547.474 1928.88C547.375 1928.99 547.3 1929.07 547.25 1929.13C547.224 1929.15 547.205 1929.17 547.193 1929.19C547.186 1929.19 547.181 1929.2 547.178 1929.2C547.177 1929.2 547.175 1929.21 547.175 1929.21C547.174 1929.21 547.174 1929.21 547.174 1929.21C547.174 1929.21 547.173 1929.21 547.541 1929.55C547.908 1929.89 547.908 1929.89 547.909 1929.89C547.909 1929.89 547.909 1929.89 547.909 1929.88C547.91 1929.88 547.911 1929.88 547.913 1929.88C547.916 1929.88 547.921 1929.87 547.927 1929.87C547.94 1929.85 547.959 1929.83 547.984 1929.8C548.035 1929.75 548.109 1929.67 548.208 1929.56C548.405 1929.35 548.697 1929.03 549.075 1928.62C549.832 1927.81 550.934 1926.62 552.316 1925.13C555.081 1922.15 558.967 1917.98 563.449 1913.21C572.416 1903.65 583.77 1891.66 593.327 1881.93L592.614 1881.23ZM889.686 1624.23L890.656 1623.99L890.511 1623.4L889.929 1623.26L889.686 1624.23ZM854.186 1757.65L854.893 1758.36L854.186 1757.65ZM720.763 1793.15L719.793 1793.39L719.939 1793.98L720.521 1794.12L720.763 1793.15ZM756.263 1659.73L756.971 1660.44L756.263 1659.73ZM720.151 1793.76L721.121 1793.52L720.976 1792.94L720.393 1792.79L720.151 1793.76ZM684.651 1927.19L685.358 1927.89L684.651 1927.19ZM551.228 1962.69L550.258 1962.93L550.403 1963.51L550.986 1963.66L551.228 1962.69ZM586.728 1829.26L587.435 1829.97L586.728 1829.26ZM889.687 1962.69L889.929 1963.66L890.512 1963.51L890.657 1962.93L889.687 1962.69ZM756.264 1927.19L755.557 1927.89L756.264 1927.19ZM720.764 1793.76L720.522 1792.79L719.939 1792.94L719.794 1793.52L720.764 1793.76ZM854.187 1829.26L853.48 1829.97L854.187 1829.26ZM720.152 1793.15L720.395 1794.12L720.977 1793.98L721.123 1793.39L720.152 1793.15ZM586.729 1757.65L586.022 1758.36L586.729 1757.65ZM551.229 1624.23L550.987 1623.26L550.404 1623.4L550.259 1623.99L551.229 1624.23ZM684.652 1659.73L683.945 1660.44L684.652 1659.73ZM959.784 1793.46L960.641 1793.97L960.95 1793.46L960.641 1792.94L959.784 1793.46ZM840.337 1862.7L840.337 1863.7L840.337 1862.7ZM720.89 1793.46L720.033 1792.94L719.724 1793.46L720.033 1793.97L720.89 1793.46ZM840.337 1724.22L840.337 1723.22L840.337 1723.22V1724.22ZM720.025 1793.46L720.882 1793.97L721.191 1793.46L720.882 1792.94L720.025 1793.46ZM600.578 1862.7L600.578 1863.7L600.578 1862.7ZM481.132 1793.46L480.274 1792.94L479.965 1793.46L480.274 1793.97L481.132 1793.46ZM600.578 1724.22L600.578 1723.22H600.578V1724.22ZM720.458 2032.78L719.943 2033.64L720.458 2033.95L720.973 2033.64L720.458 2032.78ZM651.216 1913.34L650.216 1913.34L650.216 1913.34L651.216 1913.34ZM720.458 1793.89L720.973 1793.03L720.458 1792.72L719.943 1793.03L720.458 1793.89ZM789.7 1913.34L790.7 1913.34L789.7 1913.34ZM720.458 1793.03L719.943 1793.88L720.458 1794.19L720.973 1793.88L720.458 1793.03ZM651.216 1673.58L650.216 1673.58V1673.58L651.216 1673.58ZM720.458 1554.13L720.973 1553.27L720.458 1552.97L719.943 1553.27L720.458 1554.13ZM789.7 1673.58L790.7 1673.58L789.7 1673.58ZM728.761 1875.74L728.897 1876.73L728.965 1874.76L728.761 1875.74ZM737.8 1706.36L737.936 1707.36L738.004 1705.39L737.8 1706.36ZM888.716 1624.47C900.397 1671.23 888.787 1721.64 853.479 1756.94L854.893 1758.36C890.739 1722.51 902.493 1671.37 890.656 1623.99L888.716 1624.47ZM853.479 1756.94C818.171 1792.25 767.768 1803.86 721.006 1792.18L720.521 1794.12C767.906 1805.96 819.047 1794.2 854.893 1758.36L853.479 1756.94ZM721.733 1792.91C710.053 1746.15 721.663 1695.74 756.971 1660.44L755.556 1659.02C719.71 1694.87 707.957 1746.01 719.793 1793.39L721.733 1792.91ZM756.971 1660.44C792.278 1625.13 842.681 1613.52 889.444 1625.2L889.929 1623.26C842.543 1611.42 791.402 1623.18 755.556 1659.02L756.971 1660.44ZM719.181 1794.01C730.862 1840.77 719.252 1891.17 683.944 1926.48L685.358 1927.89C721.204 1892.05 732.957 1840.91 721.121 1793.52L719.181 1794.01ZM683.944 1926.48C648.636 1961.79 598.233 1973.4 551.471 1961.72L550.986 1963.66C598.371 1975.49 649.512 1963.74 685.358 1927.89L683.944 1926.48ZM552.198 1962.44C540.518 1915.68 552.128 1865.28 587.435 1829.97L586.021 1828.56C550.175 1864.4 538.422 1915.54 550.258 1962.93L552.198 1962.44ZM587.435 1829.97C622.743 1794.66 673.146 1783.05 719.909 1794.73L720.393 1792.79C673.008 1780.96 621.867 1792.71 586.021 1828.56L587.435 1829.97ZM889.445 1961.72C842.682 1973.4 792.279 1961.79 756.971 1926.48L755.557 1927.89C791.403 1963.74 842.544 1975.49 889.929 1963.66L889.445 1961.72ZM756.971 1926.48C721.663 1891.17 710.054 1840.77 721.734 1794.01L719.794 1793.52C707.958 1840.91 719.711 1892.05 755.557 1927.89L756.971 1926.48ZM721.006 1794.73C767.769 1783.05 818.172 1794.66 853.48 1829.97L854.894 1828.56C819.048 1792.71 767.907 1780.96 720.522 1792.79L721.006 1794.73ZM853.48 1829.97C888.787 1865.28 900.397 1915.68 888.717 1962.44L890.657 1962.93C902.493 1915.54 890.74 1864.4 854.894 1828.56L853.48 1829.97ZM719.91 1792.18C673.147 1803.86 622.744 1792.25 587.437 1756.94L586.022 1758.36C621.868 1794.2 673.01 1805.96 720.395 1794.12L719.91 1792.18ZM587.437 1756.94C552.129 1721.64 540.519 1671.23 552.199 1624.47L550.259 1623.99C538.423 1671.37 550.176 1722.51 586.022 1758.36L587.437 1756.94ZM551.471 1625.2C598.234 1613.52 648.637 1625.13 683.945 1660.44L685.359 1659.02C649.513 1623.18 598.372 1611.42 550.987 1623.26L551.471 1625.2ZM683.945 1660.44C719.253 1695.74 730.863 1746.15 719.182 1792.91L721.123 1793.39C732.959 1746.01 721.205 1694.87 685.359 1659.02L683.945 1660.44ZM958.926 1792.94C934.119 1834.27 890.27 1861.7 840.337 1861.7L840.337 1863.7C891.031 1863.7 935.504 1835.85 960.641 1793.97L958.926 1792.94ZM840.337 1861.7C790.404 1861.7 746.555 1834.27 721.748 1792.94L720.033 1793.97C745.17 1835.85 789.643 1863.7 840.337 1863.7L840.337 1861.7ZM721.748 1793.97C746.555 1752.65 790.404 1725.22 840.337 1725.22V1723.22C789.643 1723.22 745.17 1751.07 720.033 1792.94L721.748 1793.97ZM840.337 1725.22C890.27 1725.22 934.119 1752.65 958.926 1793.97L960.641 1792.94C935.504 1751.07 891.031 1723.22 840.337 1723.22L840.337 1725.22ZM719.167 1792.94C694.361 1834.27 650.511 1861.7 600.578 1861.7L600.578 1863.7C651.272 1863.7 695.745 1835.85 720.882 1793.97L719.167 1792.94ZM600.578 1861.7C550.645 1861.7 506.796 1834.27 481.989 1792.94L480.274 1793.97C505.411 1835.85 549.884 1863.7 600.578 1863.7L600.578 1861.7ZM481.989 1793.97C506.796 1752.65 550.645 1725.22 600.578 1725.22V1723.22C549.884 1723.22 505.411 1751.07 480.274 1792.94L481.989 1793.97ZM600.578 1725.22C650.511 1725.22 694.361 1752.65 719.167 1793.97L720.882 1792.94C695.745 1751.07 651.272 1723.22 600.578 1723.22L600.578 1725.22ZM720.973 2031.93C679.647 2007.12 652.216 1963.27 652.216 1913.34L650.216 1913.34C650.216 1964.03 678.068 2008.5 719.943 2033.64L720.973 2031.93ZM652.216 1913.34C652.216 1863.4 679.647 1819.55 720.973 1794.75L719.943 1793.03C678.068 1818.17 650.216 1862.64 650.216 1913.34L652.216 1913.34ZM719.943 1794.75C761.269 1819.55 788.7 1863.4 788.7 1913.34L790.7 1913.34C790.7 1862.64 762.848 1818.17 720.973 1793.03L719.943 1794.75ZM788.7 1913.34C788.7 1963.27 761.269 2007.12 719.943 2031.93L720.973 2033.64C762.848 2008.5 790.7 1964.03 790.7 1913.34L788.7 1913.34ZM720.973 1792.17C679.647 1767.36 652.216 1723.51 652.216 1673.58L650.216 1673.58C650.216 1724.27 678.068 1768.75 719.943 1793.88L720.973 1792.17ZM652.216 1673.58C652.216 1623.65 679.647 1579.8 720.973 1554.99L719.943 1553.27C678.068 1578.41 650.216 1622.88 650.216 1673.58L652.216 1673.58ZM719.943 1554.99C761.269 1579.8 788.7 1623.65 788.7 1673.58L790.7 1673.58C790.7 1622.88 762.848 1578.41 720.973 1553.27L719.943 1554.99ZM788.7 1673.58C788.7 1723.51 761.269 1767.36 719.943 1792.17L720.973 1793.88C762.848 1768.75 790.7 1724.27 790.7 1673.58L788.7 1673.58ZM781.507 1852.78C747.791 1886.5 693.125 1886.5 659.409 1852.78L657.995 1854.2C692.492 1888.69 748.424 1888.69 782.921 1854.2L781.507 1852.78ZM659.409 1852.78C625.693 1819.07 625.693 1764.4 659.409 1730.68L657.995 1729.27C623.497 1763.77 623.497 1819.7 657.995 1854.2L659.409 1852.78ZM659.409 1730.68C693.125 1696.97 747.791 1696.97 781.507 1730.68L782.921 1729.27C748.424 1694.77 692.492 1694.77 657.995 1729.27L659.409 1730.68ZM781.507 1730.68C815.223 1764.4 815.223 1819.07 781.507 1852.78L782.921 1854.2C817.419 1819.7 817.419 1763.77 782.921 1729.27L781.507 1730.68ZM728.965 1874.76C713.648 1871.56 699.123 1864.06 687.305 1852.24L685.891 1853.66C697.994 1865.76 712.872 1873.44 728.556 1876.72L728.965 1874.76ZM687.305 1852.24C654.45 1819.39 654.952 1765.57 688.483 1732.04L687.069 1730.62C652.782 1764.91 652.229 1819.99 685.891 1853.66L687.305 1852.24ZM688.483 1732.04C702.443 1718.08 719.919 1709.84 737.936 1707.36L737.663 1705.37C719.226 1707.92 701.345 1716.35 687.069 1730.62L688.483 1732.04ZM659.051 1731.04C680.521 1709.57 710.314 1701.64 737.595 1707.34L738.004 1705.39C710.08 1699.55 679.596 1707.67 657.637 1729.63L659.051 1731.04ZM657.873 1851.25C625.018 1818.39 625.52 1764.57 659.051 1731.04L657.637 1729.63C623.35 1763.91 622.797 1819 656.459 1852.66L657.873 1851.25ZM728.624 1874.75C703.364 1878.24 677.051 1870.42 657.873 1851.25L656.459 1852.66C676.104 1872.31 703.053 1880.3 728.897 1876.73L728.624 1874.75Z" fill="white" mask="url(#path-33-inside-4)"/>
</g>
<defs>
<filter id="filter0_d" x="1304.53" y="286.784" width="345.552" height="345.552" filterUnits="userSpaceOnUse" color-interpolation-filters="sRGB">
<feFlood flood-opacity="0" result="BackgroundImageFix"/>
<feColorMatrix in="SourceAlpha" type="matrix" values="0 0 0 0 0 0 0 0 0 0 0 0 0 0 0 0 0 0 127 0"/>
<feOffset dy="4"/>
<feGaussianBlur stdDeviation="2"/>
<feColorMatrix type="matrix" values="0 0 0 0 0 0 0 0 0 0 0 0 0 0 0 0 0 0 0.25 0"/>
<feBlend mode="normal" in2="BackgroundImageFix" result="effect1_dropShadow"/>
<feBlend mode="normal" in="SourceGraphic" in2="effect1_dropShadow" result="shape"/>
</filter>
<filter id="filter1_d" x="1052.46" y="35.4618" width="274.845" height="274.845" filterUnits="userSpaceOnUse" color-interpolation-filters="sRGB">
<feFlood flood-opacity="0" result="BackgroundImageFix"/>
<feColorMatrix in="SourceAlpha" type="matrix" values="0 0 0 0 0 0 0 0 0 0 0 0 0 0 0 0 0 0 127 0"/>
<feOffset dy="4"/>
<feGaussianBlur stdDeviation="2"/>
<feColorMatrix type="matrix" values="0 0 0 0 0 0 0 0 0 0 0 0 0 0 0 0 0 0 0.25 0"/>
<feBlend mode="normal" in2="BackgroundImageFix" result="effect1_dropShadow"/>
<feBlend mode="normal" in="SourceGraphic" in2="effect1_dropShadow" result="shape"/>
</filter>
<filter id="filter2_d" x="1222" y="204.997" width="274.845" height="274.845" filterUnits="userSpaceOnUse" color-interpolation-filters="sRGB">
<feFlood flood-opacity="0" result="BackgroundImageFix"/>
<feColorMatrix in="SourceAlpha" type="matrix" values="0 0 0 0 0 0 0 0 0 0 0 0 0 0 0 0 0 0 127 0"/>
<feOffset dy="4"/>
<feGaussianBlur stdDeviation="2"/>
<feColorMatrix type="matrix" values="0 0 0 0 0 0 0 0 0 0 0 0 0 0 0 0 0 0 0.25 0"/>
<feBlend mode="normal" in2="BackgroundImageFix" result="effect1_dropShadow"/>
<feBlend mode="normal" in="SourceGraphic" in2="effect1_dropShadow" result="shape"/>
</filter>
<filter id="filter3_d" x="1052.46" y="204.997" width="274.846" height="274.846" filterUnits="userSpaceOnUse" color-interpolation-filters="sRGB">
<feFlood flood-opacity="0" result="BackgroundImageFix"/>
<feColorMatrix in="SourceAlpha" type="matrix" values="0 0 0 0 0 0 0 0 0 0 0 0 0 0 0 0 0 0 127 0"/>
<feOffset dy="4"/>
<feGaussianBlur stdDeviation="2"/>
<feColorMatrix type="matrix" values="0 0 0 0 0 0 0 0 0 0 0 0 0 0 0 0 0 0 0.25 0"/>
<feBlend mode="normal" in2="BackgroundImageFix" result="effect1_dropShadow"/>
<feBlend mode="normal" in="SourceGraphic" in2="effect1_dropShadow" result="shape"/>
</filter>
<filter id="filter4_d" x="1222" y="35.462" width="274.846" height="274.846" filterUnits="userSpaceOnUse" color-interpolation-filters="sRGB">
<feFlood flood-opacity="0" result="BackgroundImageFix"/>
<feColorMatrix in="SourceAlpha" type="matrix" values="0 0 0 0 0 0 0 0 0 0 0 0 0 0 0 0 0 0 127 0"/>
<feOffset dy="4"/>
<feGaussianBlur stdDeviation="2"/>
<feColorMatrix type="matrix" values="0 0 0 0 0 0 0 0 0 0 0 0 0 0 0 0 0 0 0.25 0"/>
<feBlend mode="normal" in2="BackgroundImageFix" result="effect1_dropShadow"/>
<feBlend mode="normal" in="SourceGraphic" in2="effect1_dropShadow" result="shape"/>
</filter>
<filter id="filter5_d" x="1031.33" y="184.411" width="246.893" height="146.483" filterUnits="userSpaceOnUse" color-interpolation-filters="sRGB">
<feFlood flood-opacity="0" result="BackgroundImageFix"/>
<feColorMatrix in="SourceAlpha" type="matrix" values="0 0 0 0 0 0 0 0 0 0 0 0 0 0 0 0 0 0 127 0"/>
<feOffset dy="4"/>
<feGaussianBlur stdDeviation="2"/>
<feColorMatrix type="matrix" values="0 0 0 0 0 0 0 0 0 0 0 0 0 0 0 0 0 0 0.25 0"/>
<feBlend mode="normal" in2="BackgroundImageFix" result="effect1_dropShadow"/>
<feBlend mode="normal" in="SourceGraphic" in2="effect1_dropShadow" result="shape"/>
</filter>
<filter id="filter6_d" x="1271.09" y="184.41" width="246.893" height="146.483" filterUnits="userSpaceOnUse" color-interpolation-filters="sRGB">
<feFlood flood-opacity="0" result="BackgroundImageFix"/>
<feColorMatrix in="SourceAlpha" type="matrix" values="0 0 0 0 0 0 0 0 0 0 0 0 0 0 0 0 0 0 127 0"/>
<feOffset dy="4"/>
<feGaussianBlur stdDeviation="2"/>
<feColorMatrix type="matrix" values="0 0 0 0 0 0 0 0 0 0 0 0 0 0 0 0 0 0 0.25 0"/>
<feBlend mode="normal" in2="BackgroundImageFix" result="effect1_dropShadow"/>
<feBlend mode="normal" in="SourceGraphic" in2="effect1_dropShadow" result="shape"/>
</filter>
<filter id="filter7_d" x="1201.41" y="254.084" width="146.483" height="246.893" filterUnits="userSpaceOnUse" color-interpolation-filters="sRGB">
<feFlood flood-opacity="0" result="BackgroundImageFix"/>
<feColorMatrix in="SourceAlpha" type="matrix" values="0 0 0 0 0 0 0 0 0 0 0 0 0 0 0 0 0 0 127 0"/>
<feOffset dy="4"/>
<feGaussianBlur stdDeviation="2"/>
<feColorMatrix type="matrix" values="0 0 0 0 0 0 0 0 0 0 0 0 0 0 0 0 0 0 0.25 0"/>
<feBlend mode="normal" in2="BackgroundImageFix" result="effect1_dropShadow"/>
<feBlend mode="normal" in="SourceGraphic" in2="effect1_dropShadow" result="shape"/>
</filter>
<filter id="filter8_d" x="1201.41" y="14.3263" width="146.483" height="246.893" filterUnits="userSpaceOnUse" color-interpolation-filters="sRGB">
<feFlood flood-opacity="0" result="BackgroundImageFix"/>
<feColorMatrix in="SourceAlpha" type="matrix" values="0 0 0 0 0 0 0 0 0 0 0 0 0 0 0 0 0 0 127 0"/>
<feOffset dy="4"/>
<feGaussianBlur stdDeviation="2"/>
<feColorMatrix type="matrix" values="0 0 0 0 0 0 0 0 0 0 0 0 0 0 0 0 0 0 0.25 0"/>
<feBlend mode="normal" in2="BackgroundImageFix" result="effect1_dropShadow"/>
<feBlend mode="normal" in="SourceGraphic" in2="effect1_dropShadow" result="shape"/>
</filter>
<filter id="filter9_d" x="1147.14" y="128.416" width="255.024" height="255.024" filterUnits="userSpaceOnUse" color-interpolation-filters="sRGB">
<feFlood flood-opacity="0" result="BackgroundImageFix"/>
<feColorMatrix in="SourceAlpha" type="matrix" values="0 0 0 0 0 0 0 0 0 0 0 0 0 0 0 0 0 0 127 0"/>
<feOffset dy="4"/>
<feGaussianBlur stdDeviation="2"/>
<feColorMatrix type="matrix" values="0 0 0 0 0 0 0 0 0 0 0 0 0 0 0 0 0 0 0.25 0"/>
<feBlend mode="normal" in2="BackgroundImageFix" result="effect1_dropShadow"/>
<feBlend mode="normal" in="SourceGraphic" in2="effect1_dropShadow" result="shape"/>
</filter>
<filter id="filter10_d" x="1173.14" y="131.817" width="229.021" height="229.021" filterUnits="userSpaceOnUse" color-interpolation-filters="sRGB">
<feFlood flood-opacity="0" result="BackgroundImageFix"/>
<feColorMatrix in="SourceAlpha" type="matrix" values="0 0 0 0 0 0 0 0 0 0 0 0 0 0 0 0 0 0 127 0"/>
<feOffset dy="-3"/>
<feGaussianBlur stdDeviation="2"/>
<feColorMatrix type="matrix" values="0 0 0 0 0 0 0 0 0 0 0 0 0 0 0 0 0 0 0.25 0"/>
<feBlend mode="normal" in2="BackgroundImageFix" result="effect1_dropShadow"/>
<feBlend mode="normal" in="SourceGraphic" in2="effect1_dropShadow" result="shape"/>
</filter>
<filter id="filter11_bd" x="1233.14" y="320.379" width="345.552" height="349.552" filterUnits="userSpaceOnUse" color-interpolation-filters="sRGB">
<feFlood flood-opacity="0" result="BackgroundImageFix"/>
<feGaussianBlur in="BackgroundImage" stdDeviation="2"/>
<feComposite in2="SourceAlpha" operator="in" result="effect1_backgroundBlur"/>
<feColorMatrix in="SourceAlpha" type="matrix" values="0 0 0 0 0 0 0 0 0 0 0 0 0 0 0 0 0 0 127 0"/>
<feOffset dy="4"/>
<feGaussianBlur stdDeviation="2"/>
<feColorMatrix type="matrix" values="0 0 0 0 0 0 0 0 0 0 0 0 0 0 0 0 0 0 0.25 0"/>
<feBlend mode="normal" in2="effect1_backgroundBlur" result="effect2_dropShadow"/>
<feBlend mode="normal" in="SourceGraphic" in2="effect2_dropShadow" result="shape"/>
</filter>
<filter id="filter12_bd" x="860.796" y="-54.2111" width="684.916" height="687.916" filterUnits="userSpaceOnUse" color-interpolation-filters="sRGB">
<feFlood flood-opacity="0" result="BackgroundImageFix"/>
<feGaussianBlur in="BackgroundImage" stdDeviation="2"/>
<feComposite in2="SourceAlpha" operator="in" result="effect1_backgroundBlur"/>
<feColorMatrix in="SourceAlpha" type="matrix" values="0 0 0 0 0 0 0 0 0 0 0 0 0 0 0 0 0 0 127 0"/>
<feOffset dy="-3"/>
<feGaussianBlur stdDeviation="2"/>
<feColorMatrix type="matrix" values="0 0 0 0 0 0 0 0 0 0 0 0 0 0 0 0 0 0 0.25 0"/>
<feBlend mode="normal" in2="effect1_backgroundBlur" result="effect2_dropShadow"/>
<feBlend mode="normal" in="SourceGraphic" in2="effect2_dropShadow" result="shape"/>
</filter>
<filter id="filter13_d" x="-227.785" y="1243.78" width="345.552" height="345.552" filterUnits="userSpaceOnUse" color-interpolation-filters="sRGB">
<feFlood flood-opacity="0" result="BackgroundImageFix"/>
<feColorMatrix in="SourceAlpha" type="matrix" values="0 0 0 0 0 0 0 0 0 0 0 0 0 0 0 0 0 0 127 0"/>
<feOffset dy="4"/>
<feGaussianBlur stdDeviation="2"/>
<feColorMatrix type="matrix" values="0 0 0 0 0 0 0 0 0 0 0 0 0 0 0 0 0 0 0.25 0"/>
<feBlend mode="normal" in2="BackgroundImageFix" result="effect1_dropShadow"/>
<feBlend mode="normal" in="SourceGraphic" in2="effect1_dropShadow" result="shape"/>
</filter>
<filter id="filter14_d" x="94.9922" y="992.462" width="274.845" height="274.845" filterUnits="userSpaceOnUse" color-interpolation-filters="sRGB">
<feFlood flood-opacity="0" result="BackgroundImageFix"/>
<feColorMatrix in="SourceAlpha" type="matrix" values="0 0 0 0 0 0 0 0 0 0 0 0 0 0 0 0 0 0 127 0"/>
<feOffset dy="4"/>
<feGaussianBlur stdDeviation="2"/>
<feColorMatrix type="matrix" values="0 0 0 0 0 0 0 0 0 0 0 0 0 0 0 0 0 0 0.25 0"/>
<feBlend mode="normal" in2="BackgroundImageFix" result="effect1_dropShadow"/>
<feBlend mode="normal" in="SourceGraphic" in2="effect1_dropShadow" result="shape"/>
</filter>
<filter id="filter15_d" x="-74.543" y="1162" width="274.845" height="274.845" filterUnits="userSpaceOnUse" color-interpolation-filters="sRGB">
<feFlood flood-opacity="0" result="BackgroundImageFix"/>
<feColorMatrix in="SourceAlpha" type="matrix" values="0 0 0 0 0 0 0 0 0 0 0 0 0 0 0 0 0 0 127 0"/>
<feOffset dy="4"/>
<feGaussianBlur stdDeviation="2"/>
<feColorMatrix type="matrix" values="0 0 0 0 0 0 0 0 0 0 0 0 0 0 0 0 0 0 0.25 0"/>
<feBlend mode="normal" in2="BackgroundImageFix" result="effect1_dropShadow"/>
<feBlend mode="normal" in="SourceGraphic" in2="effect1_dropShadow" result="shape"/>
</filter>
<filter id="filter16_d" x="94.9941" y="1162" width="274.846" height="274.846" filterUnits="userSpaceOnUse" color-interpolation-filters="sRGB">
<feFlood flood-opacity="0" result="BackgroundImageFix"/>
<feColorMatrix in="SourceAlpha" type="matrix" values="0 0 0 0 0 0 0 0 0 0 0 0 0 0 0 0 0 0 127 0"/>
<feOffset dy="4"/>
<feGaussianBlur stdDeviation="2"/>
<feColorMatrix type="matrix" values="0 0 0 0 0 0 0 0 0 0 0 0 0 0 0 0 0 0 0.25 0"/>
<feBlend mode="normal" in2="BackgroundImageFix" result="effect1_dropShadow"/>
<feBlend mode="normal" in="SourceGraphic" in2="effect1_dropShadow" result="shape"/>
</filter>
<filter id="filter17_d" x="-74.542" y="992.462" width="274.846" height="274.846" filterUnits="userSpaceOnUse" color-interpolation-filters="sRGB">
<feFlood flood-opacity="0" result="BackgroundImageFix"/>
<feColorMatrix in="SourceAlpha" type="matrix" values="0 0 0 0 0 0 0 0 0 0 0 0 0 0 0 0 0 0 127 0"/>
<feOffset dy="4"/>
<feGaussianBlur stdDeviation="2"/>
<feColorMatrix type="matrix" values="0 0 0 0 0 0 0 0 0 0 0 0 0 0 0 0 0 0 0.25 0"/>
<feBlend mode="normal" in2="BackgroundImageFix" result="effect1_dropShadow"/>
<feBlend mode="normal" in="SourceGraphic" in2="effect1_dropShadow" result="shape"/>
</filter>
<filter id="filter18_d" x="144.08" y="1141.41" width="246.893" height="146.483" filterUnits="userSpaceOnUse" color-interpolation-filters="sRGB">
<feFlood flood-opacity="0" result="BackgroundImageFix"/>
<feColorMatrix in="SourceAlpha" type="matrix" values="0 0 0 0 0 0 0 0 0 0 0 0 0 0 0 0 0 0 127 0"/>
<feOffset dy="4"/>
<feGaussianBlur stdDeviation="2"/>
<feColorMatrix type="matrix" values="0 0 0 0 0 0 0 0 0 0 0 0 0 0 0 0 0 0 0.25 0"/>
<feBlend mode="normal" in2="BackgroundImageFix" result="effect1_dropShadow"/>
<feBlend mode="normal" in="SourceGraphic" in2="effect1_dropShadow" result="shape"/>
</filter>
<filter id="filter19_d" x="-95.6797" y="1141.41" width="246.893" height="146.483" filterUnits="userSpaceOnUse" color-interpolation-filters="sRGB">
<feFlood flood-opacity="0" result="BackgroundImageFix"/>
<feColorMatrix in="SourceAlpha" type="matrix" values="0 0 0 0 0 0 0 0 0 0 0 0 0 0 0 0 0 0 127 0"/>
<feOffset dy="4"/>
<feGaussianBlur stdDeviation="2"/>
<feColorMatrix type="matrix" values="0 0 0 0 0 0 0 0 0 0 0 0 0 0 0 0 0 0 0.25 0"/>
<feBlend mode="normal" in2="BackgroundImageFix" result="effect1_dropShadow"/>
<feBlend mode="normal" in="SourceGraphic" in2="effect1_dropShadow" result="shape"/>
</filter>
<filter id="filter20_d" x="74.4053" y="1211.08" width="146.483" height="246.893" filterUnits="userSpaceOnUse" color-interpolation-filters="sRGB">
<feFlood flood-opacity="0" result="BackgroundImageFix"/>
<feColorMatrix in="SourceAlpha" type="matrix" values="0 0 0 0 0 0 0 0 0 0 0 0 0 0 0 0 0 0 127 0"/>
<feOffset dy="4"/>
<feGaussianBlur stdDeviation="2"/>
<feColorMatrix type="matrix" values="0 0 0 0 0 0 0 0 0 0 0 0 0 0 0 0 0 0 0.25 0"/>
<feBlend mode="normal" in2="BackgroundImageFix" result="effect1_dropShadow"/>
<feBlend mode="normal" in="SourceGraphic" in2="effect1_dropShadow" result="shape"/>
</filter>
<filter id="filter21_d" x="74.4053" y="971.326" width="146.483" height="246.893" filterUnits="userSpaceOnUse" color-interpolation-filters="sRGB">
<feFlood flood-opacity="0" result="BackgroundImageFix"/>
<feColorMatrix in="SourceAlpha" type="matrix" values="0 0 0 0 0 0 0 0 0 0 0 0 0 0 0 0 0 0 127 0"/>
<feOffset dy="4"/>
<feGaussianBlur stdDeviation="2"/>
<feColorMatrix type="matrix" values="0 0 0 0 0 0 0 0 0 0 0 0 0 0 0 0 0 0 0.25 0"/>
<feBlend mode="normal" in2="BackgroundImageFix" result="effect1_dropShadow"/>
<feBlend mode="normal" in="SourceGraphic" in2="effect1_dropShadow" result="shape"/>
</filter>
<filter id="filter22_d" x="20.1357" y="1085.42" width="255.024" height="255.024" filterUnits="userSpaceOnUse" color-interpolation-filters="sRGB">
<feFlood flood-opacity="0" result="BackgroundImageFix"/>
<feColorMatrix in="SourceAlpha" type="matrix" values="0 0 0 0 0 0 0 0 0 0 0 0 0 0 0 0 0 0 127 0"/>
<feOffset dy="4"/>
<feGaussianBlur stdDeviation="2"/>
<feColorMatrix type="matrix" values="0 0 0 0 0 0 0 0 0 0 0 0 0 0 0 0 0 0 0.25 0"/>
<feBlend mode="normal" in2="BackgroundImageFix" result="effect1_dropShadow"/>
<feBlend mode="normal" in="SourceGraphic" in2="effect1_dropShadow" result="shape"/>
</filter>
<filter id="filter23_d" x="20.1367" y="1088.82" width="229.021" height="229.021" filterUnits="userSpaceOnUse" color-interpolation-filters="sRGB">
<feFlood flood-opacity="0" result="BackgroundImageFix"/>
<feColorMatrix in="SourceAlpha" type="matrix" values="0 0 0 0 0 0 0 0 0 0 0 0 0 0 0 0 0 0 127 0"/>
<feOffset dy="-3"/>
<feGaussianBlur stdDeviation="2"/>
<feColorMatrix type="matrix" values="0 0 0 0 0 0 0 0 0 0 0 0 0 0 0 0 0 0 0.25 0"/>
<feBlend mode="normal" in2="BackgroundImageFix" result="effect1_dropShadow"/>
<feBlend mode="normal" in="SourceGraphic" in2="effect1_dropShadow" result="shape"/>
</filter>
<filter id="filter24_bd" x="-156.388" y="1277.38" width="345.552" height="349.552" filterUnits="userSpaceOnUse" color-interpolation-filters="sRGB">
<feFlood flood-opacity="0" result="BackgroundImageFix"/>
<feGaussianBlur in="BackgroundImage" stdDeviation="2"/>
<feComposite in2="SourceAlpha" operator="in" result="effect1_backgroundBlur"/>
<feColorMatrix in="SourceAlpha" type="matrix" values="0 0 0 0 0 0 0 0 0 0 0 0 0 0 0 0 0 0 127 0"/>
<feOffset dy="4"/>
<feGaussianBlur stdDeviation="2"/>
<feColorMatrix type="matrix" values="0 0 0 0 0 0 0 0 0 0 0 0 0 0 0 0 0 0 0.25 0"/>
<feBlend mode="normal" in2="effect1_backgroundBlur" result="effect2_dropShadow"/>
<feBlend mode="normal" in="SourceGraphic" in2="effect2_dropShadow" result="shape"/>
</filter>
<filter id="filter25_bd" x="-123.412" y="902.789" width="684.916" height="687.916" filterUnits="userSpaceOnUse" color-interpolation-filters="sRGB">
<feFlood flood-opacity="0" result="BackgroundImageFix"/>
<feGaussianBlur in="BackgroundImage" stdDeviation="2"/>
<feComposite in2="SourceAlpha" operator="in" result="effect1_backgroundBlur"/>
<feColorMatrix in="SourceAlpha" type="matrix" values="0 0 0 0 0 0 0 0 0 0 0 0 0 0 0 0 0 0 127 0"/>
<feOffset dy="-3"/>
<feGaussianBlur stdDeviation="2"/>
<feColorMatrix type="matrix" values="0 0 0 0 0 0 0 0 0 0 0 0 0 0 0 0 0 0 0.25 0"/>
<feBlend mode="normal" in2="effect1_backgroundBlur" result="effect2_dropShadow"/>
<feBlend mode="normal" in="SourceGraphic" in2="effect2_dropShadow" result="shape"/>
</filter>
<filter id="filter26_d" x="436" y="1506.73" width="567.458" height="567.458" filterUnits="userSpaceOnUse" color-interpolation-filters="sRGB">
<feFlood flood-opacity="0" result="BackgroundImageFix"/>
<feColorMatrix in="SourceAlpha" type="matrix" values="0 0 0 0 0 0 0 0 0 0 0 0 0 0 0 0 0 0 127 0"/>
<feOffset dy="-3"/>
<feGaussianBlur stdDeviation="2"/>
<feColorMatrix type="matrix" values="0 0 0 0 0 0 0 0 0 0 0 0 0 0 0 0 0 0 0.25 0"/>
<feBlend mode="normal" in2="BackgroundImageFix" result="effect1_dropShadow"/>
<feBlend mode="normal" in="SourceGraphic" in2="effect1_dropShadow" result="shape"/>
</filter>
<filter id="filter27_bd" x="378" y="1448" width="684.916" height="687.916" filterUnits="userSpaceOnUse" color-interpolation-filters="sRGB">
<feFlood flood-opacity="0" result="BackgroundImageFix"/>
<feGaussianBlur in="BackgroundImage" stdDeviation="2"/>
<feComposite in2="SourceAlpha" operator="in" result="effect1_backgroundBlur"/>
<feColorMatrix in="SourceAlpha" type="matrix" values="0 0 0 0 0 0 0 0 0 0 0 0 0 0 0 0 0 0 127 0"/>
<feOffset dy="-3"/>
<feGaussianBlur stdDeviation="2"/>
<feColorMatrix type="matrix" values="0 0 0 0 0 0 0 0 0 0 0 0 0 0 0 0 0 0 0.25 0"/>
<feBlend mode="normal" in2="effect1_backgroundBlur" result="effect2_dropShadow"/>
<feBlend mode="normal" in="SourceGraphic" in2="effect2_dropShadow" result="shape"/>
</filter>
</defs>
</svg>
