<svg width="67" height="54" viewBox="0 0 67 54" fill="none" xmlns="http://www.w3.org/2000/svg">
<path fill-rule="evenodd" clip-rule="evenodd" d="M41.0372 48.7211C37.1534 51.7176 32.2848 53.5 27 53.5C14.2975 53.5 4 43.2025 4 30.5C4 17.7975 14.2975 7.5 27 7.5C32.4426 7.5 37.4437 9.39043 41.3824 12.5505L64.6882 27.9826C67.1468 29.6107 67.0587 33.2488 64.5241 34.7559L41.0372 48.7211Z" fill="white"/>
<path fill-rule="evenodd" clip-rule="evenodd" d="M37.0372 41.2211C33.1534 44.2176 28.2848 46 23 46C10.2975 46 0 35.7025 0 23C0 10.2975 10.2975 0 23 0C28.4426 0 33.4437 1.89043 37.3824 5.05049L60.6882 20.4826C63.1468 22.1107 63.0587 25.7488 60.5241 27.2559L37.0372 41.2211Z" fill="black"/>
<path d="M20.834 20.168L18.8 21.14C18.32 20.216 17.762 19.178 17.126 18.026L19.16 17C19.7 17.984 20.258 19.04 20.834 20.168ZM24.02 19.52L21.95 20.51C21.446 19.514 20.876 18.452 20.24 17.324L22.31 16.28C23.078 17.696 23.648 18.776 24.02 19.52ZM10.988 16.496L13.976 16.568C13.796 19.652 13.706 22.286 13.706 24.47C13.706 26.21 13.892 27.368 14.264 27.944C14.648 28.508 15.332 28.79 16.316 28.79C17.36 28.79 18.302 28.4 19.142 27.62C19.982 26.84 20.756 25.574 21.464 23.822L24.074 24.812C22.406 29.3 19.82 31.544 16.316 31.544C14.888 31.544 13.778 31.334 12.986 30.914C12.206 30.494 11.636 29.78 11.276 28.772C10.916 27.752 10.736 26.318 10.736 24.47C10.736 21.842 10.82 19.184 10.988 16.496ZM27.134 17.576H35.36V15.776H38.114V17.576H42.866V19.88H38.114V23.282C38.486 24.002 38.672 24.83 38.672 25.766C38.672 27.626 38.126 29.018 37.034 29.942C35.954 30.866 34.13 31.454 31.562 31.706L31.094 29.222C32.822 29.054 33.986 28.832 34.586 28.556C35.198 28.28 35.6 27.848 35.792 27.26C35.792 27.248 35.798 27.23 35.81 27.206C35.822 27.17 35.828 27.146 35.828 27.134L35.792 27.116C35.168 27.488 34.466 27.674 33.686 27.674C32.546 27.674 31.616 27.344 30.896 26.684C30.188 26.024 29.834 25.166 29.834 24.11C29.834 23.054 30.194 22.196 30.914 21.536C31.646 20.876 32.606 20.546 33.794 20.546C34.286 20.546 34.796 20.648 35.324 20.852L35.36 20.834V19.88H27.134V17.576ZM32.966 23.138C32.69 23.39 32.552 23.714 32.552 24.11C32.552 24.506 32.69 24.83 32.966 25.082C33.254 25.334 33.626 25.46 34.082 25.46C34.538 25.46 34.904 25.334 35.18 25.082C35.468 24.83 35.612 24.506 35.612 24.11C35.612 23.714 35.468 23.39 35.18 23.138C34.904 22.886 34.538 22.76 34.082 22.76C33.626 22.76 33.254 22.886 32.966 23.138Z" fill="white"/>
</svg>
