<svg width="67" height="54" viewBox="0 0 67 54" fill="none" xmlns="http://www.w3.org/2000/svg">
<mask id="path-1-inside-1" fill="white">
<path fill-rule="evenodd" clip-rule="evenodd" d="M41.0372 48.7211C37.1534 51.7176 32.2848 53.5 27 53.5C14.2975 53.5 4 43.2025 4 30.5C4 17.7975 14.2975 7.5 27 7.5C32.4426 7.5 37.4437 9.39043 41.3824 12.5505L64.6882 27.9826C67.1468 29.6107 67.0587 33.2488 64.5241 34.7559L41.0372 48.7211Z"/>
</mask>
<path fill-rule="evenodd" clip-rule="evenodd" d="M41.0372 48.7211C37.1534 51.7176 32.2848 53.5 27 53.5C14.2975 53.5 4 43.2025 4 30.5C4 17.7975 14.2975 7.5 27 7.5C32.4426 7.5 37.4437 9.39043 41.3824 12.5505L64.6882 27.9826C67.1468 29.6107 67.0587 33.2488 64.5241 34.7559L41.0372 48.7211Z" fill="black"/>
<path d="M41.0372 48.7211L40.5261 47.8616L40.4742 47.8924L40.4264 47.9294L41.0372 48.7211ZM41.3824 12.5505L40.7566 13.3305L40.7922 13.3591L40.8303 13.3843L41.3824 12.5505ZM64.6882 27.9826L64.1361 28.8164L64.6882 27.9826ZM64.5241 34.7559L65.0351 35.6154L64.5241 34.7559ZM40.4264 47.9294C36.7113 50.7956 32.0561 52.5 27 52.5V54.5C32.5135 54.5 37.5954 52.6396 41.6481 49.5129L40.4264 47.9294ZM27 52.5C14.8497 52.5 5 42.6503 5 30.5H3C3 43.7548 13.7452 54.5 27 54.5V52.5ZM5 30.5C5 18.3497 14.8497 8.5 27 8.5V6.5C13.7452 6.5 3 17.2452 3 30.5H5ZM27 8.5C32.2069 8.5 36.9889 10.3077 40.7566 13.3305L42.0082 11.7705C37.8984 8.4732 32.6783 6.5 27 6.5V8.5ZM40.8303 13.3843L64.1361 28.8164L65.2402 27.1489L41.9345 11.7167L40.8303 13.3843ZM64.1361 28.8164C65.9801 30.0374 65.914 32.7661 64.013 33.8964L65.0351 35.6154C68.2034 33.7316 68.3136 29.1839 65.2402 27.1489L64.1361 28.8164ZM64.013 33.8964L40.5261 47.8616L41.5483 49.5806L65.0351 35.6154L64.013 33.8964Z" fill="black" mask="url(#path-1-inside-1)"/>
<mask id="path-3-inside-2" fill="white">
<path fill-rule="evenodd" clip-rule="evenodd" d="M37.0372 41.2211C33.1534 44.2176 28.2848 46 23 46C10.2975 46 0 35.7025 0 23C0 10.2975 10.2975 0 23 0C28.4426 0 33.4437 1.89043 37.3824 5.05049L60.6882 20.4826C63.1468 22.1107 63.0587 25.7488 60.5241 27.2559L37.0372 41.2211Z"/>
</mask>
<path fill-rule="evenodd" clip-rule="evenodd" d="M37.0372 41.2211C33.1534 44.2176 28.2848 46 23 46C10.2975 46 0 35.7025 0 23C0 10.2975 10.2975 0 23 0C28.4426 0 33.4437 1.89043 37.3824 5.05049L60.6882 20.4826C63.1468 22.1107 63.0587 25.7488 60.5241 27.2559L37.0372 41.2211Z" fill="white"/>
<path d="M37.0372 41.2211L36.5261 40.3616L36.4742 40.3924L36.4264 40.4294L37.0372 41.2211ZM37.3824 5.05049L36.7566 5.83048L36.7922 5.85906L36.8303 5.88427L37.3824 5.05049ZM60.6882 20.4826L60.1361 21.3164L60.6882 20.4826ZM60.5241 27.2559L61.0351 28.1154L60.5241 27.2559ZM36.4264 40.4294C32.7113 43.2956 28.0561 45 23 45V47C28.5135 47 33.5954 45.1396 37.6481 42.0129L36.4264 40.4294ZM23 45C10.8497 45 1 35.1503 1 23H-1C-1 36.2548 9.74517 47 23 47V45ZM1 23C1 10.8497 10.8497 1 23 1V-1C9.74517 -1 -1 9.74517 -1 23H1ZM23 1C28.2069 1 32.9889 2.80766 36.7566 5.83048L38.0082 4.2705C33.8984 0.973201 28.6783 -1 23 -1V1ZM36.8303 5.88427L60.1361 21.3164L61.2402 19.6489L37.9345 4.21671L36.8303 5.88427ZM60.1361 21.3164C61.9801 22.5374 61.914 25.2661 60.013 26.3964L61.0351 28.1154C64.2034 26.2316 64.3136 21.6839 61.2402 19.6489L60.1361 21.3164ZM60.013 26.3964L36.5261 40.3616L37.5483 42.0806L61.0351 28.1154L60.013 26.3964Z" fill="black" mask="url(#path-3-inside-2)"/>
<path d="M17.864 17.522L18.602 17.126C19.37 18.338 20.006 19.418 20.51 20.366L19.754 20.744C19.094 19.52 18.464 18.446 17.864 17.522ZM20.402 16.748L21.14 16.334C21.872 17.486 22.526 18.59 23.102 19.646L22.364 20.024C21.872 19.112 21.218 18.02 20.402 16.748ZM11.636 16.604L12.536 16.622C12.404 20.258 12.338 22.994 12.338 24.83C12.338 26.042 12.41 27.032 12.554 27.8C12.71 28.556 12.962 29.138 13.31 29.546C13.67 29.954 14.078 30.23 14.534 30.374C14.99 30.518 15.584 30.59 16.316 30.59C17.648 30.59 18.872 30.086 19.988 29.078C21.104 28.07 22.004 26.642 22.688 24.794L23.462 25.1C22.718 27.128 21.722 28.694 20.474 29.798C19.226 30.89 17.84 31.436 16.316 31.436C14.492 31.436 13.226 30.956 12.518 29.996C11.81 29.036 11.456 27.314 11.456 24.83C11.456 22.19 11.516 19.448 11.636 16.604ZM37.034 25.694C36.794 26.162 36.416 26.534 35.9 26.81C35.396 27.074 34.814 27.206 34.154 27.206C33.206 27.206 32.408 26.888 31.76 26.252C31.124 25.604 30.806 24.812 30.806 23.876C30.806 22.94 31.124 22.154 31.76 21.518C32.408 20.87 33.206 20.546 34.154 20.546C35.186 20.546 36.056 20.9 36.764 21.608L36.8 21.59V19.16H27.386V18.404H36.8V15.884H37.646V18.404H42.614V19.16H37.646V23.48C37.814 24.128 37.898 24.806 37.898 25.514C37.898 27.266 37.442 28.616 36.53 29.564C35.63 30.512 34.178 31.142 32.174 31.454L32.048 30.662C33.68 30.446 34.922 29.948 35.774 29.168C36.626 28.376 37.064 27.35 37.088 26.09C37.088 26.054 37.082 25.994 37.07 25.91C37.07 25.826 37.07 25.76 37.07 25.712L37.034 25.694ZM32.408 22.076C31.904 22.568 31.652 23.168 31.652 23.876C31.652 24.584 31.904 25.184 32.408 25.676C32.912 26.168 33.53 26.414 34.262 26.414C34.994 26.414 35.612 26.168 36.116 25.676C36.62 25.184 36.872 24.584 36.872 23.876C36.872 23.168 36.62 22.568 36.116 22.076C35.612 21.572 34.994 21.32 34.262 21.32C33.53 21.32 32.912 21.572 32.408 22.076Z" fill="black"/>
</svg>
