<svg width="184" height="96" viewBox="0 0 184 96" fill="none" xmlns="http://www.w3.org/2000/svg">
<path d="M4.752 33.96L12.672 66.552H12.768L21.024 33.96H24.288L32.544 66.552H32.64L40.56 33.96H42.96L34.08 69H30.912L22.656 36.408H22.56L14.352 69H11.136L2.304 33.96H4.752ZM63.2426 48.456C61.5786 46.472 59.3226 45.48 56.4746 45.48C53.6266 45.48 51.3706 46.472 49.7066 48.456C48.0426 50.408 47.2106 53.096 47.2106 56.52C47.2106 59.944 48.0426 62.648 49.7066 64.632C51.3706 66.584 53.6266 67.56 56.4746 67.56C59.3226 67.56 61.5786 66.584 63.2426 64.632C64.9066 62.648 65.7386 59.944 65.7386 56.52C65.7386 53.096 64.9066 50.408 63.2426 48.456ZM64.8746 65.976C62.7946 68.312 59.9946 69.48 56.4746 69.48C52.9546 69.48 50.1546 68.312 48.0746 65.976C45.9946 63.64 44.9546 60.488 44.9546 56.52C44.9546 52.552 45.9946 49.4 48.0746 47.064C50.1546 44.728 52.9546 43.56 56.4746 43.56C59.9946 43.56 62.7946 44.728 64.8746 47.064C66.9546 49.4 67.9946 52.552 67.9946 56.52C67.9946 60.488 66.9546 63.64 64.8746 65.976ZM76.0301 44.04V49.944H76.1261C77.4061 47.928 79.1181 46.36 81.2621 45.24C83.4061 44.12 85.8381 43.56 88.5581 43.56V45.528C84.9741 45.528 81.9981 46.552 79.6301 48.6C77.2621 50.616 76.0781 53.144 76.0781 56.184V69H73.8221V44.04H76.0301ZM97.5994 33V54.936H97.6954L111.855 44.04H114.927L99.4234 55.944L115.167 69H112.143L97.6954 56.952H97.5994V69H95.3434V33H97.5994ZM141.354 55.68V70.992H140.154V57.888C139.274 59.568 138.282 61.064 137.178 62.376L136.506 61.392C139.194 58.128 141.09 54.216 142.194 49.656L143.322 49.92C142.842 52.016 142.186 53.936 141.354 55.68ZM158.514 52.872H150.69V57.768H157.794V58.8H150.69V63.888H157.794V64.944H150.69V70.992H149.466V52.872H147.45C146.426 55.352 145.17 57.608 143.682 59.64L142.746 58.944C144.858 56.096 146.426 52.92 147.45 49.416L148.578 49.656C148.37 50.36 148.13 51.088 147.858 51.84H158.514V52.872ZM165.954 58.728H164.754V50.376H178.434V58.728H165.954ZM162.738 69.672V70.776H161.562V60.696H170.394V70.776H169.242V69.672H162.738ZM173.946 69.672V70.776H172.794V60.696H181.626V70.776H180.45V69.672H173.946ZM177.234 57.744V51.408H165.954V57.744H177.234ZM169.242 68.688V61.704H162.738V68.688H169.242ZM180.45 68.688V61.704H173.946V68.688H180.45Z" fill="black"/>
</svg>
