<svg width="522" height="96" viewBox="0 0 522 96" fill="none" xmlns="http://www.w3.org/2000/svg">
<path d="M4.224 69V33.96H6.96L27.024 65.352H27.12V33.96H29.52V69H26.736L6.672 37.608H6.576V69H4.224ZM39.654 38.28V33H42.006V38.28H39.654ZM39.654 69V44.04H42.006V69H39.654ZM62.3063 45.528C59.1703 45.528 56.7063 46.504 54.9143 48.456C53.1543 50.376 52.2743 53.064 52.2743 56.52C52.2743 59.848 53.2023 62.52 55.0583 64.536C56.9143 66.552 59.3303 67.56 62.3063 67.56C64.5143 67.56 66.6263 67.032 68.6423 65.976L69.3143 67.8C67.0743 68.92 64.7063 69.48 62.2103 69.48C58.5623 69.48 55.6023 68.296 53.3303 65.928C51.0903 63.56 49.9703 60.424 49.9703 56.52C49.9703 52.488 51.0583 49.32 53.2343 47.016C55.4103 44.712 58.4023 43.56 62.2103 43.56C64.7063 43.56 67.0743 44.12 69.3143 45.24L68.6423 47.112C66.6263 46.056 64.5143 45.528 62.3063 45.528ZM76.8825 57.336C76.9145 60.536 77.7945 63.048 79.5225 64.872C81.2825 66.696 83.6185 67.608 86.5305 67.608C89.1865 67.608 91.6985 66.936 94.0665 65.592L94.7865 67.368C92.1945 68.776 89.3945 69.48 86.3865 69.48C82.8025 69.48 79.9385 68.328 77.7945 66.024C75.6825 63.688 74.6265 60.52 74.6265 56.52C74.6265 52.488 75.6345 49.32 77.6505 47.016C79.6665 44.712 82.4185 43.56 85.9065 43.56C89.2345 43.56 91.8105 44.664 93.6345 46.872C95.4585 49.08 96.3705 52.216 96.3705 56.28V57.336H76.8825ZM76.9305 55.416H94.1625C94.0985 52.184 93.3465 49.72 91.9065 48.024C90.4985 46.296 88.4985 45.432 85.9065 45.432C83.1545 45.432 80.9945 46.312 79.4265 48.072C77.8585 49.8 77.0265 52.248 76.9305 55.416ZM122.826 35.88V45H132.714V46.92H122.826V61.656C122.826 64.056 123.178 65.64 123.882 66.408C124.586 67.176 125.882 67.56 127.77 67.56C129.274 67.56 130.634 67.32 131.85 66.84L132.33 68.664C130.794 69.208 129.194 69.48 127.53 69.48C124.938 69.48 123.13 68.936 122.106 67.848C121.082 66.728 120.57 64.76 120.57 61.944V46.92H114.81V45H120.57V35.88H122.826ZM156.336 48.456C154.672 46.472 152.416 45.48 149.568 45.48C146.72 45.48 144.464 46.472 142.8 48.456C141.136 50.408 140.304 53.096 140.304 56.52C140.304 59.944 141.136 62.648 142.8 64.632C144.464 66.584 146.72 67.56 149.568 67.56C152.416 67.56 154.672 66.584 156.336 64.632C158 62.648 158.832 59.944 158.832 56.52C158.832 53.096 158 50.408 156.336 48.456ZM157.968 65.976C155.888 68.312 153.088 69.48 149.568 69.48C146.048 69.48 143.248 68.312 141.168 65.976C139.088 63.64 138.048 60.488 138.048 56.52C138.048 52.552 139.088 49.4 141.168 47.064C143.248 44.728 146.048 43.56 149.568 43.56C153.088 43.56 155.888 44.728 157.968 47.064C160.048 49.4 161.088 52.552 161.088 56.52C161.088 60.488 160.048 63.64 157.968 65.976ZM182.67 44.04L182.718 48.888H182.814C183.582 47.192 184.558 45.88 185.742 44.952C186.926 44.024 188.222 43.56 189.63 43.56C193.086 43.56 195.342 45.304 196.398 48.792H196.494C197.198 47.16 198.19 45.88 199.47 44.952C200.782 44.024 202.254 43.56 203.886 43.56C206.382 43.56 208.222 44.328 209.406 45.864C210.622 47.4 211.23 49.832 211.23 53.16V69H209.022V53.64C209.022 50.664 208.59 48.568 207.726 47.352C206.862 46.104 205.438 45.48 203.454 45.48C201.694 45.48 200.174 46.312 198.894 47.976C197.614 49.608 196.974 51.656 196.974 54.12V69H194.766V53.64C194.766 50.664 194.334 48.568 193.47 47.352C192.638 46.104 191.23 45.48 189.246 45.48C187.646 45.48 186.158 46.456 184.782 48.408C183.438 50.328 182.766 52.664 182.766 55.416V69H180.51V44.04H182.67ZM219.054 57.336C219.086 60.536 219.966 63.048 221.694 64.872C223.454 66.696 225.79 67.608 228.702 67.608C231.358 67.608 233.87 66.936 236.238 65.592L236.958 67.368C234.366 68.776 231.566 69.48 228.558 69.48C224.974 69.48 222.11 68.328 219.966 66.024C217.854 63.688 216.798 60.52 216.798 56.52C216.798 52.488 217.806 49.32 219.822 47.016C221.838 44.712 224.59 43.56 228.078 43.56C231.406 43.56 233.982 44.664 235.806 46.872C237.63 49.08 238.542 52.216 238.542 56.28V57.336H219.054ZM219.102 55.416H236.334C236.27 52.184 235.518 49.72 234.078 48.024C232.67 46.296 230.67 45.432 228.078 45.432C225.326 45.432 223.166 46.312 221.598 48.072C220.03 49.8 219.198 52.248 219.102 55.416ZM245.633 57.336C245.665 60.536 246.545 63.048 248.273 64.872C250.033 66.696 252.369 67.608 255.281 67.608C257.937 67.608 260.449 66.936 262.817 65.592L263.537 67.368C260.945 68.776 258.145 69.48 255.137 69.48C251.553 69.48 248.689 68.328 246.545 66.024C244.433 63.688 243.377 60.52 243.377 56.52C243.377 52.488 244.385 49.32 246.401 47.016C248.417 44.712 251.169 43.56 254.657 43.56C257.985 43.56 260.561 44.664 262.385 46.872C264.209 49.08 265.121 52.216 265.121 56.28V57.336H245.633ZM245.681 55.416H262.913C262.849 52.184 262.097 49.72 260.657 48.024C259.249 46.296 257.249 45.432 254.657 45.432C251.905 45.432 249.745 46.312 248.177 48.072C246.609 49.8 245.777 52.248 245.681 55.416ZM277.513 35.88V45H287.401V46.92H277.513V61.656C277.513 64.056 277.865 65.64 278.569 66.408C279.273 67.176 280.569 67.56 282.457 67.56C283.961 67.56 285.321 67.32 286.537 66.84L287.017 68.664C285.481 69.208 283.881 69.48 282.217 69.48C279.625 69.48 277.817 68.936 276.793 67.848C275.769 66.728 275.257 64.76 275.257 61.944V46.92H269.497V45H275.257V35.88H277.513ZM309.006 44.04L317.55 65.976H317.646L326.862 44.04H329.262L313.902 79.56H311.502L316.35 68.664L306.558 44.04H309.006ZM350.211 48.456C348.547 46.472 346.291 45.48 343.443 45.48C340.595 45.48 338.339 46.472 336.675 48.456C335.011 50.408 334.179 53.096 334.179 56.52C334.179 59.944 335.011 62.648 336.675 64.632C338.339 66.584 340.595 67.56 343.443 67.56C346.291 67.56 348.547 66.584 350.211 64.632C351.875 62.648 352.707 59.944 352.707 56.52C352.707 53.096 351.875 50.408 350.211 48.456ZM351.843 65.976C349.763 68.312 346.963 69.48 343.443 69.48C339.923 69.48 337.123 68.312 335.043 65.976C332.963 63.64 331.923 60.488 331.923 56.52C331.923 52.552 332.963 49.4 335.043 47.064C337.123 44.728 339.923 43.56 343.443 43.56C346.963 43.56 349.763 44.728 351.843 47.064C353.923 49.4 354.963 52.552 354.963 56.52C354.963 60.488 353.923 63.64 351.843 65.976ZM362.759 44.04V59.736C362.759 62.584 363.239 64.6 364.199 65.784C365.159 66.936 366.791 67.512 369.095 67.512C371.143 67.512 373.031 66.52 374.759 64.536C376.487 62.52 377.351 60.12 377.351 57.336V44.04H379.607V69H377.447L377.399 63.72H377.303C376.439 65.48 375.223 66.888 373.655 67.944C372.119 68.968 370.423 69.48 368.567 69.48C365.783 69.48 363.751 68.728 362.471 67.224C361.191 65.72 360.551 63.272 360.551 59.88V44.04H362.759ZM416.901 52.344C416.853 55.752 416.589 58.544 416.109 60.72C415.645 62.88 414.901 64.712 413.877 66.216C412.869 67.704 411.437 69.096 409.581 70.392L408.765 69.576C410.541 68.344 411.909 67.032 412.869 65.64C413.845 64.232 414.557 62.488 415.005 60.408C415.469 58.328 415.717 55.64 415.749 52.344H410.637V51.288H423.789V52.536C423.789 55.192 423.765 57.424 423.717 59.232C423.669 61.04 423.581 62.616 423.453 63.96C423.325 65.288 423.173 66.328 422.997 67.08C422.837 67.832 422.597 68.432 422.277 68.88C421.973 69.312 421.645 69.592 421.293 69.72C420.941 69.864 420.493 69.936 419.949 69.936C418.989 69.936 417.741 69.848 416.205 69.672L416.229 68.592C417.509 68.752 418.693 68.832 419.781 68.832C420.549 68.832 421.109 68.536 421.461 67.944C421.829 67.352 422.117 65.928 422.325 63.672C422.533 61.4 422.637 57.912 422.637 53.208V52.344H416.901ZM407.133 53.64H410.613V54.72C409.813 56.768 408.845 58.52 407.709 59.976C408.205 60.472 408.693 60.984 409.173 61.512C410.101 60.456 410.949 59.264 411.717 57.936L412.605 58.44C411.773 59.864 410.861 61.144 409.869 62.28C410.429 62.92 410.949 63.528 411.429 64.104L410.637 64.824C409.581 63.544 408.413 62.24 407.133 60.912V70.992H405.981V61.8C404.877 62.904 403.661 63.864 402.333 64.68L401.901 63.552C403.693 62.432 405.189 61.16 406.389 59.736C407.605 58.312 408.613 56.64 409.413 54.72H402.501V53.64H405.981V49.728H407.133V53.64ZM430.725 50.832L431.781 50.616C432.021 51.768 432.349 53.152 432.765 54.768C434.349 54.016 436.077 53.64 437.949 53.64C438.845 53.64 439.733 53.728 440.613 53.904C441.189 52.16 441.621 50.744 441.909 49.656L442.989 49.92C442.701 51.008 442.269 52.424 441.693 54.168C443.501 54.728 444.917 55.672 445.941 57C446.965 58.328 447.477 59.904 447.477 61.728C447.477 63.984 446.789 65.856 445.413 67.344C444.053 68.816 442.237 69.664 439.965 69.888L439.749 68.832C441.749 68.64 443.349 67.904 444.549 66.624C445.749 65.344 446.349 63.712 446.349 61.728C446.349 60.16 445.901 58.808 445.005 57.672C444.125 56.536 442.901 55.728 441.333 55.248C439.701 59.856 437.981 63.288 436.173 65.544C434.381 67.8 432.749 68.928 431.277 68.928C430.253 68.928 429.357 68.416 428.589 67.392C427.837 66.352 427.461 64.952 427.461 63.192C427.461 61.528 427.837 60.016 428.589 58.656C429.357 57.28 430.421 56.168 431.781 55.32C431.365 53.736 431.013 52.24 430.725 50.832ZM440.253 54.984C439.533 54.84 438.765 54.768 437.949 54.768C436.109 54.768 434.477 55.136 433.053 55.872C433.821 58.672 434.709 61.504 435.717 64.368C437.301 62.112 438.813 58.984 440.253 54.984ZM432.093 56.448C430.973 57.2 430.101 58.16 429.477 59.328C428.853 60.496 428.541 61.784 428.541 63.192C428.541 64.616 428.821 65.744 429.381 66.576C429.957 67.408 430.613 67.824 431.349 67.824C432.405 67.824 433.605 67.008 434.949 65.376C433.877 62.464 432.925 59.488 432.093 56.448ZM463.701 49.8V52.728H470.469V53.76H463.701V57.528H469.701V58.56H463.701V63.96C465.461 64.888 467.533 66.36 469.917 68.376L469.197 69.192C467.117 67.4 465.285 66.056 463.701 65.16C463.685 66.92 463.293 68.184 462.525 68.952C461.773 69.704 460.541 70.08 458.829 70.08C457.309 70.08 456.101 69.72 455.205 69C454.309 68.264 453.861 67.288 453.861 66.072C453.861 65.64 453.933 65.232 454.077 64.848C454.221 64.464 454.461 64.088 454.797 63.72C455.133 63.352 455.645 63.056 456.333 62.832C457.021 62.608 457.853 62.496 458.829 62.496C459.949 62.496 461.205 62.808 462.597 63.432V58.56H453.237V57.528H462.597V53.76H452.469V52.728H462.597V49.8H463.701ZM462.597 64.56C461.205 63.872 459.973 63.528 458.901 63.528C456.325 63.528 455.037 64.376 455.037 66.072C455.037 66.984 455.373 67.712 456.045 68.256C456.733 68.784 457.661 69.048 458.829 69.048C460.237 69.048 461.213 68.744 461.757 68.136C462.317 67.528 462.597 66.456 462.597 64.92V64.56ZM480.141 50.496C479.981 54.896 479.901 58.544 479.901 61.44C479.901 63.056 479.997 64.376 480.189 65.4C480.397 66.408 480.733 67.184 481.197 67.728C481.661 68.272 482.197 68.64 482.805 68.832C483.413 69.024 484.205 69.12 485.181 69.12C486.957 69.12 488.589 68.448 490.077 67.104C491.565 65.76 492.765 63.856 493.677 61.392L494.733 61.8C493.741 64.504 492.405 66.592 490.725 68.064C489.061 69.52 487.213 70.248 485.181 70.248C482.749 70.248 481.061 69.608 480.117 68.328C479.173 67.048 478.701 64.752 478.701 61.44C478.701 58.304 478.789 54.648 478.965 50.472L480.141 50.496ZM504.957 62.328C504.957 60.28 505.677 58.472 507.117 56.904C508.557 55.336 510.565 54.152 513.141 53.352V53.304C508.645 53.496 504.197 53.592 499.797 53.592V52.512C506.101 52.512 512.541 52.352 519.117 52.032L519.165 53.112C515.101 53.448 511.917 54.44 509.613 56.088C507.325 57.736 506.181 59.792 506.181 62.256C506.181 64.208 506.837 65.752 508.149 66.888C509.461 68.024 511.221 68.592 513.429 68.592C514.501 68.592 515.517 68.512 516.477 68.352L516.621 69.432C515.517 69.608 514.437 69.696 513.381 69.696C510.789 69.696 508.733 69.032 507.213 67.704C505.709 66.376 504.957 64.584 504.957 62.328Z" fill="black"/>
</svg>
