<svg width="909" height="168" viewBox="0 0 909 168" fill="none" xmlns="http://www.w3.org/2000/svg">
<path d="M6.624 33.96V48.984H26.784V33.96H29.184V69H26.784V51H6.624V69H4.224V33.96H6.624ZM37.7419 57.336C37.7739 60.536 38.6539 63.048 40.3819 64.872C42.1419 66.696 44.4779 67.608 47.3899 67.608C50.0459 67.608 52.5579 66.936 54.9259 65.592L55.6459 67.368C53.0539 68.776 50.2539 69.48 47.2459 69.48C43.6619 69.48 40.7979 68.328 38.6539 66.024C36.5419 63.688 35.4859 60.52 35.4859 56.52C35.4859 52.488 36.4939 49.32 38.5099 47.016C40.5259 44.712 43.2779 43.56 46.7659 43.56C50.0939 43.56 52.6699 44.664 54.4939 46.872C56.3179 49.08 57.2299 52.216 57.2299 56.28V57.336H37.7419ZM37.7899 55.416H55.0219C54.9579 52.184 54.2059 49.72 52.7659 48.024C51.3579 46.296 49.3579 45.432 46.7659 45.432C44.0139 45.432 41.8539 46.312 40.2859 48.072C38.7179 49.8 37.8859 52.248 37.7899 55.416ZM65.4353 69V33H67.7873V69H65.4353ZM78.654 69V33H81.006V69H78.654ZM107.258 48.456C105.594 46.472 103.338 45.48 100.49 45.48C97.6423 45.48 95.3863 46.472 93.7223 48.456C92.0583 50.408 91.2263 53.096 91.2263 56.52C91.2263 59.944 92.0583 62.648 93.7223 64.632C95.3863 66.584 97.6423 67.56 100.49 67.56C103.338 67.56 105.594 66.584 107.258 64.632C108.922 62.648 109.754 59.944 109.754 56.52C109.754 53.096 108.922 50.408 107.258 48.456ZM108.89 65.976C106.81 68.312 104.01 69.48 100.49 69.48C96.9703 69.48 94.1703 68.312 92.0903 65.976C90.0103 63.64 88.9703 60.488 88.9703 56.52C88.9703 52.552 90.0103 49.4 92.0903 47.064C94.1703 44.728 96.9703 43.56 100.49 43.56C104.01 43.56 106.81 44.728 108.89 47.064C110.97 49.4 112.01 52.552 112.01 56.52C112.01 60.488 110.97 63.64 108.89 65.976ZM120.345 63.096H123.273L118.953 74.28H116.649L120.345 63.096ZM146.295 69V33.96H148.839V69H146.295ZM180.952 43.56C184.28 43.56 186.648 44.28 188.056 45.72C189.464 47.128 190.168 49.56 190.168 53.016V62.28C190.168 64.52 190.408 66.76 190.888 69H188.68C188.392 67.528 188.216 65.88 188.152 64.056H188.056C187.192 65.72 185.928 67.048 184.264 68.04C182.632 69 180.76 69.48 178.648 69.48C176.28 69.48 174.392 68.84 172.984 67.56C171.576 66.248 170.872 64.488 170.872 62.28C170.872 59.464 172.104 57.272 174.568 55.704C177.064 54.104 180.6 53.304 185.176 53.304H187.912V53.064C187.912 50.216 187.4 48.248 186.376 47.16C185.384 46.04 183.576 45.48 180.952 45.48C177.848 45.48 175.048 46.216 172.552 47.688L171.976 45.864C174.664 44.328 177.656 43.56 180.952 43.56ZM173.08 62.184C173.08 63.848 173.608 65.176 174.664 66.168C175.752 67.16 177.208 67.656 179.032 67.656C181.432 67.656 183.512 66.776 185.272 65.016C187.032 63.224 187.912 61 187.912 58.344V55.128H185.176C181.304 55.128 178.312 55.752 176.2 57C174.12 58.248 173.08 59.976 173.08 62.184ZM200.06 44.04L200.108 48.888H200.204C200.972 47.192 201.948 45.88 203.132 44.952C204.316 44.024 205.612 43.56 207.02 43.56C210.476 43.56 212.732 45.304 213.788 48.792H213.884C214.588 47.16 215.58 45.88 216.86 44.952C218.172 44.024 219.644 43.56 221.276 43.56C223.772 43.56 225.612 44.328 226.796 45.864C228.012 47.4 228.62 49.832 228.62 53.16V69H226.412V53.64C226.412 50.664 225.98 48.568 225.116 47.352C224.252 46.104 222.828 45.48 220.844 45.48C219.084 45.48 217.564 46.312 216.284 47.976C215.004 49.608 214.364 51.656 214.364 54.12V69H212.156V53.64C212.156 50.664 211.724 48.568 210.86 47.352C210.028 46.104 208.62 45.48 206.636 45.48C205.036 45.48 203.548 46.456 202.172 48.408C200.828 50.328 200.156 52.664 200.156 55.416V69H197.9V44.04H200.06ZM252.343 33.96V48.984H272.503V33.96H274.903V69H272.503V51H252.343V69H249.943V33.96H252.343ZM291.765 43.56C295.093 43.56 297.461 44.28 298.869 45.72C300.277 47.128 300.981 49.56 300.981 53.016V62.28C300.981 64.52 301.221 66.76 301.701 69H299.493C299.205 67.528 299.029 65.88 298.965 64.056H298.869C298.005 65.72 296.741 67.048 295.077 68.04C293.445 69 291.573 69.48 289.461 69.48C287.093 69.48 285.205 68.84 283.797 67.56C282.389 66.248 281.685 64.488 281.685 62.28C281.685 59.464 282.917 57.272 285.381 55.704C287.877 54.104 291.413 53.304 295.989 53.304H298.725V53.064C298.725 50.216 298.213 48.248 297.189 47.16C296.197 46.04 294.389 45.48 291.765 45.48C288.661 45.48 285.861 46.216 283.365 47.688L282.789 45.864C285.477 44.328 288.469 43.56 291.765 43.56ZM283.893 62.184C283.893 63.848 284.421 65.176 285.477 66.168C286.565 67.16 288.021 67.656 289.845 67.656C292.245 67.656 294.325 66.776 296.085 65.016C297.845 63.224 298.725 61 298.725 58.344V55.128H295.989C292.117 55.128 289.125 55.752 287.013 57C284.933 58.248 283.893 59.976 283.893 62.184ZM310.921 44.04V49.944H311.017C312.297 47.928 314.009 46.36 316.153 45.24C318.297 44.12 320.729 43.56 323.449 43.56V45.528C319.865 45.528 316.889 46.552 314.521 48.6C312.153 50.616 310.969 53.144 310.969 56.184V69H308.713V44.04H310.921ZM332.202 44.04V49.944H332.298C333.578 47.928 335.29 46.36 337.434 45.24C339.578 44.12 342.01 43.56 344.73 43.56V45.528C341.146 45.528 338.17 46.552 335.802 48.6C333.434 50.616 332.25 53.144 332.25 56.184V69H329.994V44.04H332.202ZM351.803 44.04L360.347 65.976H360.443L369.659 44.04H372.059L356.699 79.56H354.299L359.147 68.664L349.355 44.04H351.803ZM397.4 53.112V52.032H410.84V53.112H397.4ZM412.328 68.64C411.384 68.928 410.128 69.168 408.56 69.36C406.992 69.552 405.536 69.648 404.192 69.648C401.456 69.648 399.28 69.2 397.664 68.304C396.048 67.408 395.24 66.216 395.24 64.728C395.24 63.24 396.352 61.416 398.576 59.256L399.392 59.976C397.408 61.88 396.416 63.432 396.416 64.632C396.416 65.832 397.112 66.792 398.504 67.512C399.912 68.216 401.808 68.568 404.192 68.568C405.456 68.568 406.848 68.472 408.368 68.28C409.904 68.072 411.144 67.832 412.088 67.56L412.328 68.64ZM426.776 50.832C425.016 54.992 423.504 58.672 422.24 61.872L422.288 61.896C423.632 59.944 425.096 58.968 426.68 58.968C427.608 58.968 428.32 59.408 428.816 60.288C429.312 61.152 429.712 62.416 430.016 64.08C430.32 65.68 430.656 66.864 431.024 67.632C431.392 68.384 431.92 68.76 432.608 68.76C434.432 68.76 435.952 66.52 437.168 62.04L438.2 62.328C436.872 67.304 435 69.792 432.584 69.792C431.576 69.792 430.808 69.344 430.28 68.448C429.768 67.552 429.336 66.2 428.984 64.392C428.68 62.888 428.36 61.776 428.024 61.056C427.688 60.336 427.208 59.976 426.584 59.976C425.32 59.976 424.096 60.744 422.912 62.28C421.744 63.816 420.464 66.376 419.072 69.96L418.064 69.576C420.416 63.48 422.976 57.112 425.744 50.472L426.776 50.832ZM450.608 54V52.944H460.736V54H450.608ZM445.352 50.808C444.552 53.784 444.152 56.968 444.152 60.36C444.152 63.752 444.552 66.936 445.352 69.912L444.2 70.08C443.4 67.056 443 63.816 443 60.36C443 56.904 443.4 53.664 444.2 50.64L445.352 50.808ZM461.12 67.128L461.312 68.184C459.504 68.664 457.696 68.904 455.888 68.904C453.728 68.904 452.008 68.52 450.728 67.752C449.464 66.968 448.832 65.928 448.832 64.632C448.832 63.944 449.112 63.176 449.672 62.328C450.248 61.48 451.024 60.688 452 59.952L452.768 60.696C451.92 61.336 451.248 62.016 450.752 62.736C450.256 63.456 450.008 64.088 450.008 64.632C450.008 65.624 450.528 66.408 451.568 66.984C452.624 67.544 454.064 67.824 455.888 67.824C457.568 67.824 459.312 67.592 461.12 67.128ZM466.568 54.432V53.4H472.352C472.56 52.52 472.792 51.36 473.048 49.92L474.152 50.04C473.96 51.288 473.736 52.408 473.48 53.4H485.432V54.432H473.216C472.672 56.448 471.848 58.6 470.744 60.888L470.792 60.912C471.752 60.416 472.856 60 474.104 59.664C475.368 59.328 476.496 59.16 477.488 59.16C479.648 59.16 481.28 59.584 482.384 60.432C483.488 61.28 484.04 62.52 484.04 64.152C484.04 65.864 483.264 67.24 481.712 68.28C480.176 69.32 478.112 69.84 475.52 69.84C473.6 69.84 471.712 69.664 469.856 69.312L470.024 68.28C471.992 68.632 473.824 68.808 475.52 68.808C477.76 68.808 479.544 68.384 480.872 67.536C482.216 66.688 482.888 65.552 482.888 64.128C482.888 61.504 481.072 60.192 477.44 60.192C476.288 60.192 474.992 60.416 473.552 60.864C472.128 61.296 470.952 61.832 470.024 62.472L469.064 61.944C470.44 59.304 471.448 56.8 472.088 54.432H466.568ZM510.176 55.44H505.784V63.864C506.968 64.616 508.424 65.824 510.152 67.488L509.384 68.28C507.896 66.84 506.696 65.8 505.784 65.16V65.4C505.784 66.984 505.408 68.152 504.656 68.904C503.92 69.656 502.784 70.032 501.248 70.032C499.664 70.032 498.432 69.68 497.552 68.976C496.688 68.272 496.256 67.28 496.256 66C496.256 64.832 496.688 63.936 497.552 63.312C498.416 62.672 499.648 62.352 501.248 62.352C502.368 62.352 503.504 62.64 504.656 63.216V55.44H496.832V54.408H504.656V50.232H505.784V54.408H510.176V55.44ZM492.776 50.808C491.992 53.72 491.6 56.904 491.6 60.36C491.6 63.816 491.992 67 492.776 69.912L491.696 70.08C490.88 67.008 490.472 63.768 490.472 60.36C490.472 56.952 490.88 53.712 491.696 50.64L492.776 50.808ZM504.656 64.44C503.488 63.768 502.344 63.432 501.224 63.432C498.664 63.432 497.384 64.288 497.384 66C497.384 66.976 497.712 67.72 498.368 68.232C499.04 68.744 499.992 69 501.224 69C502.424 69 503.296 68.712 503.84 68.136C504.384 67.56 504.656 66.632 504.656 65.352V64.44ZM519.392 69.336L518.432 70.104C516.88 68.28 515.264 66.592 513.584 65.04L514.472 64.2C516.152 65.752 517.792 67.464 519.392 69.336ZM547.64 56.592V57.648H543.152C544.192 59.408 545.44 61.568 546.896 64.128L545.984 64.776C544.944 62.824 543.92 60.944 542.912 59.136V70.992H541.784V59.4C540.808 62.136 539.344 64.696 537.392 67.08L536.672 66.168C538.864 63.496 540.432 60.656 541.376 57.648H537.032V56.592H541.784V51.84C540.552 52.016 539.144 52.168 537.56 52.296L537.464 51.312C540.344 51.072 543.56 50.592 547.112 49.872L547.376 50.856C546.048 51.128 544.56 51.4 542.912 51.672V56.592H547.64ZM554.288 59.712L555.368 59.328C556.968 62.96 558.336 66.648 559.472 70.392L558.344 70.752C558.232 70.368 557.936 69.464 557.456 68.04C552.736 69.096 548.424 69.744 544.52 69.984L544.448 68.928C544.8 68.912 545.344 68.872 546.08 68.808C548.336 62.92 550.248 56.616 551.816 49.896L552.968 50.112C551.4 56.736 549.536 62.928 547.376 68.688C550.4 68.384 553.656 67.848 557.144 67.08C556.152 64.264 555.2 61.808 554.288 59.712ZM582.176 55.44H577.784V63.864C578.968 64.616 580.424 65.824 582.152 67.488L581.384 68.28C579.896 66.84 578.696 65.8 577.784 65.16V65.4C577.784 66.984 577.408 68.152 576.656 68.904C575.92 69.656 574.784 70.032 573.248 70.032C571.664 70.032 570.432 69.68 569.552 68.976C568.688 68.272 568.256 67.28 568.256 66C568.256 64.832 568.688 63.936 569.552 63.312C570.416 62.672 571.648 62.352 573.248 62.352C574.368 62.352 575.504 62.64 576.656 63.216V55.44H568.832V54.408H576.656V50.232H577.784V54.408H582.176V55.44ZM564.776 50.808C563.992 53.72 563.6 56.904 563.6 60.36C563.6 63.816 563.992 67 564.776 69.912L563.696 70.08C562.88 67.008 562.472 63.768 562.472 60.36C562.472 56.952 562.88 53.712 563.696 50.64L564.776 50.808ZM576.656 64.44C575.488 63.768 574.344 63.432 573.224 63.432C570.664 63.432 569.384 64.288 569.384 66C569.384 66.976 569.712 67.72 570.368 68.232C571.04 68.744 571.992 69 573.224 69C574.424 69 575.296 68.712 575.84 68.136C576.384 67.56 576.656 66.632 576.656 65.352V64.44ZM598.832 52.296L599.936 51.912C602.272 57.096 604.24 62.776 605.84 68.952L604.616 69.216C603.016 63.008 601.088 57.368 598.832 52.296ZM592.472 52.152C591.672 58.104 589.792 63.736 586.832 69.048L585.752 68.52C588.632 63.336 590.472 57.848 591.272 52.056L592.472 52.152ZM610.328 60.936V59.784H629.672V60.936H610.328ZM649.76 51.312H650.984V57.288C650.984 61.272 650.12 64.248 648.392 66.216C646.68 68.168 643.808 69.456 639.776 70.08L639.536 68.976C643.296 68.368 645.936 67.184 647.456 65.424C648.992 63.664 649.76 60.952 649.76 57.288V51.312ZM637.016 61.752V51.312H638.216V61.752H637.016ZM672.44 57.12L673.352 56.592C674.056 57.68 674.832 59.008 675.68 60.576L674.744 61.032C673.976 59.592 673.208 58.288 672.44 57.12ZM675.608 56.16L676.544 55.632C677.456 57.04 678.256 58.392 678.944 59.688L678.008 60.168C677.32 58.92 676.52 57.584 675.608 56.16ZM663.008 62.616C663.008 60.472 663.72 58.592 665.144 56.976C666.584 55.36 668.608 54.152 671.216 53.352V53.304C666.304 53.512 661.848 53.616 657.848 53.616V52.536C663.832 52.536 670.272 52.368 677.168 52.032L677.216 53.112C673.152 53.448 669.968 54.464 667.664 56.16C665.376 57.856 664.232 59.976 664.232 62.52C664.232 64.552 664.88 66.152 666.176 67.32C667.488 68.488 669.256 69.072 671.48 69.072C672.552 69.072 673.568 68.992 674.528 68.832L674.672 69.912C673.568 70.088 672.488 70.176 671.432 70.176C668.84 70.176 666.784 69.504 665.264 68.16C663.76 66.8 663.008 64.952 663.008 62.616ZM694.712 62.592C694.392 63.216 693.888 63.712 693.2 64.08C692.528 64.432 691.752 64.608 690.872 64.608C689.608 64.608 688.544 64.184 687.68 63.336C686.832 62.472 686.408 61.416 686.408 60.168C686.408 58.92 686.832 57.872 687.68 57.024C688.544 56.16 689.608 55.728 690.872 55.728C692.248 55.728 693.408 56.2 694.352 57.144L694.4 57.12V53.88H681.848V52.872H694.4V49.512H695.528V52.872H702.152V53.88H695.528V59.64C695.752 60.504 695.864 61.408 695.864 62.352C695.864 64.688 695.256 66.488 694.04 67.752C692.84 69.016 690.904 69.856 688.232 70.272L688.064 69.216C690.24 68.928 691.896 68.264 693.032 67.224C694.168 66.168 694.752 64.8 694.784 63.12C694.784 63.072 694.776 62.992 694.76 62.88C694.76 62.768 694.76 62.68 694.76 62.616L694.712 62.592ZM688.544 57.768C687.872 58.424 687.536 59.224 687.536 60.168C687.536 61.112 687.872 61.912 688.544 62.568C689.216 63.224 690.04 63.552 691.016 63.552C691.992 63.552 692.816 63.224 693.488 62.568C694.16 61.912 694.496 61.112 694.496 60.168C694.496 59.224 694.16 58.424 693.488 57.768C692.816 57.096 691.992 56.76 691.016 56.76C690.04 56.76 689.216 57.096 688.544 57.768ZM706.712 69.624C706.04 68.952 705.704 68.128 705.704 67.152C705.704 66.176 706.04 65.344 706.712 64.656C707.4 63.968 708.232 63.624 709.208 63.624C710.184 63.624 711.016 63.968 711.704 64.656C712.392 65.344 712.736 66.176 712.736 67.152C712.736 68.128 712.392 68.952 711.704 69.624C711.016 70.312 710.184 70.656 709.208 70.656C708.232 70.656 707.4 70.312 706.712 69.624ZM707.408 65.352C706.912 65.848 706.664 66.448 706.664 67.152C706.664 67.856 706.912 68.456 707.408 68.952C707.904 69.448 708.504 69.696 709.208 69.696C709.912 69.696 710.512 69.448 711.008 68.952C711.52 68.456 711.776 67.856 711.776 67.152C711.776 66.448 711.52 65.848 711.008 65.352C710.512 64.84 709.912 64.584 709.208 64.584C708.504 64.584 707.904 64.84 707.408 65.352Z" fill="black"/>
<path d="M11.808 134.152H8.856V135.808C8.856 136.128 8.912 136.32 9.024 136.384C9.136 136.448 9.504 136.48 10.128 136.48C10.752 136.48 11.128 136.392 11.256 136.216C11.4 136.04 11.488 135.48 11.52 134.536L12.6 134.608C12.552 135.84 12.392 136.616 12.12 136.936C11.864 137.24 11.224 137.392 10.2 137.392C9.128 137.392 8.448 137.32 8.16 137.176C7.888 137.032 7.752 136.68 7.752 136.12V134.152H5.88C5.592 136.232 4.144 137.752 1.536 138.712L1.2 137.728C3.28 136.944 4.48 135.752 4.8 134.152H1.368V133.168H6.192V131.248H2.352V130.288H6.192V128.368H7.344V130.288H11.28V131.248H7.344V133.168H11.808V134.152ZM11.64 138.76V139.72H7.344V142C9.168 141.76 10.688 141.536 11.904 141.328L12.024 142.288C9.256 142.8 5.752 143.256 1.512 143.656L1.416 142.648C3.24 142.472 4.832 142.304 6.192 142.144V139.72H2.256V138.76H6.192V136.624H7.344V138.76H11.64ZM12.936 135.664L13.56 134.752C14.056 135.12 14.656 135.608 15.36 136.216C15.504 135.336 15.576 134.192 15.576 132.784V132.04H12.12V131.008H15.576V128.368H16.68V131.008H20.928C20.928 134.096 21.008 136.568 21.168 138.424C21.328 140.28 21.472 141.4 21.6 141.784C21.744 142.168 21.872 142.36 21.984 142.36C22.032 142.36 22.088 142.248 22.152 142.024C22.232 141.8 22.32 141.376 22.416 140.752C22.528 140.128 22.616 139.376 22.68 138.496L23.568 138.832C23.36 142.112 22.768 143.752 21.792 143.752C21.664 143.752 21.544 143.736 21.432 143.704C21.336 143.656 21.216 143.552 21.072 143.392C20.928 143.216 20.8 142.984 20.688 142.696C20.592 142.392 20.488 141.952 20.376 141.376C20.264 140.784 20.168 140.088 20.088 139.288C20.008 138.472 19.944 137.448 19.896 136.216C19.848 134.984 19.816 133.592 19.8 132.04H16.68V132.904C16.68 134.376 16.552 135.792 16.296 137.152C17.288 138.176 18.336 139.4 19.44 140.824L18.672 141.64C17.776 140.44 16.888 139.368 16.008 138.424C15.32 140.808 13.992 142.776 12.024 144.328L11.256 143.464C13.224 141.976 14.504 139.984 15.096 137.488C14.344 136.752 13.624 136.144 12.936 135.664ZM1.488 149.152C2.752 147.808 3.912 146.32 4.968 144.688L5.904 145.216C4.848 146.896 3.672 148.424 2.376 149.8L1.488 149.152ZM9.36 149.776C9.184 148.4 8.88 146.864 8.448 145.168L9.552 144.976C9.984 146.624 10.296 148.176 10.488 149.632L9.36 149.776ZM15.408 149.776C14.784 148.208 14.08 146.688 13.296 145.216L14.328 144.856C15.24 146.584 15.968 148.12 16.512 149.464L15.408 149.776ZM21.6 149.752C20.608 148.296 19.448 146.792 18.12 145.24L19.008 144.616C20.208 146.008 21.376 147.528 22.512 149.176L21.6 149.752ZM40.752 147.712H47.016V148.768H32.808V147.712H39.576V139.288H33.816V138.232H39.576V131.008H33.192V129.952H46.776V131.008H40.752V138.232H45.984V139.288H40.752V147.712ZM29.136 148.552C29.68 148.552 30.136 148.088 30.504 147.16C30.872 146.232 31.056 144.768 31.056 142.768C31.056 141.456 30.976 140.24 30.816 139.12C29.296 140.816 27.576 142.176 25.656 143.2L25.176 142.216C27.304 141.064 29.112 139.608 30.6 137.848C30.28 136.2 29.808 134.672 29.184 133.264C28.016 134.288 26.848 135.128 25.68 135.784L25.176 134.8C26.44 134.048 27.616 133.192 28.704 132.232C28.256 131.352 27.72 130.456 27.096 129.544L28.104 129.016C28.712 129.896 29.208 130.704 29.592 131.44C30.552 130.512 31.392 129.544 32.112 128.536L32.952 129.184C32.136 130.32 31.176 131.408 30.072 132.448C31.48 135.504 32.184 138.944 32.184 142.768C32.184 147.328 31.232 149.608 29.328 149.608C28.48 149.608 27.392 149.448 26.064 149.128L26.136 148.096C27.4 148.4 28.4 148.552 29.136 148.552ZM51.024 140.032V146.536H56.424V140.032H51.024ZM51.024 139.024H56.424V132.808H51.024V139.024ZM67.944 149.392C66.792 149.392 65.208 149.32 63.192 149.176L63.168 148.096C64.8 148.24 66.264 148.312 67.56 148.312C67.832 148.312 68.048 148.136 68.208 147.784C68.384 147.416 68.544 146.68 68.688 145.576C68.848 144.456 68.984 142.84 69.096 140.728C69.208 138.6 69.312 135.808 69.408 132.352H61.224C60.36 134.624 59.328 136.536 58.128 138.088L57.528 137.584V147.568H51.024V149.44H49.872V131.776H52.584C53.16 130.672 53.632 129.536 54 128.368L55.104 128.584C54.752 129.736 54.328 130.8 53.832 131.776H57.528V137.032C59.32 134.52 60.576 131.608 61.296 128.296L62.424 128.464C62.216 129.392 61.952 130.336 61.632 131.296H70.584C70.488 135.536 70.376 138.848 70.248 141.232C70.12 143.6 69.944 145.4 69.72 146.632C69.496 147.864 69.256 148.632 69 148.936C68.76 149.24 68.408 149.392 67.944 149.392ZM61.152 136.528L62.136 135.928C63.496 137.864 64.712 139.984 65.784 142.288L64.776 142.768C63.704 140.512 62.496 138.432 61.152 136.528ZM94.296 133.768C92.664 133.496 90.888 133.344 88.968 133.312V142.744C90.568 143.528 92.368 144.696 94.368 146.248L93.672 147.064C91.96 145.752 90.392 144.704 88.968 143.92V144.088C88.968 145.848 88.592 147.088 87.84 147.808C87.088 148.528 85.8 148.888 83.976 148.888C82.456 148.888 81.264 148.552 80.4 147.88C79.552 147.192 79.128 146.248 79.128 145.048C79.128 143.896 79.544 143 80.376 142.36C81.224 141.72 82.424 141.4 83.976 141.4C85.176 141.4 86.464 141.68 87.84 142.24V132.232C90.32 132.232 92.52 132.392 94.44 132.712L94.296 133.768ZM73.848 133.288V132.232H78.432C78.864 130.936 79.248 129.68 79.584 128.464L80.64 128.656C80.336 129.728 79.976 130.92 79.56 132.232H84.36V133.288H79.224C77.912 137.224 76.296 141.312 74.376 145.552L73.368 145.144C75.224 141.08 76.8 137.128 78.096 133.288H73.848ZM87.84 143.344C86.496 142.736 85.208 142.432 83.976 142.432C81.496 142.432 80.256 143.304 80.256 145.048C80.256 145.944 80.576 146.64 81.216 147.136C81.872 147.632 82.792 147.88 83.976 147.88C85.464 147.88 86.48 147.616 87.024 147.088C87.568 146.544 87.84 145.544 87.84 144.088V143.344ZM99.096 141.352C99.096 145.24 100.76 147.184 104.088 147.184C107.416 147.184 109.08 145.24 109.08 141.352V130.48H110.28V141.328C110.28 143.568 109.744 145.28 108.672 146.464C107.6 147.648 106.064 148.24 104.064 148.24C102.064 148.24 100.528 147.656 99.456 146.488C98.4 145.304 97.872 143.584 97.872 141.328V130.48H99.096V141.352ZM114.461 130.48L119.429 138.256H119.477L124.421 130.48H125.789L120.173 139.144L125.909 148H124.493L119.429 140.032H119.381L114.341 148H112.949L118.685 139.144L113.069 130.48H114.461ZM144.527 128.584L145.391 128.104C145.935 128.952 146.639 130.152 147.503 131.704L146.639 132.16C145.967 130.912 145.263 129.72 144.527 128.584ZM147.599 128.152L148.463 127.672C149.327 129.064 150.047 130.288 150.623 131.344L149.759 131.8C149.055 130.52 148.335 129.304 147.599 128.152ZM131.543 132.088V131.008H144.503V132.088H131.543ZM128.855 137.488H148.775V138.568H140.327C140.311 141.56 139.711 143.864 138.527 145.48C137.343 147.096 135.391 148.304 132.671 149.104L132.335 148.048C134.815 147.296 136.559 146.216 137.567 144.808C138.575 143.384 139.095 141.304 139.127 138.568H128.855V137.488ZM168.839 128.488L169.751 128.104C170.327 129.112 170.959 130.344 171.647 131.8L170.735 132.136C170.287 131.16 169.655 129.944 168.839 128.488ZM171.767 128.032L172.679 127.672C173.463 129.08 174.111 130.336 174.623 131.44L173.711 131.8C173.023 130.376 172.375 129.12 171.767 128.032ZM152.207 134.128H156.527V129.688H157.679V134.128H167.039V129.688H168.215V134.128H172.943V135.208H168.215V136.792C168.215 140.872 167.399 143.808 165.767 145.6C164.151 147.392 161.295 148.488 157.199 148.888L157.007 147.808C158.959 147.6 160.559 147.272 161.807 146.824C163.055 146.376 164.079 145.712 164.879 144.832C165.679 143.952 166.239 142.88 166.559 141.616C166.879 140.336 167.039 138.728 167.039 136.792V135.208H157.679V140.92H156.527V135.208H152.207V134.128ZM177.527 139.312C180.999 138.816 184.383 137.744 187.679 136.096C190.975 134.432 193.607 132.472 195.575 130.216L196.343 131.008C194.503 133.104 192.079 134.968 189.071 136.6V149.008H187.847V137.224C184.535 138.856 181.151 139.912 177.695 140.392L177.527 139.312ZM201.143 134.32H211.367V129.232H212.567V134.32H220.967V135.448H212.567V136.12C212.567 140.056 211.935 142.936 210.671 144.76C209.423 146.584 207.175 147.872 203.927 148.624L203.567 147.544C206.543 146.84 208.583 145.672 209.687 144.04C210.807 142.408 211.367 139.768 211.367 136.12V135.448H201.143V134.32ZM225.383 139.936V138.784H244.727V139.936H225.383ZM272.879 148L285.983 112.96H288.863L302.015 148H299.423L295.391 136.912H279.407L275.375 148H272.879ZM280.175 134.896H294.671L287.471 115.072H287.375L280.175 134.896ZM318.028 124.528C315.916 124.528 314.012 125.536 312.316 127.552C310.652 129.568 309.82 131.952 309.82 134.704V148H307.564V123.04H309.724L309.772 128.32H309.868C310.732 126.56 311.932 125.168 313.468 124.144C315.036 123.088 316.748 122.56 318.604 122.56C321.516 122.56 323.66 123.408 325.036 125.104C326.412 126.8 327.1 129.52 327.1 133.264V148H324.892V133.456C324.892 130.192 324.364 127.888 323.308 126.544C322.284 125.2 320.524 124.528 318.028 124.528ZM348.5 136.336C348.532 139.536 349.412 142.048 351.14 143.872C352.9 145.696 355.236 146.608 358.148 146.608C360.804 146.608 363.316 145.936 365.684 144.592L366.404 146.368C363.812 147.776 361.012 148.48 358.004 148.48C354.42 148.48 351.556 147.328 349.412 145.024C347.3 142.688 346.244 139.52 346.244 135.52C346.244 131.488 347.252 128.32 349.268 126.016C351.284 123.712 354.036 122.56 357.524 122.56C360.852 122.56 363.428 123.664 365.252 125.872C367.076 128.08 367.988 131.216 367.988 135.28V136.336H348.5ZM348.548 134.416H365.78C365.716 131.184 364.964 128.72 363.524 127.024C362.116 125.296 360.116 124.432 357.524 124.432C354.772 124.432 352.612 125.312 351.044 127.072C349.476 128.8 348.644 131.248 348.548 134.416ZM384.497 124.528C382.385 124.528 380.481 125.536 378.785 127.552C377.121 129.568 376.289 131.952 376.289 134.704V148H374.033V123.04H376.193L376.241 128.32H376.337C377.201 126.56 378.401 125.168 379.937 124.144C381.505 123.088 383.217 122.56 385.073 122.56C387.985 122.56 390.129 123.408 391.505 125.104C392.881 126.8 393.569 129.52 393.569 133.264V148H391.361V133.456C391.361 130.192 390.833 127.888 389.777 126.544C388.753 125.2 386.993 124.528 384.497 124.528ZM406.677 114.88V124H416.565V125.92H406.677V140.656C406.677 143.056 407.029 144.64 407.733 145.408C408.437 146.176 409.733 146.56 411.621 146.56C413.125 146.56 414.485 146.32 415.701 145.84L416.181 147.664C414.645 148.208 413.045 148.48 411.381 148.48C408.789 148.48 406.981 147.936 405.957 146.848C404.933 145.728 404.421 143.76 404.421 140.944V125.92H398.661V124H404.421V114.88H406.677ZM426.545 112V128.272H426.641C427.569 126.512 428.785 125.12 430.289 124.096C431.825 123.072 433.505 122.56 435.329 122.56C438.241 122.56 440.385 123.408 441.761 125.104C443.137 126.8 443.825 129.52 443.825 133.264V148H441.617V133.456C441.617 130.192 441.089 127.888 440.033 126.544C439.009 125.2 437.249 124.528 434.753 124.528C432.641 124.528 430.737 125.536 429.041 127.552C427.377 129.568 426.545 131.952 426.545 134.704V148H424.289V112H426.545ZM453.064 123.04V138.736C453.064 141.584 453.544 143.6 454.504 144.784C455.464 145.936 457.096 146.512 459.4 146.512C461.448 146.512 463.336 145.52 465.064 143.536C466.792 141.52 467.656 139.12 467.656 136.336V123.04H469.912V148H467.752L467.704 142.72H467.608C466.744 144.48 465.528 145.888 463.96 146.944C462.424 147.968 460.728 148.48 458.872 148.48C456.088 148.48 454.056 147.728 452.776 146.224C451.496 144.72 450.856 142.272 450.856 138.88V123.04H453.064ZM485.216 122.56C488.128 122.56 490.912 123.2 493.568 124.48L492.944 126.352C490.448 125.104 487.872 124.48 485.216 124.48C483.168 124.48 481.568 124.896 480.416 125.728C479.264 126.528 478.688 127.632 478.688 129.04C478.688 130.32 479.152 131.36 480.08 132.16C481.04 132.96 482.8 133.6 485.36 134.08C488.528 134.656 490.816 135.552 492.224 136.768C493.632 137.952 494.336 139.568 494.336 141.616C494.336 143.728 493.52 145.408 491.888 146.656C490.288 147.872 488.064 148.48 485.216 148.48C482.08 148.48 479.152 147.68 476.432 146.08L477.104 144.256C479.632 145.792 482.336 146.56 485.216 146.56C487.36 146.56 489.04 146.128 490.256 145.264C491.472 144.368 492.08 143.152 492.08 141.616C492.08 140.144 491.536 138.992 490.448 138.16C489.392 137.296 487.6 136.624 485.072 136.144C482 135.6 479.792 134.768 478.448 133.648C477.104 132.528 476.432 130.992 476.432 129.04C476.432 127.088 477.216 125.52 478.784 124.336C480.352 123.152 482.496 122.56 485.216 122.56ZM503.037 117.28V112H505.389V117.28H503.037ZM503.037 148V123.04H505.389V148H503.037ZM523.913 122.56C527.241 122.56 529.609 123.28 531.017 124.72C532.425 126.128 533.129 128.56 533.129 132.016V141.28C533.129 143.52 533.369 145.76 533.849 148H531.641C531.353 146.528 531.177 144.88 531.113 143.056H531.017C530.153 144.72 528.889 146.048 527.225 147.04C525.593 148 523.721 148.48 521.609 148.48C519.241 148.48 517.353 147.84 515.945 146.56C514.537 145.248 513.833 143.488 513.833 141.28C513.833 138.464 515.065 136.272 517.529 134.704C520.025 133.104 523.561 132.304 528.137 132.304H530.873V132.064C530.873 129.216 530.361 127.248 529.337 126.16C528.345 125.04 526.537 124.48 523.913 124.48C520.809 124.48 518.009 125.216 515.513 126.688L514.937 124.864C517.625 123.328 520.617 122.56 523.913 122.56ZM516.041 141.184C516.041 142.848 516.569 144.176 517.625 145.168C518.713 146.16 520.169 146.656 521.993 146.656C524.393 146.656 526.473 145.776 528.233 144.016C529.993 142.224 530.873 140 530.873 137.344V134.128H528.137C524.265 134.128 521.273 134.752 519.161 136C517.081 137.248 516.041 138.976 516.041 141.184ZM548.216 122.56C551.128 122.56 553.912 123.2 556.568 124.48L555.944 126.352C553.448 125.104 550.872 124.48 548.216 124.48C546.168 124.48 544.568 124.896 543.416 125.728C542.264 126.528 541.688 127.632 541.688 129.04C541.688 130.32 542.152 131.36 543.08 132.16C544.04 132.96 545.8 133.6 548.36 134.08C551.528 134.656 553.816 135.552 555.224 136.768C556.632 137.952 557.336 139.568 557.336 141.616C557.336 143.728 556.52 145.408 554.888 146.656C553.288 147.872 551.064 148.48 548.216 148.48C545.08 148.48 542.152 147.68 539.432 146.08L540.104 144.256C542.632 145.792 545.336 146.56 548.216 146.56C550.36 146.56 552.04 146.128 553.256 145.264C554.472 144.368 555.08 143.152 555.08 141.616C555.08 140.144 554.536 138.992 553.448 138.16C552.392 137.296 550.6 136.624 548.072 136.144C545 135.6 542.792 134.768 541.448 133.648C540.104 132.528 539.432 130.992 539.432 129.04C539.432 127.088 540.216 125.52 541.784 124.336C543.352 123.152 545.496 122.56 548.216 122.56ZM569.755 114.88V124H579.643V125.92H569.755V140.656C569.755 143.056 570.107 144.64 570.811 145.408C571.515 146.176 572.811 146.56 574.699 146.56C576.203 146.56 577.563 146.32 578.779 145.84L579.259 147.664C577.723 148.208 576.123 148.48 574.459 148.48C571.867 148.48 570.059 147.936 569.035 146.848C568.011 145.728 567.499 143.76 567.499 140.944V125.92H561.739V124H567.499V114.88H569.755ZM589.287 117.28V112H591.639V117.28H589.287ZM589.287 148V123.04H591.639V148H589.287ZM611.939 124.528C608.803 124.528 606.339 125.504 604.547 127.456C602.787 129.376 601.907 132.064 601.907 135.52C601.907 138.848 602.835 141.52 604.691 143.536C606.547 145.552 608.963 146.56 611.939 146.56C614.147 146.56 616.259 146.032 618.275 144.976L618.947 146.8C616.707 147.92 614.339 148.48 611.843 148.48C608.195 148.48 605.235 147.296 602.963 144.928C600.723 142.56 599.603 139.424 599.603 135.52C599.603 131.488 600.691 128.32 602.867 126.016C605.043 123.712 608.035 122.56 611.843 122.56C614.339 122.56 616.707 123.12 618.947 124.24L618.275 126.112C616.259 125.056 614.147 124.528 611.939 124.528ZM641.981 134.704C641.981 142.48 645.309 146.368 651.965 146.368C658.621 146.368 661.949 142.48 661.949 134.704V112.96H664.349V134.656C664.349 139.136 663.277 142.56 661.133 144.928C658.989 147.296 655.917 148.48 651.917 148.48C647.917 148.48 644.845 147.312 642.701 144.976C640.589 142.608 639.533 139.168 639.533 134.656V112.96H641.981V134.704ZM672.711 112.96L682.647 128.512H682.743L692.631 112.96H695.367L684.135 130.288L695.607 148H692.775L682.647 132.064H682.551L672.471 148H669.687L681.159 130.288L669.927 112.96H672.711ZM723.54 114.544C721.844 114.544 720.036 114.736 718.116 115.12V145.84C720.036 146.224 721.844 146.416 723.54 146.416C728.756 146.416 732.708 145.024 735.396 142.24C738.116 139.456 739.476 135.376 739.476 130C739.476 124.944 738.116 121.104 735.396 118.48C732.708 115.856 728.756 114.544 723.54 114.544ZM741.78 130C741.78 136.016 740.212 140.608 737.076 143.776C733.94 146.912 729.428 148.48 723.54 148.48C720.692 148.48 718.084 148.224 715.716 147.712V113.248C718.148 112.736 720.756 112.48 723.54 112.48C729.428 112.48 733.94 114 737.076 117.04C740.212 120.048 741.78 124.368 741.78 130ZM748.156 136.336C748.188 139.536 749.068 142.048 750.796 143.872C752.556 145.696 754.892 146.608 757.804 146.608C760.46 146.608 762.972 145.936 765.34 144.592L766.06 146.368C763.468 147.776 760.668 148.48 757.66 148.48C754.076 148.48 751.212 147.328 749.068 145.024C746.956 142.688 745.9 139.52 745.9 135.52C745.9 131.488 746.908 128.32 748.924 126.016C750.94 123.712 753.692 122.56 757.18 122.56C760.508 122.56 763.084 123.664 764.908 125.872C766.732 128.08 767.644 131.216 767.644 135.28V136.336H748.156ZM748.204 134.416H765.436C765.372 131.184 764.62 128.72 763.18 127.024C761.772 125.296 759.772 124.432 757.18 124.432C754.428 124.432 752.268 125.312 750.7 127.072C749.132 128.8 748.3 131.248 748.204 134.416ZM781.513 122.56C784.425 122.56 787.209 123.2 789.865 124.48L789.241 126.352C786.745 125.104 784.169 124.48 781.513 124.48C779.465 124.48 777.865 124.896 776.713 125.728C775.561 126.528 774.985 127.632 774.985 129.04C774.985 130.32 775.449 131.36 776.377 132.16C777.337 132.96 779.097 133.6 781.657 134.08C784.825 134.656 787.113 135.552 788.521 136.768C789.929 137.952 790.633 139.568 790.633 141.616C790.633 143.728 789.817 145.408 788.185 146.656C786.585 147.872 784.361 148.48 781.513 148.48C778.377 148.48 775.449 147.68 772.729 146.08L773.401 144.256C775.929 145.792 778.633 146.56 781.513 146.56C783.657 146.56 785.337 146.128 786.553 145.264C787.769 144.368 788.377 143.152 788.377 141.616C788.377 140.144 787.833 138.992 786.745 138.16C785.689 137.296 783.897 136.624 781.369 136.144C778.297 135.6 776.089 134.768 774.745 133.648C773.401 132.528 772.729 130.992 772.729 129.04C772.729 127.088 773.513 125.52 775.081 124.336C776.649 123.152 778.793 122.56 781.513 122.56ZM799.334 117.28V112H801.686V117.28H799.334ZM799.334 148V123.04H801.686V148H799.334ZM820.306 145.6C822.674 145.6 824.642 144.672 826.21 142.816C827.81 140.96 828.61 138.448 828.61 135.28V134.8C828.61 131.664 827.81 129.168 826.21 127.312C824.642 125.424 822.674 124.48 820.306 124.48C817.746 124.48 815.73 125.408 814.258 127.264C812.818 129.12 812.098 131.712 812.098 135.04C812.098 138.304 812.834 140.88 814.306 142.768C815.81 144.656 817.81 145.6 820.306 145.6ZM809.89 135.04C809.89 131.072 810.77 128 812.53 125.824C814.29 123.648 816.738 122.56 819.874 122.56C823.97 122.56 826.866 124.32 828.562 127.84H828.658L828.706 123.04H830.866V146.224C830.866 154.768 827.154 159.04 819.73 159.04C817.01 159.04 814.482 158.512 812.146 157.456L812.722 155.584C814.994 156.608 817.33 157.12 819.73 157.12C822.738 157.12 824.962 156.24 826.402 154.48C827.874 152.752 828.61 150.032 828.61 146.32V142.336H828.514C826.85 145.792 823.97 147.52 819.874 147.52C816.866 147.52 814.45 146.4 812.626 144.16C810.802 141.92 809.89 138.88 809.89 135.04ZM848.841 124.528C846.729 124.528 844.825 125.536 843.129 127.552C841.465 129.568 840.633 131.952 840.633 134.704V148H838.377V123.04H840.537L840.585 128.32H840.681C841.545 126.56 842.745 125.168 844.281 124.144C845.849 123.088 847.561 122.56 849.417 122.56C852.329 122.56 854.473 123.408 855.849 125.104C857.225 126.8 857.913 129.52 857.913 133.264V148H855.705V133.456C855.705 130.192 855.177 127.888 854.121 126.544C853.097 125.2 851.337 124.528 848.841 124.528ZM865.718 136.336C865.75 139.536 866.63 142.048 868.358 143.872C870.118 145.696 872.454 146.608 875.366 146.608C878.022 146.608 880.534 145.936 882.902 144.592L883.622 146.368C881.03 147.776 878.23 148.48 875.222 148.48C871.638 148.48 868.774 147.328 866.63 145.024C864.518 142.688 863.462 139.52 863.462 135.52C863.462 131.488 864.47 128.32 866.486 126.016C868.502 123.712 871.254 122.56 874.742 122.56C878.07 122.56 880.646 123.664 882.47 125.872C884.294 128.08 885.206 131.216 885.206 135.28V136.336H865.718ZM865.766 134.416H882.998C882.934 131.184 882.182 128.72 880.742 127.024C879.334 125.296 877.334 124.432 874.742 124.432C871.99 124.432 869.83 125.312 868.262 127.072C866.694 128.8 865.862 131.248 865.766 134.416ZM893.46 123.04V128.944H893.556C894.836 126.928 896.548 125.36 898.692 124.24C900.836 123.12 903.268 122.56 905.988 122.56V124.528C902.404 124.528 899.428 125.552 897.06 127.6C894.692 129.616 893.508 132.144 893.508 135.184V148H891.252V123.04H893.46Z" fill="black"/>
</svg>
