<svg width="851" height="168" viewBox="0 0 851 168" fill="none" xmlns="http://www.w3.org/2000/svg">
<path d="M10.8 20.224V18.064H37.68V20.224H10.8ZM40.656 51.28C38.768 51.856 36.256 52.336 33.12 52.72C29.984 53.104 27.072 53.296 24.384 53.296C18.912 53.296 14.56 52.4 11.328 50.608C8.096 48.816 6.48 46.432 6.48 43.456C6.48 40.48 8.704 36.832 13.152 32.512L14.784 33.952C10.816 37.76 8.832 40.864 8.832 43.264C8.832 45.664 10.224 47.584 13.008 49.024C15.824 50.432 19.616 51.136 24.384 51.136C26.912 51.136 29.696 50.944 32.736 50.56C35.808 50.144 38.288 49.664 40.176 49.12L40.656 51.28ZM69.552 15.664C66.032 23.984 63.008 31.344 60.48 37.744L60.576 37.792C63.264 33.888 66.192 31.936 69.36 31.936C71.216 31.936 72.64 32.816 73.632 34.576C74.624 36.304 75.424 38.832 76.032 42.16C76.64 45.36 77.312 47.728 78.048 49.264C78.784 50.768 79.84 51.52 81.216 51.52C84.864 51.52 87.904 47.04 90.336 38.08L92.4 38.656C89.744 48.608 86 53.584 81.168 53.584C79.152 53.584 77.616 52.688 76.56 50.896C75.536 49.104 74.672 46.4 73.968 42.784C73.36 39.776 72.72 37.552 72.048 36.112C71.376 34.672 70.416 33.952 69.168 33.952C66.64 33.952 64.192 35.488 61.824 38.56C59.488 41.632 56.928 46.752 54.144 53.92L52.128 53.152C56.832 40.96 61.952 28.224 67.488 14.944L69.552 15.664ZM117.216 22V19.888H137.472V22H117.216ZM106.704 15.616C105.104 21.568 104.304 27.936 104.304 34.72C104.304 41.504 105.104 47.872 106.704 53.824L104.4 54.16C102.8 48.112 102 41.632 102 34.72C102 27.808 102.8 21.328 104.4 15.28L106.704 15.616ZM138.24 48.256L138.624 50.368C135.008 51.328 131.392 51.808 127.776 51.808C123.456 51.808 120.016 51.04 117.456 49.504C114.928 47.936 113.664 45.856 113.664 43.264C113.664 41.888 114.224 40.352 115.344 38.656C116.496 36.96 118.048 35.376 120 33.904L121.536 35.392C119.84 36.672 118.496 38.032 117.504 39.472C116.512 40.912 116.016 42.176 116.016 43.264C116.016 45.248 117.056 46.816 119.136 47.968C121.248 49.088 124.128 49.648 127.776 49.648C131.136 49.648 134.624 49.184 138.24 48.256ZM149.136 22.864V20.8H160.704C161.12 19.04 161.584 16.72 162.096 13.84L164.304 14.08C163.92 16.576 163.472 18.816 162.96 20.8H186.864V22.864H162.432C161.344 26.896 159.696 31.2 157.488 35.776L157.584 35.824C159.504 34.832 161.712 34 164.208 33.328C166.736 32.656 168.992 32.32 170.976 32.32C175.296 32.32 178.56 33.168 180.768 34.864C182.976 36.56 184.08 39.04 184.08 42.304C184.08 45.728 182.528 48.48 179.424 50.56C176.352 52.64 172.224 53.68 167.04 53.68C163.2 53.68 159.424 53.328 155.712 52.624L156.048 50.56C159.984 51.264 163.648 51.616 167.04 51.616C171.52 51.616 175.088 50.768 177.744 49.072C180.432 47.376 181.776 45.104 181.776 42.256C181.776 37.008 178.144 34.384 170.88 34.384C168.576 34.384 165.984 34.832 163.104 35.728C160.256 36.592 157.904 37.664 156.048 38.944L154.128 37.888C156.88 32.608 158.896 27.6 160.176 22.864H149.136ZM236.352 24.88H227.568V41.728C229.936 43.232 232.848 45.648 236.304 48.976L234.768 50.56C231.792 47.68 229.392 45.6 227.568 44.32V44.8C227.568 47.968 226.816 50.304 225.312 51.808C223.84 53.312 221.568 54.064 218.496 54.064C215.328 54.064 212.864 53.36 211.104 51.952C209.376 50.544 208.512 48.56 208.512 46C208.512 43.664 209.376 41.872 211.104 40.624C212.832 39.344 215.296 38.704 218.496 38.704C220.736 38.704 223.008 39.28 225.312 40.432V24.88H209.664V22.816H225.312V14.464H227.568V22.816H236.352V24.88ZM201.552 15.616C199.984 21.44 199.2 27.808 199.2 34.72C199.2 41.632 199.984 48 201.552 53.824L199.392 54.16C197.76 48.016 196.944 41.536 196.944 34.72C196.944 27.904 197.76 21.424 199.392 15.28L201.552 15.616ZM225.312 42.88C222.976 41.536 220.688 40.864 218.448 40.864C213.328 40.864 210.768 42.576 210.768 46C210.768 47.952 211.424 49.44 212.736 50.464C214.08 51.488 215.984 52 218.448 52C220.848 52 222.592 51.424 223.68 50.272C224.768 49.12 225.312 47.264 225.312 44.704V42.88ZM254.784 52.672L252.864 54.208C249.76 50.56 246.528 47.184 243.168 44.08L244.944 42.4C248.304 45.504 251.584 48.928 254.784 52.672ZM311.28 27.184V29.296H302.304C304.384 32.816 306.88 37.136 309.792 42.256L307.968 43.552C305.888 39.648 303.84 35.888 301.824 32.272V55.984H299.568V32.8C297.616 38.272 294.688 43.392 290.784 48.16L289.344 46.336C293.728 40.992 296.864 35.312 298.752 29.296H290.064V27.184H299.568V17.68C297.104 18.032 294.288 18.336 291.12 18.592L290.928 16.624C296.688 16.144 303.12 15.184 310.224 13.744L310.752 15.712C308.096 16.256 305.12 16.8 301.824 17.344V27.184H311.28ZM324.576 33.424L326.736 32.656C329.936 39.92 332.672 47.296 334.944 54.784L332.688 55.504C332.464 54.736 331.872 52.928 330.912 50.08C321.472 52.192 312.848 53.488 305.04 53.968L304.896 51.856C305.6 51.824 306.688 51.744 308.16 51.616C312.672 39.84 316.496 27.232 319.632 13.792L321.936 14.224C318.8 27.472 315.072 39.856 310.752 51.376C316.8 50.768 323.312 49.696 330.288 48.16C328.304 42.528 326.4 37.616 324.576 33.424ZM380.352 24.88H371.568V41.728C373.936 43.232 376.848 45.648 380.304 48.976L378.768 50.56C375.792 47.68 373.392 45.6 371.568 44.32V44.8C371.568 47.968 370.816 50.304 369.312 51.808C367.84 53.312 365.568 54.064 362.496 54.064C359.328 54.064 356.864 53.36 355.104 51.952C353.376 50.544 352.512 48.56 352.512 46C352.512 43.664 353.376 41.872 355.104 40.624C356.832 39.344 359.296 38.704 362.496 38.704C364.736 38.704 367.008 39.28 369.312 40.432V24.88H353.664V22.816H369.312V14.464H371.568V22.816H380.352V24.88ZM345.552 15.616C343.984 21.44 343.2 27.808 343.2 34.72C343.2 41.632 343.984 48 345.552 53.824L343.392 54.16C341.76 48.016 340.944 41.536 340.944 34.72C340.944 27.904 341.76 21.424 343.392 15.28L345.552 15.616ZM369.312 42.88C366.976 41.536 364.688 40.864 362.448 40.864C357.328 40.864 354.768 42.576 354.768 46C354.768 47.952 355.424 49.44 356.736 50.464C358.08 51.488 359.984 52 362.448 52C364.848 52 366.592 51.424 367.68 50.272C368.768 49.12 369.312 47.264 369.312 44.704V42.88ZM413.664 18.592L415.872 17.824C420.544 28.192 424.48 39.552 427.68 51.904L425.232 52.432C422.032 40.016 418.176 28.736 413.664 18.592ZM400.944 18.304C399.344 30.208 395.584 41.472 389.664 52.096L387.504 51.04C393.264 40.672 396.944 29.696 398.544 18.112L400.944 18.304ZM436.656 35.872V33.568H475.344V35.872H436.656ZM515.52 16.624H517.968V28.576C517.968 36.544 516.24 42.496 512.784 46.432C509.36 50.336 503.616 52.912 495.552 54.16L495.072 51.952C502.592 50.736 507.872 48.368 510.912 44.848C513.984 41.328 515.52 35.904 515.52 28.576V16.624ZM490.032 37.504V16.624H492.432V37.504H490.032ZM560.88 28.24L562.704 27.184C564.112 29.36 565.664 32.016 567.36 35.152L565.488 36.064C563.952 33.184 562.416 30.576 560.88 28.24ZM567.216 26.32L569.088 25.264C570.912 28.08 572.512 30.784 573.888 33.376L572.016 34.336C570.64 31.84 569.04 29.168 567.216 26.32ZM542.016 39.232C542.016 34.944 543.44 31.184 546.288 27.952C549.168 24.72 553.216 22.304 558.432 20.704V20.608C548.608 21.024 539.696 21.232 531.696 21.232V19.072C543.664 19.072 556.544 18.736 570.336 18.064L570.432 20.224C562.304 20.896 555.936 22.928 551.328 26.32C546.752 29.712 544.464 33.952 544.464 39.04C544.464 43.104 545.76 46.304 548.352 48.64C550.976 50.976 554.512 52.144 558.96 52.144C561.104 52.144 563.136 51.984 565.056 51.664L565.344 53.824C563.136 54.176 560.976 54.352 558.864 54.352C553.68 54.352 549.568 53.008 546.528 50.32C543.52 47.6 542.016 43.904 542.016 39.232ZM605.424 39.184C604.784 40.432 603.776 41.424 602.4 42.16C601.056 42.864 599.504 43.216 597.744 43.216C595.216 43.216 593.088 42.368 591.36 40.672C589.664 38.944 588.816 36.832 588.816 34.336C588.816 31.84 589.664 29.744 591.36 28.048C593.088 26.32 595.216 25.456 597.744 25.456C600.496 25.456 602.816 26.4 604.704 28.288L604.8 28.24V21.76H579.696V19.744H604.8V13.024H607.056V19.744H620.304V21.76H607.056V33.28C607.504 35.008 607.728 36.816 607.728 38.704C607.728 43.376 606.512 46.976 604.08 49.504C601.68 52.032 597.808 53.712 592.464 54.544L592.128 52.432C596.48 51.856 599.792 50.528 602.064 48.448C604.336 46.336 605.504 43.6 605.568 40.24C605.568 40.144 605.552 39.984 605.52 39.76C605.52 39.536 605.52 39.36 605.52 39.232L605.424 39.184ZM593.088 29.536C591.744 30.848 591.072 32.448 591.072 34.336C591.072 36.224 591.744 37.824 593.088 39.136C594.432 40.448 596.08 41.104 598.032 41.104C599.984 41.104 601.632 40.448 602.976 39.136C604.32 37.824 604.992 36.224 604.992 34.336C604.992 32.448 604.32 30.848 602.976 29.536C601.632 28.192 599.984 27.52 598.032 27.52C596.08 27.52 594.432 28.192 593.088 29.536ZM640.906 34.48V41.992H650.986V34.48H652.186V52H650.986V43H640.906V52H639.706V34.48H640.906ZM656.465 46.168C656.481 47.768 656.921 49.024 657.785 49.936C658.665 50.848 659.833 51.304 661.289 51.304C662.617 51.304 663.873 50.968 665.057 50.296L665.417 51.184C664.121 51.888 662.721 52.24 661.217 52.24C659.425 52.24 657.993 51.664 656.921 50.512C655.865 49.344 655.337 47.76 655.337 45.76C655.337 43.744 655.841 42.16 656.849 41.008C657.857 39.856 659.233 39.28 660.977 39.28C662.641 39.28 663.929 39.832 664.841 40.936C665.753 42.04 666.209 43.608 666.209 45.64V46.168H656.465ZM656.489 45.208H665.105C665.073 43.592 664.697 42.36 663.977 41.512C663.273 40.648 662.273 40.216 660.977 40.216C659.601 40.216 658.521 40.656 657.737 41.536C656.953 42.4 656.537 43.624 656.489 45.208ZM670.311 52V34H671.487V52H670.311ZM676.921 52V34H678.097V52H676.921ZM691.223 41.728C690.391 40.736 689.263 40.24 687.839 40.24C686.415 40.24 685.287 40.736 684.455 41.728C683.623 42.704 683.207 44.048 683.207 45.76C683.207 47.472 683.623 48.824 684.455 49.816C685.287 50.792 686.415 51.28 687.839 51.28C689.263 51.28 690.391 50.792 691.223 49.816C692.055 48.824 692.471 47.472 692.471 45.76C692.471 44.048 692.055 42.704 691.223 41.728ZM692.039 50.488C690.999 51.656 689.599 52.24 687.839 52.24C686.079 52.24 684.679 51.656 683.639 50.488C682.599 49.32 682.079 47.744 682.079 45.76C682.079 43.776 682.599 42.2 683.639 41.032C684.679 39.864 686.079 39.28 687.839 39.28C689.599 39.28 690.999 39.864 692.039 41.032C693.079 42.2 693.599 43.776 693.599 45.76C693.599 47.744 693.079 49.32 692.039 50.488ZM697.766 49.048H699.23L697.07 54.64H695.918L697.766 49.048ZM710.741 52V34.48H712.013V52H710.741ZM728.07 39.28C729.734 39.28 730.918 39.64 731.622 40.36C732.326 41.064 732.678 42.28 732.678 44.008V48.64C732.678 49.76 732.798 50.88 733.038 52H731.934C731.79 51.264 731.702 50.44 731.67 49.528H731.622C731.19 50.36 730.558 51.024 729.726 51.52C728.91 52 727.974 52.24 726.918 52.24C725.734 52.24 724.79 51.92 724.086 51.28C723.382 50.624 723.03 49.744 723.03 48.64C723.03 47.232 723.646 46.136 724.878 45.352C726.126 44.552 727.894 44.152 730.182 44.152H731.55V44.032C731.55 42.608 731.294 41.624 730.782 41.08C730.286 40.52 729.382 40.24 728.07 40.24C726.518 40.24 725.118 40.608 723.87 41.344L723.582 40.432C724.926 39.664 726.422 39.28 728.07 39.28ZM724.134 48.592C724.134 49.424 724.398 50.088 724.926 50.584C725.47 51.08 726.198 51.328 727.11 51.328C728.31 51.328 729.35 50.888 730.23 50.008C731.11 49.112 731.55 48 731.55 46.672V45.064H730.182C728.246 45.064 726.75 45.376 725.694 46C724.654 46.624 724.134 47.488 724.134 48.592ZM737.624 39.52L737.648 41.944H737.696C738.08 41.096 738.568 40.44 739.16 39.976C739.752 39.512 740.4 39.28 741.104 39.28C742.832 39.28 743.96 40.152 744.488 41.896H744.536C744.888 41.08 745.384 40.44 746.024 39.976C746.68 39.512 747.416 39.28 748.232 39.28C749.48 39.28 750.4 39.664 750.992 40.432C751.6 41.2 751.904 42.416 751.904 44.08V52H750.8V44.32C750.8 42.832 750.584 41.784 750.152 41.176C749.72 40.552 749.008 40.24 748.016 40.24C747.136 40.24 746.376 40.656 745.736 41.488C745.096 42.304 744.776 43.328 744.776 44.56V52H743.672V44.32C743.672 42.832 743.456 41.784 743.024 41.176C742.608 40.552 741.904 40.24 740.912 40.24C740.112 40.24 739.368 40.728 738.68 41.704C738.008 42.664 737.672 43.832 737.672 45.208V52H736.544V39.52H737.624ZM763.765 34.48V41.992H773.845V34.48H775.045V52H773.845V43H763.765V52H762.565V34.48H763.765ZM783.476 39.28C785.14 39.28 786.324 39.64 787.028 40.36C787.732 41.064 788.084 42.28 788.084 44.008V48.64C788.084 49.76 788.204 50.88 788.444 52H787.34C787.196 51.264 787.108 50.44 787.076 49.528H787.028C786.596 50.36 785.964 51.024 785.132 51.52C784.316 52 783.38 52.24 782.324 52.24C781.14 52.24 780.196 51.92 779.492 51.28C778.788 50.624 778.436 49.744 778.436 48.64C778.436 47.232 779.052 46.136 780.284 45.352C781.532 44.552 783.3 44.152 785.588 44.152H786.956V44.032C786.956 42.608 786.7 41.624 786.188 41.08C785.692 40.52 784.788 40.24 783.476 40.24C781.924 40.24 780.524 40.608 779.276 41.344L778.988 40.432C780.332 39.664 781.828 39.28 783.476 39.28ZM779.54 48.592C779.54 49.424 779.804 50.088 780.332 50.584C780.876 51.08 781.604 51.328 782.516 51.328C783.716 51.328 784.756 50.888 785.636 50.008C786.516 49.112 786.956 48 786.956 46.672V45.064H785.588C783.652 45.064 782.156 45.376 781.1 46C780.06 46.624 779.54 47.488 779.54 48.592ZM793.054 39.52V42.472H793.102C793.742 41.464 794.598 40.68 795.67 40.12C796.742 39.56 797.958 39.28 799.318 39.28V40.264C797.526 40.264 796.038 40.776 794.854 41.8C793.67 42.808 793.078 44.072 793.078 45.592V52H791.95V39.52H793.054ZM803.695 39.52V42.472H803.743C804.383 41.464 805.239 40.68 806.311 40.12C807.383 39.56 808.599 39.28 809.959 39.28V40.264C808.167 40.264 806.679 40.776 805.495 41.8C804.311 42.808 803.719 44.072 803.719 45.592V52H802.591V39.52H803.695ZM813.495 39.52L817.767 50.488H817.815L822.423 39.52H823.623L815.943 57.28H814.743L817.167 51.832L812.271 39.52H813.495Z" fill="black"/>
<path d="M0.912 148L7.464 130.48H8.904L15.48 148H14.184L12.168 142.456H4.176L2.16 148H0.912ZM4.56 141.448H11.808L8.208 131.536H8.16L4.56 141.448ZM23.4868 136.264C22.4308 136.264 21.4788 136.768 20.6308 137.776C19.7988 138.784 19.3828 139.976 19.3828 141.352V148H18.2548V135.52H19.3348L19.3588 138.16H19.4068C19.8388 137.28 20.4388 136.584 21.2068 136.072C21.9908 135.544 22.8468 135.28 23.7748 135.28C25.2308 135.28 26.3028 135.704 26.9908 136.552C27.6788 137.4 28.0228 138.76 28.0228 140.632V148H26.9188V140.728C26.9188 139.096 26.6548 137.944 26.1268 137.272C25.6148 136.6 24.7348 136.264 23.4868 136.264ZM38.7225 142.168C38.7385 143.768 39.1785 145.024 40.0425 145.936C40.9225 146.848 42.0905 147.304 43.5465 147.304C44.8745 147.304 46.1305 146.968 47.3145 146.296L47.6745 147.184C46.3785 147.888 44.9785 148.24 43.4745 148.24C41.6825 148.24 40.2505 147.664 39.1785 146.512C38.1225 145.344 37.5945 143.76 37.5945 141.76C37.5945 139.744 38.0985 138.16 39.1065 137.008C40.1145 135.856 41.4905 135.28 43.2345 135.28C44.8985 135.28 46.1865 135.832 47.0985 136.936C48.0105 138.04 48.4665 139.608 48.4665 141.64V142.168H38.7225ZM38.7465 141.208H47.3625C47.3305 139.592 46.9545 138.36 46.2345 137.512C45.5305 136.648 44.5305 136.216 43.2345 136.216C41.8585 136.216 40.7785 136.656 39.9945 137.536C39.2105 138.4 38.7945 139.624 38.7465 141.208ZM56.7212 136.264C55.6652 136.264 54.7132 136.768 53.8652 137.776C53.0332 138.784 52.6172 139.976 52.6172 141.352V148H51.4892V135.52H52.5692L52.5932 138.16H52.6412C53.0732 137.28 53.6732 136.584 54.4412 136.072C55.2252 135.544 56.0812 135.28 57.0092 135.28C58.4652 135.28 59.5372 135.704 60.2252 136.552C60.9132 137.4 61.2572 138.76 61.2572 140.632V148H60.1532V140.728C60.1532 139.096 59.8892 137.944 59.3612 137.272C58.8492 136.6 57.9692 136.264 56.7212 136.264ZM67.8113 131.44V136H72.7553V136.96H67.8113V144.328C67.8113 145.528 67.9873 146.32 68.3393 146.704C68.6913 147.088 69.3393 147.28 70.2833 147.28C71.0353 147.28 71.7153 147.16 72.3233 146.92L72.5633 147.832C71.7953 148.104 70.9953 148.24 70.1633 148.24C68.8673 148.24 67.9633 147.968 67.4513 147.424C66.9393 146.864 66.6833 145.88 66.6833 144.472V136.96H63.8033V136H66.6833V131.44H67.8113ZM77.745 130V138.136H77.793C78.257 137.256 78.865 136.56 79.617 136.048C80.385 135.536 81.225 135.28 82.137 135.28C83.593 135.28 84.665 135.704 85.353 136.552C86.041 137.4 86.385 138.76 86.385 140.632V148H85.281V140.728C85.281 139.096 85.017 137.944 84.489 137.272C83.977 136.6 83.097 136.264 81.849 136.264C80.793 136.264 79.841 136.768 78.993 137.776C78.161 138.784 77.745 139.976 77.745 141.352V148H76.617V130H77.745ZM91.0044 135.52V143.368C91.0044 144.792 91.2444 145.8 91.7244 146.392C92.2044 146.968 93.0204 147.256 94.1724 147.256C95.1964 147.256 96.1404 146.76 97.0044 145.768C97.8684 144.76 98.3004 143.56 98.3004 142.168V135.52H99.4284V148H98.3484L98.3244 145.36H98.2764C97.8444 146.24 97.2364 146.944 96.4524 147.472C95.6844 147.984 94.8364 148.24 93.9084 148.24C92.5164 148.24 91.5004 147.864 90.8604 147.112C90.2204 146.36 89.9004 145.136 89.9004 143.44V135.52H91.0044ZM107.081 135.28C108.537 135.28 109.929 135.6 111.257 136.24L110.945 137.176C109.697 136.552 108.409 136.24 107.081 136.24C106.057 136.24 105.257 136.448 104.681 136.864C104.105 137.264 103.817 137.816 103.817 138.52C103.817 139.16 104.049 139.68 104.513 140.08C104.993 140.48 105.873 140.8 107.153 141.04C108.737 141.328 109.881 141.776 110.585 142.384C111.289 142.976 111.641 143.784 111.641 144.808C111.641 145.864 111.233 146.704 110.417 147.328C109.617 147.936 108.505 148.24 107.081 148.24C105.513 148.24 104.049 147.84 102.689 147.04L103.025 146.128C104.289 146.896 105.641 147.28 107.081 147.28C108.153 147.28 108.993 147.064 109.601 146.632C110.209 146.184 110.513 145.576 110.513 144.808C110.513 144.072 110.241 143.496 109.697 143.08C109.169 142.648 108.273 142.312 107.009 142.072C105.473 141.8 104.369 141.384 103.697 140.824C103.025 140.264 102.689 139.496 102.689 138.52C102.689 137.544 103.081 136.76 103.865 136.168C104.649 135.576 105.721 135.28 107.081 135.28ZM115.991 132.64V130H117.167V132.64H115.991ZM115.991 148V135.52H117.167V148H115.991ZM126.429 135.28C128.093 135.28 129.277 135.64 129.981 136.36C130.685 137.064 131.037 138.28 131.037 140.008V144.64C131.037 145.76 131.157 146.88 131.397 148H130.293C130.149 147.264 130.061 146.44 130.029 145.528H129.981C129.549 146.36 128.917 147.024 128.085 147.52C127.269 148 126.333 148.24 125.277 148.24C124.093 148.24 123.149 147.92 122.445 147.28C121.741 146.624 121.389 145.744 121.389 144.64C121.389 143.232 122.005 142.136 123.237 141.352C124.485 140.552 126.253 140.152 128.541 140.152H129.909V140.032C129.909 138.608 129.653 137.624 129.141 137.08C128.645 136.52 127.741 136.24 126.429 136.24C124.877 136.24 123.477 136.608 122.229 137.344L121.941 136.432C123.285 135.664 124.781 135.28 126.429 135.28ZM122.493 144.592C122.493 145.424 122.757 146.088 123.285 146.584C123.829 147.08 124.557 147.328 125.469 147.328C126.669 147.328 127.709 146.888 128.589 146.008C129.469 145.112 129.909 144 129.909 142.672V141.064H128.541C126.605 141.064 125.109 141.376 124.053 142C123.013 142.624 122.493 143.488 122.493 144.592ZM138.581 135.28C140.037 135.28 141.429 135.6 142.757 136.24L142.445 137.176C141.197 136.552 139.909 136.24 138.581 136.24C137.557 136.24 136.757 136.448 136.181 136.864C135.605 137.264 135.317 137.816 135.317 138.52C135.317 139.16 135.549 139.68 136.013 140.08C136.493 140.48 137.373 140.8 138.653 141.04C140.237 141.328 141.381 141.776 142.085 142.384C142.789 142.976 143.141 143.784 143.141 144.808C143.141 145.864 142.733 146.704 141.917 147.328C141.117 147.936 140.005 148.24 138.581 148.24C137.013 148.24 135.549 147.84 134.189 147.04L134.525 146.128C135.789 146.896 137.141 147.28 138.581 147.28C139.653 147.28 140.493 147.064 141.101 146.632C141.709 146.184 142.013 145.576 142.013 144.808C142.013 144.072 141.741 143.496 141.197 143.08C140.669 142.648 139.773 142.312 138.509 142.072C136.973 141.8 135.869 141.384 135.197 140.824C134.525 140.264 134.189 139.496 134.189 138.52C134.189 137.544 134.581 136.76 135.365 136.168C136.149 135.576 137.221 135.28 138.581 135.28ZM149.35 131.44V136H154.294V136.96H149.35V144.328C149.35 145.528 149.526 146.32 149.878 146.704C150.23 147.088 150.878 147.28 151.822 147.28C152.574 147.28 153.254 147.16 153.862 146.92L154.102 147.832C153.334 148.104 152.534 148.24 151.702 148.24C150.406 148.24 149.502 147.968 148.99 147.424C148.478 146.864 148.222 145.88 148.222 144.472V136.96H145.342V136H148.222V131.44H149.35ZM159.116 132.64V130H160.292V132.64H159.116ZM159.116 148V135.52H160.292V148H159.116ZM170.442 136.264C168.874 136.264 167.642 136.752 166.746 137.728C165.866 138.688 165.426 140.032 165.426 141.76C165.426 143.424 165.89 144.76 166.818 145.768C167.746 146.776 168.954 147.28 170.442 147.28C171.546 147.28 172.602 147.016 173.61 146.488L173.946 147.4C172.826 147.96 171.642 148.24 170.394 148.24C168.57 148.24 167.09 147.648 165.954 146.464C164.834 145.28 164.274 143.712 164.274 141.76C164.274 139.744 164.818 138.16 165.906 137.008C166.994 135.856 168.49 135.28 170.394 135.28C171.642 135.28 172.826 135.56 173.946 136.12L173.61 137.056C172.602 136.528 171.546 136.264 170.442 136.264ZM185.463 141.352C185.463 145.24 187.127 147.184 190.455 147.184C193.783 147.184 195.447 145.24 195.447 141.352V130.48H196.647V141.328C196.647 143.568 196.111 145.28 195.039 146.464C193.967 147.648 192.431 148.24 190.431 148.24C188.431 148.24 186.895 147.656 185.823 146.488C184.767 145.304 184.239 143.584 184.239 141.328V130.48H185.463V141.352ZM200.828 130.48L205.796 138.256H205.844L210.788 130.48H212.156L206.54 139.144L212.276 148H210.86L205.796 140.032H205.748L200.708 148H199.316L205.052 139.144L199.436 130.48H200.828ZM226.243 131.272C225.395 131.272 224.491 131.368 223.531 131.56V146.92C224.491 147.112 225.395 147.208 226.243 147.208C228.851 147.208 230.827 146.512 232.171 145.12C233.531 143.728 234.211 141.688 234.211 139C234.211 136.472 233.531 134.552 232.171 133.24C230.827 131.928 228.851 131.272 226.243 131.272ZM235.363 139C235.363 142.008 234.579 144.304 233.011 145.888C231.443 147.456 229.187 148.24 226.243 148.24C224.819 148.24 223.515 148.112 222.331 147.856V130.624C223.547 130.368 224.851 130.24 226.243 130.24C229.187 130.24 231.443 131 233.011 132.52C234.579 134.024 235.363 136.184 235.363 139ZM238.551 142.168C238.567 143.768 239.007 145.024 239.871 145.936C240.751 146.848 241.919 147.304 243.375 147.304C244.703 147.304 245.959 146.968 247.143 146.296L247.503 147.184C246.207 147.888 244.807 148.24 243.303 148.24C241.511 148.24 240.079 147.664 239.007 146.512C237.951 145.344 237.423 143.76 237.423 141.76C237.423 139.744 237.927 138.16 238.935 137.008C239.943 135.856 241.319 135.28 243.063 135.28C244.727 135.28 246.015 135.832 246.927 136.936C247.839 138.04 248.295 139.608 248.295 141.64V142.168H238.551ZM238.575 141.208H247.191C247.159 139.592 246.783 138.36 246.063 137.512C245.359 136.648 244.359 136.216 243.063 136.216C241.687 136.216 240.607 136.656 239.823 137.536C239.039 138.4 238.623 139.624 238.575 141.208ZM255.229 135.28C256.685 135.28 258.077 135.6 259.405 136.24L259.093 137.176C257.845 136.552 256.557 136.24 255.229 136.24C254.205 136.24 253.405 136.448 252.829 136.864C252.253 137.264 251.965 137.816 251.965 138.52C251.965 139.16 252.197 139.68 252.661 140.08C253.141 140.48 254.021 140.8 255.301 141.04C256.885 141.328 258.029 141.776 258.733 142.384C259.437 142.976 259.789 143.784 259.789 144.808C259.789 145.864 259.381 146.704 258.565 147.328C257.765 147.936 256.653 148.24 255.229 148.24C253.661 148.24 252.197 147.84 250.837 147.04L251.173 146.128C252.437 146.896 253.789 147.28 255.229 147.28C256.301 147.28 257.141 147.064 257.749 146.632C258.357 146.184 258.661 145.576 258.661 144.808C258.661 144.072 258.389 143.496 257.845 143.08C257.317 142.648 256.421 142.312 255.157 142.072C253.621 141.8 252.517 141.384 251.845 140.824C251.173 140.264 250.837 139.496 250.837 138.52C250.837 137.544 251.229 136.76 252.013 136.168C252.797 135.576 253.869 135.28 255.229 135.28ZM264.14 132.64V130H265.316V132.64H264.14ZM264.14 148V135.52H265.316V148H264.14ZM274.626 146.8C275.81 146.8 276.794 146.336 277.578 145.408C278.378 144.48 278.778 143.224 278.778 141.64V141.4C278.778 139.832 278.378 138.584 277.578 137.656C276.794 136.712 275.81 136.24 274.626 136.24C273.346 136.24 272.338 136.704 271.602 137.632C270.882 138.56 270.522 139.856 270.522 141.52C270.522 143.152 270.89 144.44 271.626 145.384C272.378 146.328 273.378 146.8 274.626 146.8ZM269.418 141.52C269.418 139.536 269.858 138 270.738 136.912C271.618 135.824 272.842 135.28 274.41 135.28C276.458 135.28 277.906 136.16 278.754 137.92H278.802L278.826 135.52H279.906V147.112C279.906 151.384 278.05 153.52 274.338 153.52C272.978 153.52 271.714 153.256 270.546 152.728L270.834 151.792C271.97 152.304 273.138 152.56 274.338 152.56C275.842 152.56 276.954 152.12 277.674 151.24C278.41 150.376 278.778 149.016 278.778 147.16V145.168H278.73C277.898 146.896 276.458 147.76 274.41 147.76C272.906 147.76 271.698 147.2 270.786 146.08C269.874 144.96 269.418 143.44 269.418 141.52ZM288.893 136.264C287.837 136.264 286.885 136.768 286.037 137.776C285.205 138.784 284.789 139.976 284.789 141.352V148H283.661V135.52H284.741L284.765 138.16H284.813C285.245 137.28 285.845 136.584 286.613 136.072C287.397 135.544 288.253 135.28 289.181 135.28C290.637 135.28 291.709 135.704 292.397 136.552C293.085 137.4 293.429 138.76 293.429 140.632V148H292.325V140.728C292.325 139.096 292.061 137.944 291.533 137.272C291.021 136.6 290.141 136.264 288.893 136.264ZM297.332 142.168C297.348 143.768 297.788 145.024 298.652 145.936C299.532 146.848 300.7 147.304 302.156 147.304C303.484 147.304 304.74 146.968 305.924 146.296L306.284 147.184C304.988 147.888 303.588 148.24 302.084 148.24C300.292 148.24 298.86 147.664 297.788 146.512C296.732 145.344 296.204 143.76 296.204 141.76C296.204 139.744 296.708 138.16 297.716 137.008C298.724 135.856 300.1 135.28 301.844 135.28C303.508 135.28 304.796 135.832 305.708 136.936C306.62 138.04 307.076 139.608 307.076 141.64V142.168H297.332ZM297.356 141.208H305.972C305.94 139.592 305.564 138.36 304.844 137.512C304.14 136.648 303.14 136.216 301.844 136.216C300.468 136.216 299.388 136.656 298.604 137.536C297.82 138.4 297.404 139.624 297.356 141.208ZM311.203 135.52V138.472H311.251C311.891 137.464 312.747 136.68 313.819 136.12C314.891 135.56 316.107 135.28 317.467 135.28V136.264C315.675 136.264 314.187 136.776 313.003 137.8C311.819 138.808 311.227 140.072 311.227 141.592V148H310.099V135.52H311.203ZM356.077 120.304H350.173V123.616C350.173 124.256 350.285 124.64 350.509 124.768C350.733 124.896 351.469 124.96 352.717 124.96C353.965 124.96 354.717 124.784 354.973 124.432C355.261 124.08 355.437 122.96 355.501 121.072L357.661 121.216C357.565 123.68 357.245 125.232 356.701 125.872C356.189 126.48 354.909 126.784 352.861 126.784C350.717 126.784 349.357 126.64 348.781 126.352C348.237 126.064 347.965 125.36 347.965 124.24V120.304H344.221C343.645 124.464 340.749 127.504 335.533 129.424L334.861 127.456C339.021 125.888 341.421 123.504 342.061 120.304H335.197V118.336H344.845V114.496H337.165V112.576H344.845V108.736H347.149V112.576H355.021V114.496H347.149V118.336H356.077V120.304ZM355.741 129.52V131.44H347.149V136C350.797 135.52 353.837 135.072 356.269 134.656L356.509 136.576C350.973 137.6 343.965 138.512 335.485 139.312L335.293 137.296C338.941 136.944 342.125 136.608 344.845 136.288V131.44H336.973V129.52H344.845V125.248H347.149V129.52H355.741ZM358.333 123.328L359.581 121.504C360.573 122.24 361.773 123.216 363.181 124.432C363.469 122.672 363.613 120.384 363.613 117.568V116.08H356.701V114.016H363.613V108.736H365.821V114.016H374.317C374.317 120.192 374.477 125.136 374.797 128.848C375.117 132.56 375.405 134.8 375.661 135.568C375.949 136.336 376.205 136.72 376.429 136.72C376.525 136.72 376.637 136.496 376.765 136.048C376.925 135.6 377.101 134.752 377.293 133.504C377.517 132.256 377.693 130.752 377.821 128.992L379.597 129.664C379.181 136.224 377.997 139.504 376.045 139.504C375.789 139.504 375.549 139.472 375.325 139.408C375.133 139.312 374.893 139.104 374.605 138.784C374.317 138.432 374.061 137.968 373.837 137.392C373.645 136.784 373.437 135.904 373.213 134.752C372.989 133.568 372.797 132.176 372.637 130.576C372.477 128.944 372.349 126.896 372.253 124.432C372.157 121.968 372.093 119.184 372.061 116.08H365.821V117.808C365.821 120.752 365.565 123.584 365.053 126.304C367.037 128.352 369.133 130.8 371.341 133.648L369.805 135.28C368.013 132.88 366.237 130.736 364.477 128.848C363.101 133.616 360.445 137.552 356.509 140.656L354.973 138.928C358.909 135.952 361.469 131.968 362.653 126.976C361.149 125.504 359.709 124.288 358.333 123.328ZM335.437 150.304C337.965 147.616 340.285 144.64 342.397 141.376L344.269 142.432C342.157 145.792 339.805 148.848 337.213 151.6L335.437 150.304ZM351.181 151.552C350.829 148.8 350.221 145.728 349.357 142.336L351.565 141.952C352.429 145.248 353.053 148.352 353.437 151.264L351.181 151.552ZM363.277 151.552C362.029 148.416 360.621 145.376 359.053 142.432L361.117 141.712C362.941 145.168 364.397 148.24 365.485 150.928L363.277 151.552ZM375.661 151.504C373.677 148.592 371.357 145.584 368.701 142.48L370.477 141.232C372.877 144.016 375.213 147.056 377.485 150.352L375.661 151.504ZM413.965 147.424H426.493V149.536H398.077V147.424H411.613V130.576H400.093V128.464H411.613V114.016H398.845V111.904H426.013V114.016H413.965V128.464H424.429V130.576H413.965V147.424ZM390.733 149.104C391.821 149.104 392.733 148.176 393.469 146.32C394.205 144.464 394.573 141.536 394.573 137.536C394.573 134.912 394.413 132.48 394.093 130.24C391.053 133.632 387.613 136.352 383.773 138.4L382.813 136.432C387.069 134.128 390.685 131.216 393.661 127.696C393.021 124.4 392.077 121.344 390.829 118.528C388.493 120.576 386.157 122.256 383.821 123.568L382.813 121.6C385.341 120.096 387.693 118.384 389.869 116.464C388.973 114.704 387.901 112.912 386.653 111.088L388.669 110.032C389.885 111.792 390.877 113.408 391.645 114.88C393.565 113.024 395.245 111.088 396.685 109.072L398.365 110.368C396.733 112.64 394.813 114.816 392.605 116.896C395.421 123.008 396.829 129.888 396.829 137.536C396.829 146.656 394.925 151.216 391.117 151.216C389.421 151.216 387.245 150.896 384.589 150.256L384.733 148.192C387.261 148.8 389.261 149.104 390.733 149.104ZM434.509 132.064V145.072H445.309V132.064H434.509ZM434.509 130.048H445.309V117.616H434.509V130.048ZM468.349 150.784C466.045 150.784 462.877 150.64 458.845 150.352L458.797 148.192C462.061 148.48 464.989 148.624 467.581 148.624C468.125 148.624 468.557 148.272 468.877 147.568C469.229 146.832 469.549 145.36 469.837 143.152C470.157 140.912 470.429 137.68 470.653 133.456C470.877 129.2 471.085 123.616 471.277 116.704H454.909C453.181 121.248 451.117 125.072 448.717 128.176L447.517 127.168V147.136H434.509V150.88H432.205V115.552H437.629C438.781 113.344 439.725 111.072 440.461 108.736L442.669 109.168C441.965 111.472 441.117 113.6 440.125 115.552H447.517V126.064C451.101 121.04 453.613 115.216 455.053 108.592L457.309 108.928C456.893 110.784 456.365 112.672 455.725 114.592H473.629C473.437 123.072 473.213 129.696 472.957 134.464C472.701 139.2 472.349 142.8 471.901 145.264C471.453 147.728 470.973 149.264 470.461 149.872C469.981 150.48 469.277 150.784 468.349 150.784ZM454.765 125.056L456.733 123.856C459.453 127.728 461.885 131.968 464.029 136.576L462.013 137.536C459.869 133.024 457.453 128.864 454.765 125.056ZM521.053 119.536C517.789 118.992 514.237 118.688 510.397 118.624V137.488C513.597 139.056 517.197 141.392 521.197 144.496L519.805 146.128C516.381 143.504 513.245 141.408 510.397 139.84V140.176C510.397 143.696 509.645 146.176 508.141 147.616C506.637 149.056 504.061 149.776 500.413 149.776C497.373 149.776 494.989 149.104 493.261 147.76C491.565 146.384 490.717 144.496 490.717 142.096C490.717 139.792 491.549 138 493.213 136.72C494.909 135.44 497.309 134.8 500.413 134.8C502.813 134.8 505.389 135.36 508.141 136.48V116.464C513.101 116.464 517.501 116.784 521.341 117.424L521.053 119.536ZM480.157 118.576V116.464H489.325C490.189 113.872 490.957 111.36 491.629 108.928L493.741 109.312C493.133 111.456 492.413 113.84 491.581 116.464H501.181V118.576H490.909C488.285 126.448 485.053 134.624 481.213 143.104L479.197 142.288C482.909 134.16 486.061 126.256 488.653 118.576H480.157ZM508.141 138.688C505.453 137.472 502.877 136.864 500.413 136.864C495.453 136.864 492.973 138.608 492.973 142.096C492.973 143.888 493.613 145.28 494.893 146.272C496.205 147.264 498.045 147.76 500.413 147.76C503.389 147.76 505.421 147.232 506.509 146.176C507.597 145.088 508.141 143.088 508.141 140.176V138.688ZM530.653 134.704C530.653 142.48 533.981 146.368 540.637 146.368C547.293 146.368 550.621 142.48 550.621 134.704V112.96H553.021V134.656C553.021 139.136 551.949 142.56 549.805 144.928C547.661 147.296 544.589 148.48 540.589 148.48C536.589 148.48 533.517 147.312 531.373 144.976C529.261 142.608 528.205 139.168 528.205 134.656V112.96H530.653V134.704ZM561.383 112.96L571.319 128.512H571.415L581.303 112.96H584.039L572.807 130.288L584.279 148H581.447L571.319 132.064H571.223L561.143 148H558.359L569.831 130.288L558.599 112.96H561.383ZM621.514 109.168L623.242 108.208C624.33 109.904 625.738 112.304 627.466 115.408L625.738 116.32C624.394 113.824 622.986 111.44 621.514 109.168ZM627.658 108.304L629.386 107.344C631.114 110.128 632.554 112.576 633.706 114.688L631.978 115.6C630.57 113.04 629.13 110.608 627.658 108.304ZM595.546 116.176V114.016H621.466V116.176H595.546ZM590.17 126.976H630.01V129.136H613.114C613.082 135.12 611.882 139.728 609.514 142.96C607.146 146.192 603.242 148.608 597.802 150.208L597.13 148.096C602.09 146.592 605.578 144.432 607.594 141.616C609.61 138.768 610.65 134.608 610.714 129.136H590.17V126.976ZM670.138 108.976L671.962 108.208C673.114 110.224 674.378 112.688 675.754 115.6L673.93 116.272C673.034 114.32 671.77 111.888 670.138 108.976ZM675.994 108.064L677.818 107.344C679.386 110.16 680.682 112.672 681.706 114.88L679.882 115.6C678.506 112.752 677.21 110.24 675.994 108.064ZM636.874 120.256H645.514V111.376H647.818V120.256H666.538V111.376H668.89V120.256H678.346V122.416H668.89V125.584C668.89 133.744 667.258 139.616 663.994 143.2C660.762 146.784 655.05 148.976 646.858 149.776L646.474 147.616C650.378 147.2 653.578 146.544 656.074 145.648C658.57 144.752 660.618 143.424 662.218 141.664C663.818 139.904 664.938 137.76 665.578 135.232C666.218 132.672 666.538 129.456 666.538 125.584V122.416H647.818V133.84H645.514V122.416H636.874V120.256ZM687.514 130.624C694.458 129.632 701.226 127.488 707.818 124.192C714.41 120.864 719.674 116.944 723.61 112.432L725.146 114.016C721.466 118.208 716.618 121.936 710.602 125.2V150.016H708.154V126.448C701.53 129.712 694.762 131.824 687.85 132.784L687.514 130.624ZM734.746 120.64H755.194V110.464H757.594V120.64H774.394V122.896H757.594V124.24C757.594 132.112 756.33 137.872 753.802 141.52C751.306 145.168 746.81 147.744 740.314 149.248L739.594 147.088C745.546 145.68 749.626 143.344 751.834 140.08C754.074 136.816 755.194 131.536 755.194 124.24V122.896H734.746V120.64ZM783.226 131.872V129.568H821.914V131.872H783.226Z" fill="black"/>
</svg>
