<?xml version="1.0" encoding="utf-8"?>
<svg version="1.1" xmlns="http://www.w3.org/2000/svg" xmlns:xlink="http://www.w3.org/1999/xlink" height="77.04630109478455" width="97.04630109478455">
  <defs>
    <rect id="rect-0" opacity="1" x="23.52315054739222" y="23.523150547392277" width="50" height="30"/>
    <path id="path-1" opacity="1" d="M33.52315054739222,23.523150547392277 L63.52315054739222,23.523150547392277 C69.04230079233221,23.523150547392277 73.52315054739222,28.004000302452276 73.52315054739222,33.52315054739228 L73.52315054739222,43.52315054739228 C73.52315054739222,49.04230079233228 69.04230079233221,53.52315054739228 63.52315054739222,53.52315054739228 L33.52315054739222,53.52315054739228 C28.00400030245222,53.52315054739228 23.52315054739222,49.04230079233228 23.52315054739222,43.52315054739228 L23.52315054739222,33.52315054739228 C23.52315054739222,28.004000302452276 28.00400030245222,23.523150547392277 33.52315054739222,23.523150547392277Z"/>
    <mask id="mask-2" maskUnits="userSpaceOnUse" maskContentUnits="userSpaceOnUse">
      <rect opacity="1" x="0" y="0" width="97.04630109478455" height="77.04630109478455" fill="white"/>
      <use xlink:href="#path-1" fill="black"/>
    </mask>
    <path id="path-3" opacity="1" d="M31.25582845235617,29.86394642946274 C26.988047337033755,26.364365914898364 28.00400030245218,23.523150547392277 33.52315054739218,23.523150547392277 L63.52315054739213,23.523150547392277 C69.04230079233213,23.523150547392277 70.05825375775055,26.364365914898375 65.79047264242816,29.86394642946276 L56.2558284523562,37.6823546653218 C51.98804733703379,41.181935179886196 45.05825375775065,41.1819351798862 40.790472642428234,37.682354665321824 L31.25582845235617,29.86394642946274Z"/>
    <mask id="mask-4" maskUnits="userSpaceOnUse" maskContentUnits="userSpaceOnUse">
      <rect opacity="1" x="0" y="0" width="97.04630109478455" height="77.04630109478455" fill="white"/>
      <use xlink:href="#path-3" fill="black"/>
    </mask>
  </defs>
  <g opacity="1">
    <g opacity="1">
      <use xlink:href="#path-1" fill-opacity="0" stroke="rgb(19,17,115)" stroke-opacity="1" stroke-width="10" mask="url(#mask-2)"/>
    </g>
    <g opacity="1">
      <use xlink:href="#path-3" fill-opacity="0" stroke="rgb(19,17,115)" stroke-opacity="1" stroke-width="10" mask="url(#mask-4)"/>
    </g>
  </g>
</svg>