<svg width="115" height="44" viewBox="0 0 115 44" fill="none" xmlns="http://www.w3.org/2000/svg">
<g filter="url(#filter0_d)">
<path d="M11.52 9.412H20.832V7.3H24.528V9.412H30.48V12.7H24.528V14.212H29.568V17.428H24.528V20.812C26.048 21.692 27.864 23.1 29.976 25.036L27.72 27.532C26.344 26.252 25.2 25.276 24.288 24.604C23.984 25.82 23.352 26.7 22.392 27.244C21.448 27.788 20.104 28.06 18.36 28.06C16.6 28.06 15.224 27.652 14.232 26.836C13.256 26.036 12.768 24.9 12.768 23.428C12.768 22.052 13.232 20.964 14.16 20.164C15.104 19.364 16.504 18.964 18.36 18.964C19.192 18.964 20.016 19.068 20.832 19.276V17.428H12.432V14.212H20.832V12.7H11.52V9.412ZM20.832 22.588C20.128 22.3 19.44 22.156 18.768 22.156C17.248 22.156 16.488 22.58 16.488 23.428C16.488 24.324 17.112 24.772 18.36 24.772C19.32 24.772 19.968 24.628 20.304 24.34C20.64 24.036 20.816 23.452 20.832 22.588ZM45.792 8.284C44.784 10.764 43.72 13.444 42.6 16.324L42.648 16.372C43.496 15.892 44.216 15.652 44.808 15.652C45.88 15.652 46.704 16.044 47.28 16.828C47.856 17.612 48.264 18.964 48.504 20.884C48.648 22.068 48.816 22.86 49.008 23.26C49.2 23.66 49.448 23.86 49.752 23.86C50.584 23.86 51.44 22.196 52.32 18.868L55.68 19.78C54.896 22.756 54.04 24.812 53.112 25.948C52.2 27.068 51.048 27.628 49.656 27.628C48.296 27.628 47.24 27.212 46.488 26.38C45.752 25.548 45.232 24.124 44.928 22.108C44.768 21.068 44.592 20.356 44.4 19.972C44.208 19.588 43.96 19.396 43.656 19.396C42.952 19.396 42.176 20.02 41.328 21.268C40.48 22.5 39.376 24.756 38.016 28.036L34.56 26.812C37.744 18.62 40.304 12.1 42.24 7.252L45.792 8.284ZM79.296 11.764H75.336V13.804H79.296V16.972H75.336V20.62C76.424 21.404 77.872 22.748 79.68 24.652L77.28 27.028C76.208 25.908 75.48 25.164 75.096 24.796C74.792 25.82 74.232 26.604 73.416 27.148C72.616 27.692 71.616 27.964 70.416 27.964C68.528 27.964 67.096 27.572 66.12 26.788C65.144 26.02 64.656 24.876 64.656 23.356C64.656 21.964 65.12 20.884 66.048 20.116C66.992 19.332 68.448 18.94 70.416 18.94C70.816 18.94 71.224 18.964 71.64 19.012V16.972H65.52V13.804H71.64V11.764H65.52V8.476H79.296V11.764ZM63.648 8.26C62.896 11.204 62.52 14.404 62.52 17.86C62.52 21.316 62.896 24.516 63.648 27.46L60.048 27.868C59.248 24.812 58.848 21.476 58.848 17.86C58.848 14.244 59.248 10.908 60.048 7.852L63.648 8.26ZM71.64 22.372C71.176 22.212 70.696 22.132 70.2 22.132C68.84 22.132 68.16 22.54 68.16 23.356C68.16 24.236 68.776 24.676 70.008 24.676C71.096 24.676 71.64 24.052 71.64 22.804V22.372ZM93.792 8.284C92.784 10.764 91.72 13.444 90.6 16.324L90.648 16.372C91.496 15.892 92.216 15.652 92.808 15.652C93.88 15.652 94.704 16.044 95.28 16.828C95.856 17.612 96.264 18.964 96.504 20.884C96.648 22.068 96.816 22.86 97.008 23.26C97.2 23.66 97.448 23.86 97.752 23.86C98.584 23.86 99.44 22.196 100.32 18.868L103.68 19.78C102.896 22.756 102.04 24.812 101.112 25.948C100.2 27.068 99.048 27.628 97.656 27.628C96.296 27.628 95.24 27.212 94.488 26.38C93.752 25.548 93.232 24.124 92.928 22.108C92.768 21.068 92.592 20.356 92.4 19.972C92.208 19.588 91.96 19.396 91.656 19.396C90.952 19.396 90.176 20.02 89.328 21.268C88.48 22.5 87.376 24.756 86.016 28.036L82.56 26.812C85.744 18.62 88.304 12.1 90.24 7.252L93.792 8.284Z" fill="#131173"/>
<path d="M11.52 9.412V8.412H10.52V9.412H11.52ZM20.832 9.412V10.412H21.832V9.412H20.832ZM20.832 7.3V6.3H19.832V7.3H20.832ZM24.528 7.3H25.528V6.3H24.528V7.3ZM24.528 9.412H23.528V10.412H24.528V9.412ZM30.48 9.412H31.48V8.412H30.48V9.412ZM30.48 12.7V13.7H31.48V12.7H30.48ZM24.528 12.7V11.7H23.528V12.7H24.528ZM24.528 14.212H23.528V15.212H24.528V14.212ZM29.568 14.212H30.568V13.212H29.568V14.212ZM29.568 17.428V18.428H30.568V17.428H29.568ZM24.528 17.428V16.428H23.528V17.428H24.528ZM24.528 20.812H23.528V21.3886L24.027 21.6774L24.528 20.812ZM29.976 25.036L30.7179 25.7065L31.3837 24.9698L30.6517 24.2988L29.976 25.036ZM27.72 27.532L27.0389 28.2642L27.7817 28.9551L28.4619 28.2025L27.72 27.532ZM24.288 24.604L24.8812 23.7989L23.6798 22.9137L23.3179 24.3615L24.288 24.604ZM22.392 27.244L21.899 26.374L21.8927 26.3776L22.392 27.244ZM14.232 26.836L14.8673 26.0637L14.8659 26.0626L14.232 26.836ZM14.16 20.164L13.5135 19.4011L13.5071 19.4066L14.16 20.164ZM20.832 19.276L20.585 20.245L21.832 20.5629V19.276H20.832ZM20.832 17.428H21.832V16.428H20.832V17.428ZM12.432 17.428H11.432V18.428H12.432V17.428ZM12.432 14.212V13.212H11.432V14.212H12.432ZM20.832 14.212V15.212H21.832V14.212H20.832ZM20.832 12.7H21.832V11.7H20.832V12.7ZM11.52 12.7H10.52V13.7H11.52V12.7ZM20.832 22.588L21.8318 22.6065L21.8445 21.9218L21.2106 21.6625L20.832 22.588ZM20.304 24.34L20.9548 25.0993L20.965 25.0905L20.9749 25.0815L20.304 24.34ZM11.52 10.412H20.832V8.412H11.52V10.412ZM21.832 9.412V7.3H19.832V9.412H21.832ZM20.832 8.3H24.528V6.3H20.832V8.3ZM23.528 7.3V9.412H25.528V7.3H23.528ZM24.528 10.412H30.48V8.412H24.528V10.412ZM29.48 9.412V12.7H31.48V9.412H29.48ZM30.48 11.7H24.528V13.7H30.48V11.7ZM23.528 12.7V14.212H25.528V12.7H23.528ZM24.528 15.212H29.568V13.212H24.528V15.212ZM28.568 14.212V17.428H30.568V14.212H28.568ZM29.568 16.428H24.528V18.428H29.568V16.428ZM23.528 17.428V20.812H25.528V17.428H23.528ZM24.027 21.6774C25.4576 22.5057 27.2127 23.8596 29.3003 25.7732L30.6517 24.2988C28.5153 22.3404 26.6384 20.8783 25.029 19.9466L24.027 21.6774ZM29.2341 24.3655L26.9781 26.8615L28.4619 28.2025L30.7179 25.7065L29.2341 24.3655ZM28.4011 26.7998C27.0128 25.5084 25.8372 24.5034 24.8812 23.7989L23.6948 25.4091C24.5628 26.0486 25.6752 26.9956 27.0389 28.2642L28.4011 26.7998ZM23.3179 24.3615C23.0704 25.3514 22.5874 25.9839 21.899 26.374L22.885 28.114C24.1166 27.4161 24.8976 26.2886 25.2581 24.8465L23.3179 24.3615ZM21.8927 26.3776C21.1658 26.7965 20.0237 27.06 18.36 27.06V29.06C20.1843 29.06 21.7302 28.7795 22.8913 28.1104L21.8927 26.3776ZM18.36 27.06C16.7464 27.06 15.6239 26.6861 14.8673 26.0637L13.5967 27.6083C14.8241 28.6179 16.4536 29.06 18.36 29.06V27.06ZM14.8659 26.0626C14.1615 25.4852 13.768 24.656 13.768 23.428H11.768C11.768 25.144 12.3505 26.5868 13.5981 27.6094L14.8659 26.0626ZM13.768 23.428C13.768 22.3029 14.1339 21.5068 14.8129 20.9214L13.5071 19.4066C12.3301 20.4212 11.768 21.8011 11.768 23.428H13.768ZM14.8065 20.9269C15.4985 20.3404 16.6265 19.964 18.36 19.964V17.964C16.3815 17.964 14.7095 18.3876 13.5135 19.4011L14.8065 20.9269ZM18.36 19.964C19.1077 19.964 19.8487 20.0573 20.585 20.245L21.079 18.307C20.1833 18.0787 19.2763 17.964 18.36 17.964V19.964ZM21.832 19.276V17.428H19.832V19.276H21.832ZM20.832 16.428H12.432V18.428H20.832V16.428ZM13.432 17.428V14.212H11.432V17.428H13.432ZM12.432 15.212H20.832V13.212H12.432V15.212ZM21.832 14.212V12.7H19.832V14.212H21.832ZM20.832 11.7H11.52V13.7H20.832V11.7ZM12.52 12.7V9.412H10.52V12.7H12.52ZM21.2106 21.6625C20.4022 21.3317 19.5859 21.156 18.768 21.156V23.156C19.2941 23.156 19.8538 23.2683 20.4534 23.5135L21.2106 21.6625ZM18.768 21.156C17.9478 21.156 17.1731 21.2647 16.5708 21.6007C16.2545 21.7771 15.9717 22.0245 15.7721 22.3586C15.5717 22.694 15.488 23.062 15.488 23.428H17.488C17.488 23.37 17.4993 23.367 17.4889 23.3844C17.4793 23.4005 17.4815 23.3829 17.5452 23.3473C17.7029 23.2593 18.0682 23.156 18.768 23.156V21.156ZM15.488 23.428C15.488 24.1368 15.753 24.8034 16.3728 25.2483C16.9313 25.6493 17.6464 25.772 18.36 25.772V23.772C17.8256 23.772 17.6047 23.6707 17.5392 23.6237C17.5176 23.6082 17.5148 23.6009 17.512 23.5949C17.5067 23.5835 17.488 23.5365 17.488 23.428H15.488ZM18.36 25.772C18.8837 25.772 19.3639 25.7333 19.7829 25.6402C20.1935 25.549 20.6153 25.3903 20.9548 25.0993L19.6532 23.5807C19.6567 23.5777 19.5865 23.635 19.3491 23.6878C19.1201 23.7387 18.7963 23.772 18.36 23.772V25.772ZM20.9749 25.0815C21.6375 24.4821 21.8149 23.522 21.8318 22.6065L19.8322 22.5695C19.8252 22.9447 19.7837 23.2091 19.7305 23.3854C19.6775 23.5615 19.6271 23.6038 19.6331 23.5985L20.9749 25.0815ZM45.792 8.284L46.7184 8.66054L47.136 7.63313L46.071 7.32371L45.792 8.284ZM42.6 16.324L41.668 15.9616L41.4315 16.5697L41.8929 17.0311L42.6 16.324ZM42.648 16.372L41.9409 17.0791L42.4787 17.6169L43.1406 17.2423L42.648 16.372ZM47.28 16.828L48.0859 16.2359L48.0859 16.2359L47.28 16.828ZM48.504 20.884L49.4967 20.7633L49.4963 20.76L48.504 20.884ZM49.008 23.26L49.9095 22.8273L49.9095 22.8273L49.008 23.26ZM52.32 18.868L52.582 17.9029L51.6105 17.6392L51.3532 18.6124L52.32 18.868ZM55.68 19.78L56.647 20.0347L56.8999 19.0749L55.942 18.8149L55.68 19.78ZM53.112 25.948L52.3376 25.3154L52.3366 25.3166L53.112 25.948ZM46.488 26.38L45.739 27.0426L45.7461 27.0505L46.488 26.38ZM44.928 22.108L45.9168 21.9589L45.9164 21.9559L44.928 22.108ZM44.4 19.972L45.2944 19.5248L45.2944 19.5248L44.4 19.972ZM41.328 21.268L42.1517 21.835L42.1551 21.83L41.328 21.268ZM38.016 28.036L37.6822 28.9786L38.5764 29.2953L38.9397 28.419L38.016 28.036ZM34.56 26.812L33.6279 26.4497L33.2545 27.4105L34.2262 27.7546L34.56 26.812ZM42.24 7.252L42.519 6.29171L41.6478 6.03858L41.3113 6.88114L42.24 7.252ZM44.8656 7.90746C43.8554 10.3928 42.7896 13.0775 41.668 15.9616L43.532 16.6864C44.6504 13.8105 45.7126 11.1352 46.7184 8.66054L44.8656 7.90746ZM41.8929 17.0311L41.9409 17.0791L43.3551 15.6649L43.3071 15.6169L41.8929 17.0311ZM43.1406 17.2423C43.9247 16.7984 44.4663 16.652 44.808 16.652V14.652C43.9657 14.652 43.0673 14.9856 42.1554 15.5017L43.1406 17.2423ZM44.808 16.652C45.5993 16.652 46.1077 16.9214 46.4741 17.4201L48.0859 16.2359C47.3003 15.1666 46.1607 14.652 44.808 14.652V16.652ZM46.4741 17.4201C46.8906 17.987 47.2758 19.1207 47.5117 21.008L49.4963 20.76C49.2522 18.8073 48.8214 17.237 48.0859 16.2359L46.4741 17.4201ZM47.5113 21.0047C47.6534 22.1731 47.8334 23.1237 48.1065 23.6927L49.9095 22.8273C49.7986 22.5963 49.6426 21.9629 49.4967 20.7633L47.5113 21.0047ZM48.1065 23.6927C48.3779 24.2582 48.8966 24.86 49.752 24.86V22.86C49.788 22.86 49.8311 22.8663 49.8751 22.8823C49.9186 22.8981 49.949 22.9181 49.9658 22.9316C49.9813 22.9441 49.981 22.9477 49.9689 22.9311C49.9566 22.9144 49.9357 22.8819 49.9095 22.8273L48.1065 23.6927ZM49.752 24.86C50.3169 24.86 50.7643 24.5738 51.0825 24.2602C51.3997 23.9475 51.6694 23.5318 51.9072 23.0694C52.3851 22.1405 52.8409 20.8097 53.2868 19.1236L51.3532 18.6124C50.9191 20.2543 50.5069 21.4195 50.1288 22.1546C49.9386 22.5242 49.7833 22.7325 49.6785 22.8358C49.5747 22.9382 49.6031 22.86 49.752 22.86V24.86ZM52.0581 19.8331L55.4181 20.7451L55.942 18.8149L52.582 17.9029L52.0581 19.8331ZM54.713 19.5253C53.9341 22.482 53.1206 24.3568 52.3376 25.3154L53.8864 26.5806C54.9594 25.2672 55.8579 23.03 56.647 20.0347L54.713 19.5253ZM52.3366 25.3166C51.6062 26.2135 50.7344 26.628 49.656 26.628V28.628C51.3616 28.628 52.7938 27.9225 53.8874 26.5794L52.3366 25.3166ZM49.656 26.628C48.5135 26.628 47.7526 26.2878 47.2299 25.7095L45.7461 27.0505C46.7274 28.1362 48.0785 28.628 49.656 28.628V26.628ZM47.237 25.7174C46.6969 25.1069 46.2127 23.921 45.9168 21.9589L43.9392 22.2571C44.2513 24.327 44.8071 25.9891 45.739 27.0426L47.237 25.7174ZM45.9164 21.9559C45.7569 20.9194 45.5642 20.0644 45.2944 19.5248L43.5056 20.4192C43.6198 20.6476 43.7791 21.2166 43.9396 22.2601L45.9164 21.9559ZM45.2944 19.5248C45.0129 18.9618 44.4894 18.396 43.656 18.396V20.396C43.6247 20.396 43.5858 20.3907 43.545 20.3765C43.5045 20.3624 43.4751 20.3441 43.4578 20.3307C43.4278 20.3075 43.4533 20.3147 43.5056 20.4192L45.2944 19.5248ZM43.656 18.396C42.9981 18.396 42.4128 18.6879 41.9193 19.0847C41.4253 19.482 40.955 20.0376 40.5009 20.706L42.1551 21.83C42.549 21.2504 42.8907 20.87 43.1727 20.6433C43.4552 20.4161 43.6099 20.396 43.656 20.396V18.396ZM40.5043 20.701C39.5907 22.0283 38.4526 24.3722 37.0923 27.653L38.9397 28.419C40.2994 25.1398 41.3693 22.9717 42.1517 21.835L40.5043 20.701ZM38.3498 27.0934L34.8938 25.8694L34.2262 27.7546L37.6822 28.9786L38.3498 27.0934ZM35.4921 27.1743C38.6756 18.9835 41.2343 12.4667 43.1687 7.62286L41.3113 6.88114C39.3737 11.7333 36.8124 18.2565 33.6279 26.4497L35.4921 27.1743ZM41.961 8.21229L45.513 9.24429L46.071 7.32371L42.519 6.29171L41.961 8.21229ZM79.296 11.764V12.764H80.296V11.764H79.296ZM75.336 11.764V10.764H74.336V11.764H75.336ZM75.336 13.804H74.336V14.804H75.336V13.804ZM79.296 13.804H80.296V12.804H79.296V13.804ZM79.296 16.972V17.972H80.296V16.972H79.296ZM75.336 16.972V15.972H74.336V16.972H75.336ZM75.336 20.62H74.336V21.132L74.7514 21.4313L75.336 20.62ZM79.68 24.652L80.3835 25.3627L81.0795 24.6736L80.4052 23.9634L79.68 24.652ZM77.28 27.028L76.5576 27.7195L77.2608 28.4542L77.9835 27.7387L77.28 27.028ZM75.096 24.796L75.7879 24.074L74.604 22.9395L74.1374 24.5114L75.096 24.796ZM73.416 27.148L72.8613 26.3159L72.8537 26.3211L73.416 27.148ZM66.12 26.788L66.7463 26.0083L66.7384 26.0021L66.12 26.788ZM66.048 20.116L66.6856 20.8864L66.6869 20.8853L66.048 20.116ZM71.64 19.012L71.5254 20.0054L72.64 20.134V19.012H71.64ZM71.64 16.972H72.64V15.972H71.64V16.972ZM65.52 16.972H64.52V17.972H65.52V16.972ZM65.52 13.804V12.804H64.52V13.804H65.52ZM71.64 13.804V14.804H72.64V13.804H71.64ZM71.64 11.764H72.64V10.764H71.64V11.764ZM65.52 11.764H64.52V12.764H65.52V11.764ZM65.52 8.476V7.476H64.52V8.476H65.52ZM79.296 8.476H80.296V7.476H79.296V8.476ZM63.648 8.26L64.6169 8.50749L64.9009 7.39559L63.7606 7.26636L63.648 8.26ZM63.648 27.46L63.7606 28.4536L64.9009 28.3244L64.6169 27.2125L63.648 27.46ZM60.048 27.868L59.0806 28.1212L59.3 28.9592L60.1606 28.8616L60.048 27.868ZM60.048 7.852L60.1606 6.85836L59.3 6.76082L59.0806 7.59875L60.048 7.852ZM71.64 22.372H72.64V21.659L71.966 21.4266L71.64 22.372ZM79.296 10.764H75.336V12.764H79.296V10.764ZM74.336 11.764V13.804H76.336V11.764H74.336ZM75.336 14.804H79.296V12.804H75.336V14.804ZM78.296 13.804V16.972H80.296V13.804H78.296ZM79.296 15.972H75.336V17.972H79.296V15.972ZM74.336 16.972V20.62H76.336V16.972H74.336ZM74.7514 21.4313C75.7612 22.159 77.1573 23.4476 78.9548 25.3406L80.4052 23.9634C78.5867 22.0484 77.0868 20.649 75.9206 19.8087L74.7514 21.4313ZM78.9765 23.9413L76.5765 26.3173L77.9835 27.7387L80.3835 25.3627L78.9765 23.9413ZM78.0024 26.3365C76.9326 25.2188 76.19 24.4593 75.7879 24.074L74.4041 25.518C74.77 25.8687 75.4834 26.5972 76.5576 27.7195L78.0024 26.3365ZM74.1374 24.5114C73.8935 25.3327 73.465 25.9135 72.8613 26.3159L73.9707 27.9801C74.999 27.2945 75.6905 26.3073 76.0546 25.0806L74.1374 24.5114ZM72.8537 26.3211C72.2556 26.7278 71.464 26.964 70.416 26.964V28.964C71.768 28.964 72.9764 28.6562 73.9783 27.9749L72.8537 26.3211ZM70.416 26.964C68.6451 26.964 67.4743 26.5932 66.7463 26.0084L65.4937 27.5676C66.7177 28.5508 68.4109 28.964 70.416 28.964V26.964ZM66.7384 26.0021C66.0574 25.4662 65.656 24.6454 65.656 23.356H63.656C63.656 25.1066 64.2306 26.5738 65.5016 27.5739L66.7384 26.0021ZM65.656 23.356C65.656 22.2102 66.0243 21.4337 66.6856 20.8864L65.4104 19.3456C64.2157 20.3343 63.656 21.7178 63.656 23.356H65.656ZM66.6869 20.8853C67.3709 20.3172 68.5494 19.94 70.416 19.94V17.94C68.3466 17.94 66.6131 18.3468 65.4091 19.3467L66.6869 20.8853ZM70.416 19.94C70.776 19.94 71.1457 19.9616 71.5254 20.0054L71.7546 18.0186C71.3023 17.9664 70.856 17.94 70.416 17.94V19.94ZM72.64 19.012V16.972H70.64V19.012H72.64ZM71.64 15.972H65.52V17.972H71.64V15.972ZM66.52 16.972V13.804H64.52V16.972H66.52ZM65.52 14.804H71.64V12.804H65.52V14.804ZM72.64 13.804V11.764H70.64V13.804H72.64ZM71.64 10.764H65.52V12.764H71.64V10.764ZM66.52 11.764V8.476H64.52V11.764H66.52ZM65.52 9.476H79.296V7.476H65.52V9.476ZM78.296 8.476V11.764H80.296V8.476H78.296ZM62.6791 8.01251C61.9039 11.0476 61.52 14.3317 61.52 17.86H63.52C63.52 14.4763 63.8881 11.3604 64.6169 8.50749L62.6791 8.01251ZM61.52 17.86C61.52 21.3883 61.9039 24.6724 62.6791 27.7075L64.6169 27.2125C63.8881 24.3596 63.52 21.2437 63.52 17.86H61.52ZM63.5354 26.4664L59.9354 26.8744L60.1606 28.8616L63.7606 28.4536L63.5354 26.4664ZM61.0154 27.6148C60.2399 24.6523 59.848 21.4026 59.848 17.86H57.848C57.848 21.5494 58.2561 24.9717 59.0806 28.1212L61.0154 27.6148ZM59.848 17.86C59.848 14.3174 60.2399 11.0677 61.0154 8.10525L59.0806 7.59875C58.2561 10.7483 57.848 14.1706 57.848 17.86H59.848ZM59.9354 8.84564L63.5354 9.25364L63.7606 7.26636L60.1606 6.85836L59.9354 8.84564ZM71.966 21.4266C71.396 21.2301 70.8057 21.132 70.2 21.132V23.132C70.5863 23.132 70.956 23.1939 71.314 23.3174L71.966 21.4266ZM70.2 21.132C69.4526 21.132 68.7259 21.2383 68.1555 21.5805C67.5037 21.9716 67.16 22.6092 67.16 23.356H69.16C69.16 23.2936 69.1719 23.2877 69.1617 23.3061C69.1506 23.326 69.1446 23.3194 69.1845 23.2955C69.2941 23.2297 69.5874 23.132 70.2 23.132V21.132ZM67.16 23.356C67.16 24.0588 67.4246 24.7196 68.0408 25.1597C68.5949 25.5556 69.3032 25.676 70.008 25.676V23.676C69.4808 23.676 69.2651 23.5764 69.2032 23.5323C69.1837 23.5183 69.1829 23.5132 69.1817 23.5106C69.178 23.5027 69.16 23.4598 69.16 23.356H67.16ZM70.008 25.676C70.7446 25.676 71.4685 25.4584 71.9858 24.8651C72.4801 24.2981 72.64 23.551 72.64 22.804H70.64C70.64 23.305 70.5279 23.4939 70.4782 23.5509C70.4515 23.5816 70.3594 23.676 70.008 23.676V25.676ZM72.64 22.804V22.372H70.64V22.804H72.64ZM93.792 8.284L94.7184 8.66054L95.136 7.63313L94.071 7.32371L93.792 8.284ZM90.6 16.324L89.668 15.9616L89.4315 16.5697L89.8929 17.0311L90.6 16.324ZM90.648 16.372L89.9409 17.0791L90.4787 17.6169L91.1406 17.2423L90.648 16.372ZM95.28 16.828L96.0859 16.2359L96.0859 16.2359L95.28 16.828ZM96.504 20.884L97.4967 20.7633L97.4963 20.76L96.504 20.884ZM97.008 23.26L97.9095 22.8273L97.9095 22.8273L97.008 23.26ZM100.32 18.868L100.582 17.9029L99.6105 17.6392L99.3532 18.6124L100.32 18.868ZM103.68 19.78L104.647 20.0347L104.9 19.0749L103.942 18.8149L103.68 19.78ZM101.112 25.948L100.338 25.3154L100.337 25.3166L101.112 25.948ZM94.488 26.38L93.739 27.0426L93.7461 27.0505L94.488 26.38ZM92.928 22.108L93.9168 21.9589L93.9164 21.9559L92.928 22.108ZM92.4 19.972L93.2944 19.5248L93.2944 19.5248L92.4 19.972ZM89.328 21.268L90.1517 21.835L90.1551 21.83L89.328 21.268ZM86.016 28.036L85.6822 28.9786L86.5764 29.2953L86.9397 28.419L86.016 28.036ZM82.56 26.812L81.6279 26.4497L81.2545 27.4105L82.2262 27.7546L82.56 26.812ZM90.24 7.252L90.519 6.29171L89.6478 6.03858L89.3113 6.88114L90.24 7.252ZM92.8656 7.90746C91.8554 10.3928 90.7896 13.0775 89.668 15.9616L91.532 16.6864C92.6504 13.8105 93.7126 11.1352 94.7184 8.66054L92.8656 7.90746ZM89.8929 17.0311L89.9409 17.0791L91.3551 15.6649L91.3071 15.6169L89.8929 17.0311ZM91.1406 17.2423C91.9247 16.7984 92.4663 16.652 92.808 16.652V14.652C91.9657 14.652 91.0673 14.9856 90.1554 15.5017L91.1406 17.2423ZM92.808 16.652C93.5993 16.652 94.1077 16.9214 94.4741 17.4201L96.0859 16.2359C95.3003 15.1666 94.1607 14.652 92.808 14.652V16.652ZM94.4741 17.4201C94.8906 17.987 95.2758 19.1207 95.5117 21.008L97.4963 20.76C97.2522 18.8073 96.8214 17.237 96.0859 16.2359L94.4741 17.4201ZM95.5113 21.0047C95.6534 22.1731 95.8334 23.1237 96.1065 23.6927L97.9095 22.8273C97.7986 22.5963 97.6426 21.9629 97.4967 20.7633L95.5113 21.0047ZM96.1065 23.6927C96.3779 24.2582 96.8966 24.86 97.752 24.86V22.86C97.788 22.86 97.8311 22.8663 97.8751 22.8823C97.9186 22.8981 97.949 22.9181 97.9658 22.9316C97.9813 22.9441 97.981 22.9477 97.9689 22.9311C97.9566 22.9144 97.9357 22.8819 97.9095 22.8273L96.1065 23.6927ZM97.752 24.86C98.3169 24.86 98.7643 24.5738 99.0825 24.2602C99.3997 23.9475 99.6694 23.5318 99.9072 23.0694C100.385 22.1405 100.841 20.8097 101.287 19.1236L99.3532 18.6124C98.9191 20.2543 98.5069 21.4195 98.1288 22.1546C97.9386 22.5242 97.7833 22.7325 97.6785 22.8358C97.5747 22.9382 97.6031 22.86 97.752 22.86V24.86ZM100.058 19.8331L103.418 20.7451L103.942 18.8149L100.582 17.9029L100.058 19.8331ZM102.713 19.5253C101.934 22.482 101.121 24.3568 100.338 25.3154L101.886 26.5806C102.959 25.2672 103.858 23.03 104.647 20.0347L102.713 19.5253ZM100.337 25.3166C99.6062 26.2135 98.7344 26.628 97.656 26.628V28.628C99.3616 28.628 100.794 27.9225 101.887 26.5794L100.337 25.3166ZM97.656 26.628C96.5135 26.628 95.7526 26.2878 95.2299 25.7095L93.7461 27.0505C94.7274 28.1362 96.0785 28.628 97.656 28.628V26.628ZM95.237 25.7174C94.6969 25.1069 94.2127 23.921 93.9168 21.9589L91.9392 22.2571C92.2513 24.327 92.8071 25.9891 93.739 27.0426L95.237 25.7174ZM93.9164 21.9559C93.7569 20.9194 93.5642 20.0644 93.2944 19.5248L91.5056 20.4192C91.6198 20.6476 91.7791 21.2166 91.9396 22.2601L93.9164 21.9559ZM93.2944 19.5248C93.0129 18.9618 92.4894 18.396 91.656 18.396V20.396C91.6247 20.396 91.5858 20.3907 91.545 20.3765C91.5045 20.3624 91.4751 20.3441 91.4578 20.3307C91.4278 20.3075 91.4533 20.3147 91.5056 20.4192L93.2944 19.5248ZM91.656 18.396C90.9981 18.396 90.4128 18.6879 89.9193 19.0847C89.4253 19.482 88.955 20.0376 88.5009 20.706L90.1551 21.83C90.549 21.2504 90.8907 20.87 91.1727 20.6433C91.4552 20.4161 91.6099 20.396 91.656 20.396V18.396ZM88.5043 20.701C87.5907 22.0283 86.4526 24.3722 85.0923 27.653L86.9397 28.419C88.2994 25.1398 89.3693 22.9717 90.1517 21.835L88.5043 20.701ZM86.3498 27.0934L82.8938 25.8694L82.2262 27.7546L85.6822 28.9786L86.3498 27.0934ZM83.4921 27.1743C86.6756 18.9835 89.2343 12.4667 91.1687 7.62286L89.3113 6.88114C87.3737 11.7333 84.8124 18.2565 81.6279 26.4497L83.4921 27.1743ZM89.961 8.21229L93.513 9.24429L94.071 7.32371L90.519 6.29171L89.961 8.21229Z" fill="#FF5858"/>
</g>
<defs>
<filter id="filter0_d" x="0.52002" y="0.0385742" width="114.38" height="43.2568" filterUnits="userSpaceOnUse" color-interpolation-filters="sRGB">
<feFlood flood-opacity="0" result="BackgroundImageFix"/>
<feColorMatrix in="SourceAlpha" type="matrix" values="0 0 0 0 0 0 0 0 0 0 0 0 0 0 0 0 0 0 127 0"/>
<feOffset dy="4"/>
<feGaussianBlur stdDeviation="5"/>
<feColorMatrix type="matrix" values="0 0 0 0 0.10877 0 0 0 0 0.155029 0 0 0 0 0.401747 0 0 0 1 0"/>
<feBlend mode="normal" in2="BackgroundImageFix" result="effect1_dropShadow"/>
<feBlend mode="normal" in="SourceGraphic" in2="effect1_dropShadow" result="shape"/>
</filter>
</defs>
</svg>
