<svg width="109" height="37" viewBox="0 0 109 37" fill="none" xmlns="http://www.w3.org/2000/svg">
<path d="M21.568 7.3V10.012H28.12V11.62H21.568V14.812H27.328V16.42H21.568V21.292C23.28 22.22 25.288 23.676 27.592 25.66L26.464 26.932C24.624 25.316 22.984 24.06 21.544 23.164C21.448 24.78 20.992 25.94 20.176 26.644C19.376 27.348 18.104 27.7 16.36 27.7C14.792 27.7 13.544 27.324 12.616 26.572C11.704 25.836 11.248 24.828 11.248 23.548C11.248 22.476 11.64 21.572 12.424 20.836C13.208 20.1 14.52 19.732 16.36 19.732C17.416 19.732 18.56 19.98 19.792 20.476V16.42H10.672V14.812H19.792V11.62H9.88V10.012H19.792V7.3H21.568ZM19.792 22.204C18.592 21.628 17.504 21.34 16.528 21.34C14.224 21.34 13.072 22.076 13.072 23.548C13.072 24.332 13.36 24.956 13.936 25.42C14.528 25.868 15.336 26.092 16.36 26.092C17.656 26.092 18.552 25.828 19.048 25.3C19.544 24.772 19.792 23.812 19.792 22.42V22.204ZM42.232 8.332C41.08 11.068 39.736 14.38 38.2 18.268H38.248C39.336 16.924 40.52 16.252 41.8 16.252C42.76 16.252 43.528 16.676 44.104 17.524C44.68 18.372 45.112 19.66 45.4 21.388C45.672 22.988 45.968 24.124 46.288 24.796C46.608 25.468 47.056 25.804 47.632 25.804C48.368 25.804 49.088 25.284 49.792 24.244C50.496 23.188 51.136 21.564 51.712 19.372L53.32 19.828C52.584 22.612 51.736 24.572 50.776 25.708C49.832 26.828 48.776 27.388 47.608 27.388C46.568 27.388 45.752 26.956 45.16 26.092C44.568 25.228 44.104 23.844 43.768 21.94C43.496 20.468 43.2 19.412 42.88 18.772C42.56 18.132 42.136 17.812 41.608 17.812C40.504 17.812 39.4 18.548 38.296 20.02C37.208 21.492 35.952 24.02 34.528 27.604L32.92 27.004C34.952 21.836 37.52 15.436 40.624 7.804L42.232 8.332ZM77.176 10.372H72.856V14.212H77.176V15.772H72.856V21.46C74.104 22.26 75.584 23.516 77.296 25.228L76.072 26.404C74.76 25.092 73.688 24.116 72.856 23.476C72.696 26.26 71.176 27.652 68.296 27.652C66.68 27.652 65.432 27.308 64.552 26.62C63.688 25.932 63.256 24.948 63.256 23.668C63.256 22.628 63.632 21.764 64.384 21.076C65.152 20.372 66.456 20.02 68.296 20.02C69.304 20.02 70.24 20.196 71.104 20.548V15.772H63.904V14.212H71.104V10.372H63.904V8.788H77.176V10.372ZM60.256 8.308C59.472 11.284 59.08 14.468 59.08 17.86C59.08 21.252 59.472 24.436 60.256 27.412L58.528 27.652C57.728 24.612 57.328 21.348 57.328 17.86C57.328 14.372 57.728 11.108 58.528 8.068L60.256 8.308ZM71.104 22.348C70.16 21.868 69.2 21.628 68.224 21.628C66.096 21.628 65.032 22.308 65.032 23.668C65.032 25.268 66.072 26.068 68.152 26.068C69.176 26.068 69.92 25.812 70.384 25.3C70.864 24.788 71.104 23.972 71.104 22.852V22.348ZM90.232 8.332C89.08 11.068 87.736 14.38 86.2 18.268H86.248C87.336 16.924 88.52 16.252 89.8 16.252C90.76 16.252 91.528 16.676 92.104 17.524C92.68 18.372 93.112 19.66 93.4 21.388C93.672 22.988 93.968 24.124 94.288 24.796C94.608 25.468 95.056 25.804 95.632 25.804C96.368 25.804 97.088 25.284 97.792 24.244C98.496 23.188 99.136 21.564 99.712 19.372L101.32 19.828C100.584 22.612 99.736 24.572 98.776 25.708C97.832 26.828 96.776 27.388 95.608 27.388C94.568 27.388 93.752 26.956 93.16 26.092C92.568 25.228 92.104 23.844 91.768 21.94C91.496 20.468 91.2 19.412 90.88 18.772C90.56 18.132 90.136 17.812 89.608 17.812C88.504 17.812 87.4 18.548 86.296 20.02C85.208 21.492 83.952 24.02 82.528 27.604L80.92 27.004C82.952 21.836 85.52 15.436 88.624 7.804L90.232 8.332Z" fill="#131173"/>
<path d="M82 36H1V14.5M108 15.5V2H28H18" stroke="#131173"/>
</svg>
